<svg width="23" height="48" viewBox="0 0 23 48" fill="none" xmlns="http://www.w3.org/2000/svg">
<path d="M22.6738 43.7685H19.0145V42.6561H20.1034C20.2599 42.6561 20.3883 42.5284 20.3883 42.3709V41.1566C20.3883 40.9999 20.2608 40.8715 20.1034 40.8715H18.3388V17.3423C18.3388 17.1848 18.2121 17.0571 18.0547 17.0571H17.3293V1.7838H20.1034C20.2599 1.7838 20.3883 1.65614 20.3883 1.49865V0.284313C20.3883 0.126822 20.2608 0 20.1034 0H2.83039C2.67389 0 2.54554 0.126822 2.54554 0.284313V1.49865C2.54554 1.65614 2.67306 1.7838 2.83039 1.7838H5.56556V17.0571H4.81946C4.66378 17.0571 4.53542 17.1839 4.53542 17.3423V40.8723H2.83039C2.67389 40.8723 2.54554 40.9999 2.54554 41.1574V42.3718C2.54554 42.5284 2.67306 42.6569 2.83039 42.6569H3.96653V43.7693H0.283204C0.126696 43.7693 0 43.8953 0 44.0528V45.7512C0 45.9079 0.125868 46.0363 0.283204 46.0363H3.92761V47.7165C3.92761 47.8724 4.0543 48 4.21164 48H18.7305C18.887 48 19.0145 47.8724 19.0145 47.7165V46.0347H22.6738C22.8303 46.0347 22.9578 45.907 22.9578 45.7495V44.0511C22.9578 43.8945 22.8303 43.7685 22.6738 43.7685ZM7.57284 23.5151C7.73018 23.5151 7.8577 23.3883 7.8577 23.2308V17.6249H15.0206V23.2308C15.0206 23.3874 15.1473 23.5151 15.3047 23.5151C15.462 23.5151 15.5887 23.3883 15.5887 23.2308V17.6249H16.7629V25.0519H6.1328V17.6249H7.2888V23.2308C7.2888 23.3883 7.4155 23.5151 7.57284 23.5151ZM15.0206 17.0571H7.8577V1.7838H15.0206V17.0571ZM16.7505 25.6213C16.7199 25.8949 16.4946 26.112 16.2131 26.112C16.1858 26.112 16.1601 26.1228 16.1336 26.1294C16.1054 26.1203 16.0764 26.112 16.045 26.112H6.87228C6.83667 26.112 6.80272 26.1203 6.77208 26.1328C6.7431 26.1228 6.71411 26.112 6.68265 26.112C6.40027 26.112 6.17669 25.8949 6.14605 25.6213H16.7505ZM6.9112 26.6815H15.9829L16.4193 28.7645H6.45658L6.9112 26.6815ZM6.33154 29.334H16.5377L16.652 29.8761H6.21395L6.33154 29.334ZM6.1328 30.4447H16.7621V40.8151H6.1328V30.4447ZM17.7715 17.6258V40.8159H17.3302V30.1612C17.3302 30.085 17.2995 30.0162 17.2507 29.9656L16.5518 26.6293C17.0031 26.485 17.3293 26.0615 17.3293 25.5625C17.3293 25.5558 17.326 25.5492 17.326 25.5434C17.326 25.5376 17.3293 25.5302 17.3293 25.5243V17.6274H17.7715V17.6258ZM16.7621 17.0571H15.5879V1.7838H16.7621V17.0571ZM3.11443 0.569455H19.8194V1.21517H3.11443V0.569455ZM6.1328 1.7838H7.2888V17.0571H6.1328V1.7838ZM5.10349 17.6258H5.56556V25.4091C5.56556 25.4357 5.57384 25.4605 5.58047 25.4862C5.57384 25.5103 5.56556 25.536 5.56556 25.5625C5.56556 26.0615 5.891 26.4834 6.34065 26.6293L5.59869 30.0336C5.57964 30.0725 5.56639 30.1148 5.56639 30.1612V40.8159H5.10432V17.6258H5.10349ZM3.11443 41.4417H19.8194V42.0858H3.11443V41.4417ZM4.53542 42.6561H18.4464V43.7685H4.53542V42.6561ZM4.4965 46.0347H5.65003V47.4322H4.4965V46.0347ZM16.7845 46.0347V47.4322H15.7825V46.0347H16.7845V46.0347ZM15.2136 47.4322H14.2116V46.0347H15.2136V47.4322ZM13.6427 47.4322H12.6415V46.0347H13.6427V47.4322ZM12.0718 47.4322H10.9688V46.0347H12.0718V47.4322ZM10.4008 47.4322H9.39877V46.0347H10.4008V47.4322ZM8.82904 47.4322H7.78814V46.0347H8.82904V47.4322ZM7.22008 47.4322H6.21809V46.0347H7.22008V47.4322ZM18.4456 47.4322H17.3525V46.0347H18.4456V47.4322ZM22.3889 45.4652H0.568067V44.3371H22.3898V45.4652H22.3889Z" fill="#5F64DD"/>
<path d="M11.4475 21.8449C12.1464 21.8449 12.7145 21.2754 12.7145 20.5758C12.7145 19.8762 12.1456 19.3076 11.4475 19.3076C10.7494 19.3076 10.1797 19.8771 10.1797 20.5758C10.1797 21.2763 10.7486 21.8449 11.4475 21.8449ZM11.4475 19.8754C11.8325 19.8754 12.1464 20.1896 12.1464 20.5758C12.1464 20.9621 11.8325 21.2763 11.4475 21.2763C11.0616 21.2763 10.7478 20.9621 10.7478 20.5758C10.7478 20.1896 11.0616 19.8754 11.4475 19.8754Z" fill="#5F64DD"/>
<path d="M11.4475 16.5018C12.1464 16.5018 12.7145 15.9315 12.7145 15.2327C12.7145 14.5323 12.1456 13.9637 11.4475 13.9637C10.7494 13.9637 10.1797 14.5331 10.1797 15.2327C10.1797 15.9323 10.7486 16.5018 11.4475 16.5018ZM11.4475 14.5323C11.8325 14.5323 12.1464 14.8456 12.1464 15.2327C12.1464 15.6182 11.8325 15.9323 11.4475 15.9323C11.0616 15.9323 10.7478 15.6182 10.7478 15.2327C10.7478 14.8456 11.0616 14.5323 11.4475 14.5323Z" fill="#5F64DD"/>
<path d="M11.4475 11.1189C12.1464 11.1189 12.7145 10.5503 12.7145 9.85149C12.7145 9.15107 12.1456 8.58244 11.4475 8.58244C10.7494 8.58244 10.1797 9.1519 10.1797 9.85149C10.1797 10.5503 10.7486 11.1189 11.4475 11.1189ZM11.4475 9.15107C11.8325 9.15107 12.1464 9.46439 12.1464 9.85149C12.1464 10.2369 11.8325 10.5503 11.4475 10.5503C11.0616 10.5503 10.7478 10.2369 10.7478 9.85149C10.7478 9.46439 11.0616 9.15107 11.4475 9.15107Z" fill="#5F64DD"/>
<path d="M11.4475 6.30628C12.1464 6.30628 12.7145 5.73683 12.7145 5.03724C12.7145 4.33764 12.1456 3.76819 11.4475 3.76819C10.7494 3.76819 10.1797 4.33764 10.1797 5.03724C10.1797 5.73683 10.7486 6.30628 11.4475 6.30628ZM11.4475 4.33682C11.8325 4.33682 12.1464 4.65014 12.1464 5.03724C12.1464 5.42268 11.8325 5.73683 11.4475 5.73683C11.0616 5.73683 10.7478 5.42268 10.7478 5.03724C10.7478 4.65097 11.0616 4.33682 11.4475 4.33682Z" fill="#5F64DD"/>
</svg>
