<svg width="48" height="100" viewBox="0 0 48 100" fill="none" xmlns="http://www.w3.org/2000/svg">
<path d="M47.2371 91.1843H39.6135V88.8668H41.8821C42.2082 88.8668 42.4756 88.6009 42.4756 88.2728V85.7429C42.4756 85.4165 42.2099 85.1489 41.8821 85.1489H38.2058V36.1297C38.2058 35.8016 37.9418 35.5357 37.6141 35.5357H36.1028V3.71624H41.8821C42.2082 3.71624 42.4756 3.4503 42.4756 3.12219V0.59232C42.4756 0.264213 42.2099 0 41.8821 0H5.89666C5.5706 0 5.3032 0.264213 5.3032 0.59232V3.12219C5.3032 3.4503 5.56887 3.71624 5.89666 3.71624H11.5949V35.5357H10.0405C9.7162 35.5357 9.4488 35.7999 9.4488 36.1297V85.1506H5.89666C5.5706 85.1506 5.3032 85.4165 5.3032 85.7446V88.2745C5.3032 88.6009 5.56887 88.8686 5.89666 88.8686H8.2636V91.186H0.590009C0.263951 91.186 0 91.4485 0 91.7766V95.315C0 95.6414 0.262225 95.909 0.590009 95.909H8.18252V99.4094C8.18252 99.7341 8.44647 100 8.77425 100H39.0218C39.3479 100 39.6135 99.7341 39.6135 99.4094V95.9056H47.2371C47.5631 95.9056 47.8288 95.6396 47.8288 95.3115V91.7732C47.8288 91.4468 47.5631 91.1843 47.2371 91.1843ZM15.7768 48.9898C16.1045 48.9898 16.3702 48.7256 16.3702 48.3975V36.7186H31.293V48.3975C31.293 48.7238 31.5569 48.9898 31.8847 48.9898C32.2125 48.9898 32.4765 48.7256 32.4765 48.3975V36.7186H34.9228V52.1914H12.7767V36.7186H15.185V48.3975C15.185 48.7256 15.449 48.9898 15.7768 48.9898ZM31.293 35.5357H16.3702V3.71624H31.293V35.5357ZM34.8969 53.3778C34.8331 53.9476 34.3638 54.4001 33.7773 54.4001C33.7203 54.4001 33.6668 54.4225 33.6116 54.4363C33.553 54.4174 33.4926 54.4001 33.427 54.4001H14.3172C14.2431 54.4001 14.1723 54.4174 14.1085 54.4433C14.0481 54.4225 13.9877 54.4001 13.9222 54.4001C13.3339 54.4001 12.8681 53.9476 12.8043 53.3778H34.8969ZM14.3983 55.5864H33.2977L34.2068 59.9261H13.4512L14.3983 55.5864ZM13.1907 61.1125H34.4535L34.6916 62.2418H12.9457L13.1907 61.1125ZM12.7767 63.4265H34.921V85.0314H12.7767V63.4265ZM37.024 36.7203V85.0332H36.1045V62.8359C36.1045 62.677 36.0407 62.5337 35.9389 62.4283L34.4828 55.4777C35.4231 55.1772 36.1028 54.2947 36.1028 53.2552C36.1028 53.2414 36.0959 53.2275 36.0959 53.2155C36.0959 53.2034 36.1028 53.1878 36.1028 53.1757V36.7238H37.024V36.7203ZM34.921 35.5357H32.4747V3.71624H34.921V35.5357ZM6.4884 1.18637H41.2904V2.5316H6.4884V1.18637ZM12.7767 3.71624H15.185V35.5357H12.7767V3.71624ZM10.6323 36.7203H11.5949V52.9357C11.5949 52.991 11.6122 53.0428 11.626 53.0963C11.6122 53.1464 11.5949 53.1999 11.5949 53.2552C11.5949 54.2947 12.2729 55.1737 13.2097 55.4777L11.6639 62.5699C11.6242 62.6511 11.5966 62.7392 11.5966 62.8359V85.0332H10.634V36.7203H10.6323ZM6.4884 86.337H41.2904V87.6787H6.4884V86.337ZM9.4488 88.8668H38.4301V91.1843H9.4488V88.8668ZM9.36772 95.9056H11.7709V98.8171H9.36772V95.9056ZM34.9676 95.9056V98.8171H32.8802V95.9056H34.9676V95.9056ZM31.695 98.8171H29.6075V95.9056H31.695V98.8171ZM28.4223 98.8171H26.3366V95.9056H28.4223V98.8171ZM25.1496 98.8171H22.8517V95.9056H25.1496V98.8171ZM21.6682 98.8171H19.5808V95.9056H21.6682V98.8171ZM18.3938 98.8171H16.2253V95.9056H18.3938V98.8171ZM15.0418 98.8171H12.9544V95.9056H15.0418V98.8171ZM38.4283 98.8171H36.1511V95.9056H38.4283V98.8171ZM46.6436 94.7192H1.18347V92.3689H46.6454V94.7192H46.6436Z" fill="#5F64DD"/>
<path d="M23.8488 45.5102C25.3048 45.5102 26.4883 44.3238 26.4883 42.8663C26.4883 41.4088 25.3031 40.2242 23.8488 40.2242C22.3944 40.2242 21.2075 41.4106 21.2075 42.8663C21.2075 44.3255 22.3927 45.5102 23.8488 45.5102ZM23.8488 41.4071C24.651 41.4071 25.3048 42.0616 25.3048 42.8663C25.3048 43.671 24.651 44.3255 23.8488 44.3255C23.0448 44.3255 22.391 43.671 22.391 42.8663C22.391 42.0616 23.0448 41.4071 23.8488 41.4071Z" fill="#5F64DD"/>
<path d="M23.8488 34.3787C25.3048 34.3787 26.4883 33.1906 26.4883 31.7348C26.4883 30.2756 25.3031 29.091 23.8488 29.091C22.3944 29.091 21.2075 30.2773 21.2075 31.7348C21.2075 33.1923 22.3927 34.3787 23.8488 34.3787ZM23.8488 30.2756C24.651 30.2756 25.3048 30.9284 25.3048 31.7348C25.3048 32.5378 24.651 33.1923 23.8488 33.1923C23.0448 33.1923 22.391 32.5378 22.391 31.7348C22.391 30.9284 23.0448 30.2756 23.8488 30.2756Z" fill="#5F64DD"/>
<path d="M23.8488 23.1643C25.3048 23.1643 26.4883 21.9797 26.4883 20.5239C26.4883 19.0647 25.3031 17.8801 23.8488 17.8801C22.3944 17.8801 21.2075 19.0665 21.2075 20.5239C21.2075 21.9797 22.3927 23.1643 23.8488 23.1643ZM23.8488 19.0647C24.651 19.0647 25.3048 19.7175 25.3048 20.5239C25.3048 21.3269 24.651 21.9797 23.8488 21.9797C23.0448 21.9797 22.391 21.3269 22.391 20.5239C22.391 19.7175 23.0448 19.0647 23.8488 19.0647Z" fill="#5F64DD"/>
<path d="M23.8488 13.1381C25.3048 13.1381 26.4883 11.9517 26.4883 10.4942C26.4883 9.03674 25.3031 7.85037 23.8488 7.85037C22.3944 7.85037 21.2075 9.03674 21.2075 10.4942C21.2075 11.9517 22.3927 13.1381 23.8488 13.1381ZM23.8488 9.03501C24.651 9.03501 25.3048 9.68777 25.3048 10.4942C25.3048 11.2972 24.651 11.9517 23.8488 11.9517C23.0448 11.9517 22.391 11.2972 22.391 10.4942C22.391 9.6895 23.0448 9.03501 23.8488 9.03501Z" fill="#5F64DD"/>
</svg>
