<svg width="39" height="80" viewBox="0 0 39 80" fill="none" xmlns="http://www.w3.org/2000/svg">
<path d="M37.7897 72.9474H31.6908V71.0935H33.5057C33.7666 71.0935 33.9805 70.8807 33.9805 70.6182V68.5943C33.9805 68.3332 33.7679 68.1191 33.5057 68.1191H30.5646V28.9038C30.5646 28.6413 30.3535 28.4285 30.0912 28.4285H28.8822V2.97299H33.5057C33.7666 2.97299 33.9805 2.76024 33.9805 2.49776V0.473856C33.9805 0.21137 33.7679 0 33.5057 0H4.71732C4.45648 0 4.24256 0.21137 4.24256 0.473856V2.49776C4.24256 2.76024 4.4551 2.97299 4.71732 2.97299H9.27594V28.4285H8.03243C7.77296 28.4285 7.55904 28.6399 7.55904 28.9038V68.1205H4.71732C4.45648 68.1205 4.24256 68.3332 4.24256 68.5957V70.6196C4.24256 70.8807 4.4551 71.0948 4.71732 71.0948H6.61088V72.9488H0.472007C0.21116 72.9488 0 73.1588 0 73.4213V76.252C0 76.5131 0.20978 76.7272 0.472007 76.7272H6.54601V79.5275C6.54601 79.7873 6.75717 80 7.0194 80H31.2174C31.4783 80 31.6908 79.7873 31.6908 79.5275V76.7245H37.7897C38.0505 76.7245 38.2631 76.5117 38.2631 76.2492V73.4185C38.2631 73.1574 38.0505 72.9474 37.7897 72.9474ZM12.6214 39.1918C12.8836 39.1918 13.0962 38.9805 13.0962 38.718V29.3749H25.0344V38.718C25.0344 38.9791 25.2456 39.1918 25.5078 39.1918C25.77 39.1918 25.9812 38.9805 25.9812 38.718V29.3749H27.9382V41.7531H10.2213V29.3749H12.148V38.718C12.148 38.9805 12.3592 39.1918 12.6214 39.1918ZM25.0344 28.4285H13.0962V2.97299H25.0344V28.4285ZM27.9175 42.7022C27.8664 43.1581 27.491 43.5201 27.0218 43.5201C26.9763 43.5201 26.9335 43.538 26.8893 43.5491C26.8424 43.5339 26.7941 43.5201 26.7416 43.5201H11.4538C11.3945 43.5201 11.3379 43.5339 11.2868 43.5546C11.2385 43.538 11.1902 43.5201 11.1377 43.5201C10.6671 43.5201 10.2945 43.1581 10.2434 42.7022H27.9175ZM11.5187 44.4692H26.6381L27.3655 47.9409H10.761L11.5187 44.4692ZM10.5526 48.89H27.5628L27.7533 49.7935H10.3566L10.5526 48.89ZM10.2213 50.7412H27.9368V68.0251H10.2213V50.7412ZM29.6192 29.3763V68.0265H28.8836V50.2687C28.8836 50.1416 28.8325 50.0269 28.7511 49.9427L27.5863 44.3821C28.3385 44.1417 28.8822 43.4358 28.8822 42.6041C28.8822 42.5931 28.8767 42.582 28.8767 42.5724C28.8767 42.5627 28.8822 42.5503 28.8822 42.5406V29.379H29.6192V29.3763ZM27.9368 28.4285H25.9798V2.97299H27.9368V28.4285ZM5.19072 0.949092H33.0323V2.02528H5.19072V0.949092ZM10.2213 2.97299H12.148V28.4285H10.2213V2.97299ZM8.50581 29.3763H9.27594V42.3486C9.27594 42.3928 9.28973 42.4342 9.30078 42.477C9.28973 42.5171 9.27594 42.5599 9.27594 42.6041C9.27594 43.4358 9.81833 44.139 10.5678 44.3821L9.33114 50.056C9.2994 50.1209 9.27732 50.1913 9.27732 50.2687V68.0265H8.5072V29.3763H8.50581ZM5.19072 69.0696H33.0323V70.143H5.19072V69.0696ZM7.55904 71.0935H30.744V72.9474H7.55904V71.0935ZM7.49417 76.7245H9.41671V79.0537H7.49417V76.7245ZM27.9741 76.7245V79.0537H26.3041V76.7245H27.9741V76.7245ZM25.356 79.0537H23.686V76.7245H25.356V79.0537ZM22.7378 79.0537H21.0692V76.7245H22.7378V79.0537ZM20.1197 79.0537H18.2814V76.7245H20.1197V79.0537ZM17.3346 79.0537H15.6646V76.7245H17.3346V79.0537ZM14.7151 79.0537H12.9802V76.7245H14.7151V79.0537ZM12.0335 79.0537H10.3635V76.7245H12.0335V79.0537ZM30.7427 79.0537H28.9209V76.7245H30.7427V79.0537ZM37.3149 75.7754H0.946779V73.8951H37.3163V75.7754H37.3149Z" fill="#5F64DD"/>
<path d="M19.0791 36.4081C20.2439 36.4081 21.1907 35.459 21.1907 34.2931C21.1907 33.1271 20.2425 32.1794 19.0791 32.1794C17.9156 32.1794 16.9661 33.1284 16.9661 34.2931C16.9661 35.4604 17.9142 36.4081 19.0791 36.4081ZM19.0791 33.1257C19.7208 33.1257 20.2439 33.6493 20.2439 34.2931C20.2439 34.9368 19.7208 35.4604 19.0791 35.4604C18.4359 35.4604 17.9128 34.9368 17.9128 34.2931C17.9128 33.6493 18.4359 33.1257 19.0791 33.1257Z" fill="#5F64DD"/>
<path d="M19.0791 27.5029C20.2439 27.5029 21.1907 26.5525 21.1907 25.3879C21.1907 24.2205 20.2425 23.2728 19.0791 23.2728C17.9156 23.2728 16.9661 24.2219 16.9661 25.3879C16.9661 26.5538 17.9142 27.5029 19.0791 27.5029ZM19.0791 24.2205C19.7208 24.2205 20.2439 24.7427 20.2439 25.3879C20.2439 26.0303 19.7208 26.5538 19.0791 26.5538C18.4359 26.5538 17.9128 26.0303 17.9128 25.3879C17.9128 24.7427 18.4359 24.2205 19.0791 24.2205Z" fill="#5F64DD"/>
<path d="M19.0791 18.5315C20.2439 18.5315 21.1907 17.5838 21.1907 16.4192C21.1907 15.2518 20.2425 14.3041 19.0791 14.3041C17.9156 14.3041 16.9661 15.2532 16.9661 16.4192C16.9661 17.5838 17.9142 18.5315 19.0791 18.5315ZM19.0791 15.2518C19.7208 15.2518 20.2439 15.774 20.2439 16.4192C20.2439 17.0616 19.7208 17.5838 19.0791 17.5838C18.4359 17.5838 17.9128 17.0616 17.9128 16.4192C17.9128 15.774 18.4359 15.2518 19.0791 15.2518Z" fill="#5F64DD"/>
<path d="M19.0791 10.5105C20.2439 10.5105 21.1907 9.56137 21.1907 8.39538C21.1907 7.2294 20.2425 6.2803 19.0791 6.2803C17.9156 6.2803 16.9661 7.2294 16.9661 8.39538C16.9661 9.56137 17.9142 10.5105 19.0791 10.5105ZM19.0791 7.22802C19.7208 7.22802 20.2439 7.75022 20.2439 8.39538C20.2439 9.03778 19.7208 9.56137 19.0791 9.56137C18.4359 9.56137 17.9128 9.03778 17.9128 8.39538C17.9128 7.7516 18.4359 7.22802 19.0791 7.22802Z" fill="#5F64DD"/>
</svg>
