<svg width="52" height="80" viewBox="0 0 52 80" fill="none" xmlns="http://www.w3.org/2000/svg">
<path d="M51.0432 32.9771L48.2656 30.8275C48.5787 30.1056 48.7389 29.3268 48.736 28.5401C48.7331 27.7534 48.5672 26.9757 48.2488 26.2561C47.9304 25.5365 47.4662 24.8905 46.8856 24.3586C46.305 23.8268 45.6205 23.4206 44.8751 23.1657C44.1297 22.9108 43.3395 22.8126 42.5542 22.8773C41.769 22.942 41.0056 23.1683 40.3121 23.5418C39.6187 23.9154 39.0101 24.4281 38.5248 25.0478C38.0394 25.6676 37.6877 26.3809 37.4917 27.1429H34.5403C34.878 25.5407 35.5978 24.0435 36.6387 22.7783C37.4992 22.6229 38.2912 22.2076 38.9077 21.5884C39.5242 20.9692 39.9356 20.176 40.0863 19.316C40.2369 18.456 40.1196 17.5705 39.7502 16.7791C39.3807 15.9877 38.777 15.3286 38.0204 14.8908L45.6694 2.16226C45.7998 1.94559 45.8702 1.69823 45.8735 1.44547C45.8767 1.19271 45.8127 0.943628 45.6879 0.723692C45.5631 0.503756 45.382 0.320858 45.1632 0.193705C44.9444 0.0665519 44.6957 -0.00029485 44.4425 9.77623e-07H1.51883C1.26579 7.16054e-05 1.0173 0.0671548 0.798697 0.194407C0.580096 0.32166 0.39921 0.504528 0.274494 0.724359C0.149778 0.94419 0.0856932 1.19312 0.0887762 1.44575C0.0918592 1.69838 0.162001 1.94567 0.292044 2.1624L7.94105 14.891C7.1976 15.3211 6.60136 15.965 6.23024 16.7388C5.85911 17.5125 5.73035 18.38 5.86078 19.228C5.99121 20.0759 6.37476 20.8649 6.96132 21.4918C7.54789 22.1186 8.31019 22.5543 9.14863 22.7418C9.79341 23.5104 10.3443 24.3528 10.7897 25.2513C10.9535 25.5931 11.2466 25.856 11.6046 25.9822C11.9625 26.1083 12.356 26.0872 12.6984 25.9237C13.0408 25.7601 13.3041 25.4675 13.4304 25.1101C13.5567 24.7527 13.5356 24.3599 13.3718 24.018C13.1862 23.6312 12.9476 23.2441 12.7134 22.8573H30.1346C30.5141 22.8573 30.878 22.7068 31.1463 22.4389C31.4147 22.171 31.5654 21.8076 31.5654 21.4287C31.5654 21.0498 31.4147 20.6865 31.1463 20.4186C30.878 20.1507 30.5141 20.0001 30.1346 20.0001H10.1036C9.7241 20.0001 9.36017 19.8496 9.09185 19.5817C8.82352 19.3138 8.67278 18.9505 8.67278 18.5716C8.67278 18.1927 8.82352 17.8293 9.09185 17.5614C9.36017 17.2935 9.7241 17.143 10.1036 17.143H35.8578C36.2372 17.143 36.6012 17.2935 36.8695 17.5614C37.1378 17.8293 37.2886 18.1927 37.2886 18.5716C37.2886 18.9505 37.1378 19.3138 36.8695 19.5817C36.6012 19.8496 36.2372 20.0001 35.8578 20.0001C35.834 20.0001 35.8143 20.0123 35.7909 20.0136C35.6077 20.0429 35.4271 20.0871 35.2511 20.1457C35.1836 20.1836 35.1192 20.2269 35.0587 20.2751C34.9674 20.332 34.8831 20.3993 34.8073 20.4755C34.7932 20.491 34.7733 20.4973 34.7596 20.5135C33.1153 22.3825 32.0424 24.6833 31.6683 27.1429H10.1637C9.78419 27.1429 9.42026 27.2934 9.15194 27.5613C8.88361 27.8292 8.73287 28.1925 8.73287 28.5714C8.73287 28.9503 8.88361 29.3137 9.15194 29.5816C9.42026 29.8495 9.78419 30 10.1637 30H31.6827C31.9173 31.5168 32.4478 32.9729 33.2442 34.2857H15.9483C15.5688 34.2857 15.2049 34.4362 14.9366 34.7041C14.6682 34.972 14.5175 35.3354 14.5175 35.7143C14.5175 36.0932 14.6682 36.4565 14.9366 36.7244C15.2049 36.9923 15.5688 37.1429 15.9483 37.1429H35.8578C36.2372 37.1429 36.6012 37.2934 36.8695 37.5613C37.1378 37.8292 37.2886 38.1925 37.2886 38.5714C37.2886 38.9503 37.1378 39.3137 36.8695 39.5816C36.6012 39.8495 36.2372 40 35.8578 40H10.1036C9.7241 40 9.36017 39.8495 9.09185 39.5816C8.82352 39.3137 8.67278 38.9503 8.67278 38.5714C8.67278 38.1925 8.82352 37.8292 9.09185 37.5613C9.36017 37.2934 9.7241 37.1429 10.1036 37.1429C10.3029 37.1419 10.4998 37.099 10.6813 37.0169C10.7229 36.9986 10.7547 36.9631 10.7945 36.9407C10.9293 36.8687 11.0515 36.7753 11.1564 36.6642C11.1697 36.6495 11.189 36.6448 11.2018 36.6295C11.9681 35.6652 12.6294 34.6224 13.1747 33.5184C13.3504 33.1824 13.3851 32.7906 13.2714 32.429C13.1577 32.0674 12.9048 31.7658 12.5683 31.5904C12.2318 31.415 11.8393 31.3803 11.4772 31.4938C11.1151 31.6074 10.8129 31.8599 10.6373 32.1959C10.2526 32.9519 9.81013 33.6772 9.31391 34.3654C8.44833 34.5235 7.65278 34.9447 7.03601 35.5713C6.41924 36.1979 6.01136 36.9995 5.86812 37.8664C5.72489 38.7332 5.85329 39.6231 6.23578 40.4143C6.61827 41.2056 7.23618 41.8596 8.00503 42.2869L2.63241 52.1205C0.905343 55.2661 0 58.7955 0 62.3828C0 65.97 0.905343 69.4995 2.63241 72.6451L2.94962 73.2244V75.7143C2.95086 76.8505 3.40349 77.9399 4.2082 78.7434C5.0129 79.5468 6.10396 79.9988 7.24199 80H38.7194C39.8574 79.9988 40.9484 79.5468 41.7531 78.7434C42.5579 77.9399 43.0105 76.8505 43.0117 75.7143V73.2229L43.3303 72.6423C45.0576 69.4972 45.9629 65.968 45.9624 62.3811C45.9619 58.7941 45.0556 55.2652 43.3274 52.1205L37.9553 42.2874C38.7116 41.8677 39.3223 41.2284 39.7065 40.4542C40.0907 39.6801 40.2303 38.8077 40.1067 37.9526C39.9831 37.0975 39.6022 36.3001 39.0144 35.666C38.4267 35.0319 37.6598 34.5911 36.8155 34.402C35.7177 33.1386 34.9433 31.628 34.5589 30H37.492C37.7212 30.9162 38.1766 31.7605 38.8165 32.456C39.4563 33.1514 40.2604 33.6758 41.1553 33.9815C42.0503 34.2871 43.0076 34.3641 43.94 34.2056C44.8724 34.0471 45.7502 33.658 46.4934 33.0739L48.7349 34.8075V55.7143C48.7349 56.0932 48.8856 56.4565 49.154 56.7244C49.4223 56.9923 49.7862 57.1429 50.1657 57.1429C50.5451 57.1429 50.9091 56.9923 51.1774 56.7244C51.4457 56.4565 51.5965 56.0932 51.5965 55.7143V34.1071C51.5965 33.8892 51.5466 33.6741 51.4507 33.4782C51.3549 33.2824 51.2155 33.111 51.0432 32.9771V32.9771ZM4.04646 2.85714H34.1131L31.8238 14.2857H10.9143L4.04646 2.85714ZM34.741 14.2857L37.0303 2.85714H41.9161L35.0474 14.2857H34.741ZM40.1501 75.7143C40.1494 76.0929 39.9984 76.4559 39.7302 76.7236C39.4621 76.9914 39.0986 77.1421 38.7194 77.1429H7.24199C6.86267 77.1424 6.49903 76.9917 6.23081 76.7239C5.96259 76.4561 5.81169 76.093 5.8112 75.7143V74.2857H40.1501V75.7143ZM40.818 71.2723L40.7314 71.4286H5.22855L5.14471 71.2751C3.61901 68.4843 2.83796 65.3486 2.87662 62.1694C3.30348 62.3405 3.70885 62.5267 4.12192 62.7203C6.1818 63.7977 8.48156 64.3362 10.8064 64.2857C13.133 64.3363 15.4346 63.7978 17.4965 62.7204C19.176 61.8213 21.0617 61.3759 22.9667 61.4286C24.873 61.376 26.7601 61.8213 28.4412 62.7204C30.5049 63.798 32.8083 64.3365 35.1367 64.2857C37.4629 64.3356 39.764 63.7982 41.8267 62.7232C42.2317 62.5331 42.6486 62.3485 43.0853 62.1734C43.1233 65.3503 42.3426 68.4836 40.818 71.2723V71.2723ZM42.7948 59.2426C42.0483 59.4954 41.3182 59.794 40.6086 60.1367C38.9286 61.0363 37.0422 61.4816 35.1367 61.4286C33.2294 61.4814 31.3414 61.0361 29.6594 60.1367C27.5966 59.0594 25.2942 58.5209 22.9667 58.5714C20.6406 58.521 18.3395 59.0595 16.2781 60.1367C14.5981 61.036 12.7119 61.4814 10.8064 61.4286C8.90316 61.4813 7.01921 61.036 5.34173 60.1367C4.63309 59.804 3.90557 59.5129 3.16289 59.265C3.49996 57.2433 4.16962 55.2913 5.14474 53.4878L10.9531 42.8571H35.0083L40.818 53.4877C41.789 55.2846 42.4568 57.229 42.7948 59.2426H42.7948ZM43.0117 31.4286C42.4458 31.4286 41.8925 31.261 41.4219 30.9471C40.9513 30.6331 40.5846 30.1869 40.368 29.6648C40.1514 29.1427 40.0947 28.5683 40.2051 28.014C40.3155 27.4598 40.5881 26.9507 40.9883 26.5511C41.3885 26.1515 41.8984 25.8794 42.4535 25.7692C43.0086 25.6589 43.5839 25.7155 44.1068 25.9318C44.6297 26.148 45.0766 26.5142 45.391 26.9841C45.7055 27.4539 45.8733 28.0063 45.8733 28.5714C45.8728 29.329 45.5711 30.0555 45.0346 30.5912C44.4981 31.1269 43.7705 31.4281 43.0117 31.4286V31.4286Z" fill="#DF9B7E"/>
</svg>
