<svg width="65" height="100" viewBox="0 0 65 100" fill="none" xmlns="http://www.w3.org/2000/svg">
<path d="M63.8039 41.2214L60.332 38.5344C60.7234 37.632 60.9236 36.6585 60.92 35.6751C60.9164 34.6917 60.709 33.7197 60.311 32.8202C59.9129 31.9207 59.3328 31.1131 58.6071 30.4483C57.8813 29.7835 57.0256 29.2758 56.0939 28.9571C55.1621 28.6385 54.1744 28.5157 53.1928 28.5966C52.2112 28.6775 51.257 28.9604 50.3902 29.4273C49.5234 29.8942 48.7627 30.5351 48.156 31.3098C47.5492 32.0845 47.1096 32.9761 46.8647 33.9286H43.1754C43.5975 31.9258 44.4973 30.0543 45.7983 28.4729C46.874 28.2786 47.864 27.7594 48.6346 26.9855C49.4053 26.2115 49.9195 25.2201 50.1079 24.145C50.2962 23.0699 50.1495 21.9631 49.6877 20.9739C49.2259 19.9847 48.4712 19.1608 47.5255 18.6135L57.0867 2.70282C57.2497 2.43199 57.3378 2.12278 57.3418 1.80684C57.3459 1.49089 57.2658 1.17954 57.1098 0.904615C56.9538 0.629695 56.7275 0.401073 56.454 0.242131C56.1805 0.0831899 55.8696 -0.000368562 55.5531 1.22203e-06H1.89854C1.58224 8.95067e-05 1.27162 0.0839435 0.998371 0.243009C0.72512 0.402075 0.499012 0.63066 0.343117 0.905449C0.187222 1.18024 0.107117 1.49139 0.11097 1.80718C0.114824 2.12297 0.202501 2.43209 0.365055 2.703L9.92631 18.6137C8.997 19.1513 8.25171 19.9563 7.7878 20.9235C7.32389 21.8906 7.16294 22.975 7.32597 24.035C7.48901 25.0949 7.96845 26.0811 8.70165 26.8647C9.43486 27.6483 10.3877 28.1929 11.4358 28.4273C12.2418 29.3879 12.9304 30.4409 13.4871 31.5641C13.6919 31.9914 14.0583 32.3201 14.5057 32.4777C14.9531 32.6353 15.4449 32.609 15.873 32.4046C16.301 32.2002 16.6301 31.8344 16.788 31.3876C16.9459 30.9409 16.9195 30.4498 16.7148 30.0225C16.4827 29.539 16.1845 29.0551 15.8917 28.5716H37.6683C38.1426 28.5716 38.5975 28.3835 38.9329 28.0486C39.2683 27.7137 39.4568 27.2595 39.4568 26.7859C39.4568 26.3123 39.2683 25.8581 38.9329 25.5232C38.5975 25.1883 38.1426 25.0002 37.6683 25.0002H12.6295C12.1551 25.0002 11.7002 24.812 11.3648 24.4772C11.0294 24.1423 10.841 23.6881 10.841 23.2145C10.841 22.7409 11.0294 22.2867 11.3648 21.9518C11.7002 21.6169 12.1551 21.4288 12.6295 21.4288H44.8222C45.2966 21.4288 45.7515 21.6169 46.0869 21.9518C46.4223 22.2867 46.6107 22.7409 46.6107 23.2145C46.6107 23.6881 46.4223 24.1423 46.0869 24.4772C45.7515 24.812 45.2966 25.0002 44.8222 25.0002C44.7925 25.0002 44.7679 25.0154 44.7386 25.017C44.5096 25.0536 44.2839 25.1088 44.0639 25.1821C43.9795 25.2295 43.899 25.2836 43.8233 25.3439C43.7093 25.4151 43.6039 25.4991 43.5092 25.5944C43.4915 25.6138 43.4666 25.6216 43.4496 25.6419C41.3941 27.9782 40.053 30.8541 39.5854 33.9286H12.7046C12.2302 33.9286 11.7753 34.1167 11.4399 34.4516C11.1045 34.7865 10.9161 35.2407 10.9161 35.7143C10.9161 36.1879 11.1045 36.6421 11.4399 36.977C11.7753 37.3119 12.2302 37.5 12.7046 37.5H39.6034C39.8966 39.396 40.5598 41.2162 41.5552 42.8571H19.9354C19.461 42.8571 19.0061 43.0453 18.6707 43.3802C18.3353 43.7151 18.1469 44.1693 18.1469 44.6429C18.1469 45.1165 18.3353 45.5707 18.6707 45.9055C19.0061 46.2404 19.461 46.4286 19.9354 46.4286H44.8222C45.2966 46.4286 45.7515 46.6167 46.0869 46.9516C46.4223 47.2865 46.6107 47.7407 46.6107 48.2143C46.6107 48.6879 46.4223 49.1421 46.0869 49.477C45.7515 49.8119 45.2966 50 44.8222 50H12.6295C12.1551 50 11.7002 49.8119 11.3648 49.477C11.0294 49.1421 10.841 48.6879 10.841 48.2143C10.841 47.7407 11.0294 47.2865 11.3648 46.9516C11.7002 46.6167 12.1551 46.4286 12.6295 46.4286C12.8786 46.4274 13.1247 46.3738 13.3516 46.2712C13.4036 46.2483 13.4433 46.2038 13.4931 46.1759C13.6616 46.0859 13.8144 45.9691 13.9455 45.8302C13.9621 45.8119 13.9863 45.806 14.0022 45.7868C14.9601 44.5815 15.7868 43.2779 16.4684 41.898C16.6879 41.478 16.7314 40.9882 16.5893 40.5362C16.4471 40.0843 16.131 39.7072 15.7104 39.488C15.2898 39.2688 14.7992 39.2253 14.3465 39.3673C13.8938 39.5092 13.5162 39.8249 13.2966 40.2448C12.8157 41.1898 12.2627 42.0965 11.6424 42.9568C10.5604 43.1544 9.56597 43.6808 8.79501 44.4641C8.02405 45.2474 7.5142 46.2494 7.33516 47.3329C7.15611 48.4165 7.31662 49.5289 7.79473 50.5179C8.27284 51.507 9.04522 52.3244 10.0063 52.8586L3.29052 65.1506C1.13168 69.0826 0 73.4944 0 77.9785C0 82.4625 1.13168 86.8743 3.29052 90.8063L3.68703 91.5305V94.6429C3.68858 96.0632 4.25437 97.4249 5.26025 98.4292C6.26613 99.4335 7.62995 99.9984 9.05249 100H48.3992C49.8217 99.9984 51.1856 99.4335 52.1914 98.4292C53.1973 97.4249 53.7631 96.0632 53.7647 94.6429V91.5286L54.1629 90.8029C56.322 86.8715 57.4536 82.46 57.4529 77.9763C57.4523 73.4926 56.3195 69.0815 54.1593 65.1507L47.4441 52.8593C48.3895 52.3346 49.1529 51.5355 49.6332 50.5678C50.1134 49.6001 50.2878 48.5096 50.1333 47.4407C49.9788 46.3719 49.5027 45.3751 48.768 44.5825C48.0333 43.7899 47.0748 43.2389 46.0194 43.0025C44.6471 41.4232 43.6791 39.535 43.1986 37.5H46.865C47.1515 38.6452 47.7207 39.7006 48.5206 40.5699C49.3204 41.4393 50.3255 42.0948 51.4442 42.4768C52.5628 42.8588 53.7595 42.9551 54.925 42.757C56.0905 42.5588 57.1878 42.0725 58.1168 41.3424L60.9186 43.5094V69.6429C60.9186 70.1165 61.107 70.5707 61.4424 70.9055C61.7778 71.2404 62.2328 71.4286 62.7071 71.4286C63.1814 71.4286 63.6363 71.2404 63.9717 70.9055C64.3072 70.5707 64.4956 70.1165 64.4956 69.6429V42.6339C64.4956 42.3615 64.4333 42.0926 64.3134 41.8478C64.1936 41.603 64.0193 41.3888 63.8039 41.2214V41.2214ZM5.05808 3.57143H42.6413L39.7798 17.8571H13.6428L5.05808 3.57143ZM43.4263 17.8571L46.2879 3.57143H52.3952L43.8092 17.8571H43.4263ZM50.1877 94.6429C50.1867 95.1162 49.998 95.5698 49.6628 95.9045C49.3276 96.2392 48.8732 96.4276 48.3992 96.4286H9.05249C8.57834 96.428 8.12379 96.2396 7.78852 95.9049C7.45324 95.5701 7.26462 95.1163 7.264 94.6429V92.8571H50.1877V94.6429ZM51.0226 89.0904L50.9143 89.2857H6.53569L6.43089 89.0939C4.52376 85.6054 3.54745 81.6858 3.59578 77.7118C4.12936 77.9256 4.63607 78.1584 5.1524 78.4004C7.72725 79.7471 10.6019 80.4203 13.508 80.3571C16.4163 80.4204 19.2932 79.7473 21.8706 78.4005C23.97 77.2766 26.3271 76.7199 28.7084 76.7857C31.0913 76.72 33.4501 77.2767 35.5515 78.4005C38.1312 79.7475 41.0104 80.4206 43.9208 80.3571C46.8286 80.4195 49.705 79.7477 52.2834 78.404C52.7897 78.1664 53.3108 77.9356 53.8566 77.7168C53.9041 81.6879 52.9282 85.6045 51.0226 89.0904V89.0904ZM53.4935 74.0533C52.5604 74.3693 51.6477 74.7425 50.7607 75.1709C48.6607 76.2953 46.3028 76.852 43.9208 76.7857C41.5368 76.8518 39.1767 76.2952 37.0743 75.1709C34.4957 73.8243 31.6177 73.1512 28.7084 73.2143C25.8007 73.1512 22.9244 73.8243 20.3476 75.1709C18.2476 76.2951 15.8898 76.8517 13.508 76.7857C11.1289 76.8517 8.77401 76.295 6.67716 75.1709C5.79136 74.755 4.88196 74.3911 3.95362 74.0812C4.37496 71.5542 5.21202 69.1141 6.43092 66.8598L13.6914 53.5714H43.7603L51.0226 66.8596C52.2362 69.1058 53.071 71.5362 53.4935 74.0533H53.4935ZM53.7647 39.2857C53.0572 39.2857 52.3656 39.0763 51.7774 38.6838C51.1892 38.2914 50.7307 37.7336 50.46 37.081C50.1892 36.4284 50.1184 35.7103 50.2564 35.0175C50.3944 34.3247 50.7351 33.6884 51.2354 33.1889C51.7356 32.6894 52.373 32.3493 53.0668 32.2115C53.7607 32.0737 54.4799 32.1444 55.1335 32.4147C55.7871 32.685 56.3458 33.1428 56.7388 33.7301C57.1319 34.3174 57.3416 35.0079 57.3416 35.7143C57.341 36.6613 56.9639 37.5693 56.2932 38.239C55.6226 38.9086 54.7131 39.2851 53.7647 39.2857V39.2857Z" fill="#DF9B7E"/>
</svg>
