<svg width="31" height="48" viewBox="0 0 31 48" fill="none" xmlns="http://www.w3.org/2000/svg">
<path d="M30.6259 19.7863L28.9594 18.4965C29.1472 18.0633 29.2433 17.5961 29.2416 17.124C29.2399 16.652 29.1403 16.1854 28.9493 15.7537C28.7582 15.3219 28.4797 14.9343 28.1314 14.6152C27.783 14.2961 27.3723 14.0524 26.9251 13.8994C26.4778 13.7465 26.0037 13.6875 25.5325 13.7264C25.0614 13.7652 24.6034 13.901 24.1873 14.1251C23.7712 14.3492 23.4061 14.6569 23.1149 15.0287C22.8236 15.4005 22.6126 15.8285 22.495 16.2857H20.7242C20.9268 15.3244 21.3587 14.4261 21.9832 13.667C22.4995 13.5737 22.9747 13.3245 23.3446 12.953C23.7145 12.5815 23.9614 12.1056 24.0518 11.5896C24.1422 11.0736 24.0718 10.5423 23.8501 10.0675C23.6284 9.59264 23.2662 9.19719 22.8122 8.9345L27.4016 1.29735C27.4799 1.16735 27.5221 1.01894 27.5241 0.867282C27.526 0.715627 27.4876 0.566177 27.4127 0.434215C27.3378 0.302253 27.2292 0.192515 27.0979 0.116223C26.9666 0.0399312 26.8174 -0.00017691 26.6655 5.86574e-07H0.911299C0.759474 4.29632e-05 0.610378 0.0402929 0.479218 0.116644C0.348058 0.192996 0.239526 0.302717 0.164696 0.434615C0.0898668 0.566514 0.0514159 0.71587 0.0532657 0.867448C0.0551155 1.01903 0.0972004 1.1674 0.175226 1.29744L4.76463 8.93458C4.31856 9.19264 3.96082 9.57902 3.73814 10.0433C3.51547 10.5075 3.43821 11.028 3.51647 11.5368C3.59472 12.0456 3.82485 12.5189 4.17679 12.8951C4.52873 13.2712 4.98611 13.5326 5.48918 13.6451C5.87604 14.1062 6.20658 14.6117 6.47383 15.1508C6.57211 15.3559 6.74797 15.5136 6.96274 15.5893C7.1775 15.665 7.41357 15.6523 7.61902 15.5542C7.82446 15.4561 7.98246 15.2805 8.05824 15.0661C8.13402 14.8516 8.12138 14.6159 8.0231 14.4108C7.91171 14.1787 7.76856 13.9465 7.62803 13.7144H18.0808C18.3085 13.7144 18.5268 13.6241 18.6878 13.4633C18.8488 13.3026 18.9392 13.0846 18.9392 12.8572C18.9392 12.6299 18.8488 12.4119 18.6878 12.2511C18.5268 12.0904 18.3085 12.0001 18.0808 12.0001H6.06214C5.83446 12.0001 5.6161 11.9098 5.45511 11.749C5.29411 11.5883 5.20367 11.3703 5.20367 11.1429C5.20367 10.9156 5.29411 10.6976 5.45511 10.5369C5.6161 10.3761 5.83446 10.2858 6.06214 10.2858H21.5147C21.7424 10.2858 21.9607 10.3761 22.1217 10.5369C22.2827 10.6976 22.3731 10.9156 22.3731 11.1429C22.3731 11.3703 22.2827 11.5883 22.1217 11.749C21.9607 11.9098 21.7424 12.0001 21.5147 12.0001C21.5004 12.0001 21.4886 12.0074 21.4745 12.0081C21.3646 12.0257 21.2563 12.0522 21.1507 12.0874C21.1101 12.1102 21.0715 12.1361 21.0352 12.1651C20.9805 12.1992 20.9299 12.2396 20.8844 12.2853C20.8759 12.2946 20.864 12.2984 20.8558 12.3081C19.8692 13.4295 19.2254 14.81 19.001 16.2857H6.0982C5.87052 16.2857 5.65216 16.376 5.49116 16.5368C5.33017 16.6975 5.23972 16.9155 5.23972 17.1429C5.23972 17.3702 5.33017 17.5882 5.49116 17.7489C5.65216 17.9097 5.87052 18 6.0982 18H19.0096C19.1504 18.9101 19.4687 19.7838 19.9465 20.5714H9.56897C9.34129 20.5714 9.12293 20.6617 8.96194 20.8225C8.80094 20.9832 8.7105 21.2012 8.7105 21.4286C8.7105 21.6559 8.80094 21.8739 8.96194 22.0347C9.12293 22.1954 9.34129 22.2857 9.56897 22.2857H21.5147C21.7424 22.2857 21.9607 22.376 22.1217 22.5368C22.2827 22.6975 22.3731 22.9155 22.3731 23.1429C22.3731 23.3702 22.2827 23.5882 22.1217 23.7489C21.9607 23.9097 21.7424 24 21.5147 24H6.06214C5.83446 24 5.6161 23.9097 5.45511 23.7489C5.29411 23.5882 5.20367 23.3702 5.20367 23.1429C5.20367 22.9155 5.29411 22.6975 5.45511 22.5368C5.6161 22.376 5.83446 22.2857 6.06214 22.2857C6.18173 22.2852 6.29985 22.2594 6.40879 22.2102C6.43374 22.1992 6.4528 22.1778 6.4767 22.1644C6.55759 22.1212 6.63092 22.0652 6.69382 21.9985C6.70179 21.9897 6.71341 21.9869 6.72107 21.9777C7.18085 21.3991 7.57766 20.7734 7.90482 20.111C8.01021 19.9095 8.03109 19.6743 7.96285 19.4574C7.89462 19.2405 7.74286 19.0595 7.54097 18.9542C7.33908 18.849 7.1036 18.8282 6.88632 18.8963C6.66904 18.9644 6.48776 19.1159 6.38237 19.3175C6.15153 19.7711 5.88608 20.2063 5.58835 20.6192C5.069 20.7141 4.59167 20.9668 4.22161 21.3428C3.85154 21.7188 3.60682 22.1997 3.52087 22.7198C3.43493 23.2399 3.51198 23.7739 3.74147 24.2486C3.97096 24.7233 4.34171 25.1157 4.80302 25.3721L1.57945 31.2723C0.543206 33.1597 0 35.2773 0 37.4297C0 39.582 0.543206 41.6997 1.57945 43.587L1.76977 43.9346V45.4286C1.77052 46.1103 2.0421 46.7639 2.52492 47.246C3.00774 47.7281 3.66238 47.9993 4.34519 48H23.2316C23.9144 47.9993 24.5691 47.7281 25.0519 47.246C25.5347 46.7639 25.8063 46.1103 25.807 45.4286V43.9337L25.9982 43.5854C27.0346 41.6983 27.5777 39.5808 27.5774 37.4286C27.5771 35.2765 27.0334 33.1591 25.9965 31.2723L22.7732 25.3725C23.227 25.1206 23.5934 24.737 23.8239 24.2725C24.0544 23.8081 24.1382 23.2846 24.064 22.7716C23.9898 22.2585 23.7613 21.78 23.4086 21.3996C23.056 21.0192 22.5959 20.7547 22.0893 20.6412C21.4306 19.8831 20.966 18.9768 20.7353 18H22.4952C22.6327 18.5497 22.9059 19.0563 23.2899 19.4736C23.6738 19.8908 24.1562 20.2055 24.6932 20.3889C25.2302 20.5722 25.8046 20.6185 26.364 20.5234C26.9234 20.4282 27.4501 20.1948 27.8961 19.8443L29.2409 20.8845V33.4286C29.2409 33.6559 29.3314 33.8739 29.4924 34.0347C29.6534 34.1954 29.8717 34.2857 30.0994 34.2857C30.3271 34.2857 30.5454 34.1954 30.7064 34.0347C30.8674 33.8739 30.9579 33.6559 30.9579 33.4286V20.4643C30.9579 20.3335 30.928 20.2044 30.8704 20.0869C30.8129 19.9694 30.7293 19.8666 30.6259 19.7863V19.7863ZM2.42788 1.71429H20.4678L19.0943 8.57143H6.54855L2.42788 1.71429ZM20.8446 8.57143L22.2182 1.71429H25.1497L21.0284 8.57143H20.8446ZM24.0901 45.4286C24.0896 45.6558 23.999 45.8735 23.8381 46.0342C23.6773 46.1948 23.4592 46.2853 23.2316 46.2857H4.34519C4.1176 46.2854 3.89942 46.195 3.73849 46.0343C3.57756 45.8737 3.48702 45.6558 3.48672 45.4286V44.5714H24.0901V45.4286ZM24.4908 42.7634L24.4389 42.8571H3.13713L3.08683 42.7651C2.17141 41.0906 1.70277 39.2092 1.72597 37.3016C1.98209 37.4043 2.22531 37.516 2.47315 37.6322C3.70908 38.2786 5.08893 38.6017 6.48384 38.5714C7.87981 38.6018 9.26075 38.2787 10.4979 37.6323C11.5056 37.0928 12.637 36.8256 13.78 36.8571C14.9238 36.8256 16.0561 37.0928 17.0647 37.6323C18.303 38.2788 19.685 38.6019 21.082 38.5714C22.4777 38.6014 23.8584 38.2789 25.096 37.6339C25.339 37.5199 25.5892 37.4091 25.8512 37.304C25.874 39.2102 25.4055 41.0901 24.4908 42.7634V42.7634ZM25.6769 35.5456C25.229 35.6973 24.7909 35.8764 24.3651 36.082C23.3572 36.6218 22.2253 36.889 21.082 36.8571C19.9376 36.8889 18.8048 36.6217 17.7957 36.082C16.5579 35.4356 15.1765 35.1126 13.78 35.1429C12.3843 35.1126 11.0037 35.4357 9.76683 36.082C8.75885 36.6216 7.62712 36.8888 6.48384 36.8571C5.3419 36.8888 4.21153 36.6216 3.20504 36.082C2.77985 35.8824 2.34334 35.7077 1.89774 35.559C2.09998 34.346 2.50177 33.1748 3.08684 32.0927L6.57187 25.7143H21.005L24.4908 32.0926C25.0734 33.1708 25.4741 34.3374 25.6769 35.5456H25.6769ZM25.807 18.8571C25.4675 18.8571 25.1355 18.7566 24.8532 18.5682C24.5708 18.3799 24.3507 18.1121 24.2208 17.7989C24.0908 17.4856 24.0568 17.141 24.1231 16.8084C24.1893 16.4759 24.3529 16.1704 24.593 15.9307C24.8331 15.6909 25.139 15.5277 25.4721 15.4615C25.8051 15.3954 26.1504 15.4293 26.4641 15.5591C26.7778 15.6888 27.046 15.9085 27.2346 16.1905C27.4233 16.4724 27.524 16.8038 27.524 17.1429C27.5237 17.5974 27.3427 18.0333 27.0208 18.3547C26.6988 18.6761 26.2623 18.8568 25.807 18.8571V18.8571Z" fill="#DF9B7E"/>
</svg>
