<svg width="68" height="100" viewBox="0 0 68 100" fill="none" xmlns="http://www.w3.org/2000/svg">
<path d="M6.03125 43.8455V96.6674H3.00838V100H54.3971V96.6674H51.3742V83.3369H60.4428C62.4471 83.3369 64.3693 82.4591 65.7866 80.8967C67.2038 79.3342 68 77.2151 68 75.0054V40.013C68 37.8033 67.2038 35.6842 65.7866 34.1217C64.3693 32.5592 62.4471 31.6814 60.4428 31.6814H51.3742C50.9983 27.557 49.2414 23.735 46.4466 20.962C43.6518 18.189 40.0199 16.6639 36.2599 16.6847H30.2142V13.1188C31.6389 12.7132 32.8806 11.7487 33.7065 10.406C34.5324 9.06337 34.8857 7.43472 34.7003 5.82538C34.5149 4.21604 33.8034 2.73649 32.6993 1.66408C31.5952 0.591659 30.1742 0 28.7027 0C27.2312 0 25.8103 0.591659 24.7062 1.66408C23.6021 2.73649 22.8906 4.21604 22.7052 5.82538C22.5198 7.43472 22.8731 9.06337 23.699 10.406C24.5249 11.7487 25.7665 12.7132 27.1913 13.1188V16.6847H21.1456C17.3986 16.6846 13.7853 18.219 11.0065 20.99C8.22764 23.7611 6.48151 27.5713 6.10682 31.6814H1.49695C1.22352 31.6823 0.955418 31.7648 0.721192 31.9203C0.486967 32.0759 0.295395 32.2985 0.166886 32.5646C0.0455306 32.8252 -0.0113815 33.1164 0.00188605 33.4089C0.0151536 33.7015 0.0981321 33.985 0.242458 34.2309L6.03125 43.8455ZM25.6799 6.68686C25.6799 6.02773 25.8572 5.3834 26.1893 4.83536C26.5215 4.28731 26.9936 3.86016 27.5459 3.60793C28.0983 3.35569 28.7061 3.28969 29.2925 3.41828C29.8789 3.54687 30.4175 3.86427 30.8402 4.33035C31.263 4.79642 31.5509 5.39023 31.6675 6.0367C31.7842 6.68316 31.7243 7.35324 31.4955 7.96219C31.2667 8.57115 30.8793 9.09163 30.3822 9.45782C29.885 9.82402 29.3006 10.0195 28.7027 10.0195C27.901 10.0195 27.1321 9.66836 26.5653 9.04337C25.9984 8.41839 25.6799 7.57072 25.6799 6.68686ZM48.3514 35.0141V80.3043C47.8667 80.1103 47.3556 80.0088 46.8399 80.0043H30.2142V35.0141H48.3514ZM51.3742 41.6793H58.9314V73.3391H51.3742V41.6793ZM46.8399 83.3369C47.2408 83.3369 47.6252 83.5125 47.9087 83.825C48.1921 84.1375 48.3514 84.5613 48.3514 85.0032C48.3514 85.4452 48.1921 85.869 47.9087 86.1815C47.6252 86.494 47.2408 86.6696 46.8399 86.6696H10.5655C10.1647 86.6696 9.78025 86.494 9.4968 86.1815C9.21335 85.869 9.05411 85.4452 9.05411 85.0032C9.05411 84.5613 9.21335 84.1375 9.4968 83.825C9.78025 83.5125 10.1647 83.3369 10.5655 83.3369H46.8399ZM9.05411 96.6674V89.7022C9.53879 89.8962 10.0499 89.9977 10.5655 90.0022H46.8399C47.3556 89.9977 47.8667 89.8962 48.3514 89.7022V96.6674H9.05411ZM64.9771 40.013V75.0054C64.9771 76.3312 64.4994 77.6027 63.6491 78.5402C62.7987 79.4776 61.6454 80.0043 60.4428 80.0043H51.3742V76.6717H58.9314C59.7331 76.6717 60.502 76.3206 61.0689 75.6956C61.6358 75.0706 61.9543 74.223 61.9543 73.3391V41.6793C61.9543 40.7954 61.6358 39.9478 61.0689 39.3228C60.502 38.6978 59.7331 38.3467 58.9314 38.3467H51.3742V35.0141H60.4428C61.6454 35.0141 62.7987 35.5407 63.6491 36.4782C64.4994 37.4157 64.9771 38.6872 64.9771 40.013V40.013ZM21.1456 20.0173H36.2599C39.2057 20.0162 42.0506 21.2007 44.2603 23.3484C46.4699 25.4961 47.8925 28.4593 48.2607 31.6814H9.1448C9.51302 28.4593 10.9355 25.4961 13.1452 23.3484C15.3549 21.2007 18.1998 20.0162 21.1456 20.0173V20.0173ZM7.54268 35.0141H27.1913V80.0043H10.5655C10.0499 80.0088 9.53879 80.1103 9.05411 80.3043V43.3456C9.0518 43.0189 8.96245 42.7002 8.79717 42.4291L4.26287 35.0141H7.54268Z" fill="#689E5F"/>
</svg>
