<svg width="33" height="48" viewBox="0 0 33 48" fill="none" xmlns="http://www.w3.org/2000/svg">
<path d="M2.895 21.0458V46.4003H1.44402V48H26.1106V46.4003H24.6596V40.0017H29.0126C29.9746 40.0017 30.8973 39.5804 31.5775 38.8304C32.2578 38.0804 32.64 37.0632 32.64 36.0026V19.2062C32.64 18.1456 32.2578 17.1284 31.5775 16.3784C30.8973 15.6284 29.9746 15.2071 29.0126 15.2071H24.6596C24.4792 13.2273 23.6359 11.3928 22.2944 10.0618C20.9529 8.7307 19.2095 7.99868 17.4048 8.00865H14.5028V6.29702C15.1867 6.10235 15.7827 5.63938 16.1791 4.9949C16.5755 4.35042 16.7451 3.56867 16.6561 2.79618C16.5671 2.0237 16.2256 1.31352 15.6957 0.798756C15.1657 0.283997 14.4836 0 13.7773 0C13.071 0 12.3889 0.283997 11.859 0.798756C11.329 1.31352 10.9875 2.0237 10.8985 2.79618C10.8095 3.56867 10.9791 4.35042 11.3755 4.9949C11.7719 5.63938 12.3679 6.10235 13.0518 6.29702V8.00865H10.1499C8.35135 8.00863 6.61693 8.74511 5.2831 10.0752C3.94927 11.4053 3.11112 13.2342 2.93127 15.2071H0.718535C0.587291 15.2075 0.4586 15.2471 0.346172 15.3218C0.233744 15.3964 0.14179 15.5033 0.0801054 15.631C0.0218547 15.7561 -0.0054631 15.8959 0.000905303 16.0363C0.00727371 16.1767 0.0471034 16.3128 0.11638 16.4308L2.895 21.0458ZM12.3263 3.20969C12.3263 2.89331 12.4114 2.58403 12.5709 2.32097C12.7303 2.05791 12.9569 1.85288 13.2221 1.7318C13.4872 1.61073 13.7789 1.57905 14.0604 1.64078C14.3418 1.7025 14.6004 1.85485 14.8033 2.07857C15.0062 2.30228 15.1444 2.58731 15.2004 2.89762C15.2564 3.20792 15.2277 3.52955 15.1178 3.82185C15.008 4.11415 14.822 4.36398 14.5834 4.53976C14.3448 4.71553 14.0643 4.80935 13.7773 4.80935C13.3925 4.80935 13.0234 4.64081 12.7513 4.34082C12.4792 4.04082 12.3263 3.63395 12.3263 3.20969ZM23.2087 16.8067V38.546C22.976 38.4529 22.7307 38.4042 22.4832 38.4021H14.5028V16.8067H23.2087ZM24.6596 20.0061H28.2871V35.2028H24.6596V20.0061ZM22.4832 40.0017C22.6756 40.0017 22.8601 40.086 22.9962 40.236C23.1322 40.386 23.2087 40.5894 23.2087 40.8016C23.2087 41.0137 23.1322 41.2171 22.9962 41.3671C22.8601 41.5171 22.6756 41.6014 22.4832 41.6014H5.07146C4.87905 41.6014 4.69452 41.5171 4.55846 41.3671C4.42241 41.2171 4.34597 41.0137 4.34597 40.8016C4.34597 40.5894 4.42241 40.386 4.55846 40.236C4.69452 40.086 4.87905 40.0017 5.07146 40.0017H22.4832ZM4.34597 46.4003V43.0571C4.57862 43.1502 4.82397 43.1989 5.07146 43.201H22.4832C22.7307 43.1989 22.976 43.1502 23.2087 43.0571V46.4003H4.34597ZM31.189 19.2062V36.0026C31.189 36.639 30.9597 37.2493 30.5516 37.6993C30.1434 38.1493 29.5898 38.4021 29.0126 38.4021H24.6596V36.8024H28.2871C28.6719 36.8024 29.041 36.6339 29.3131 36.3339C29.5852 36.0339 29.738 35.627 29.738 35.2028V20.0061C29.738 19.5818 29.5852 19.1749 29.3131 18.8749C29.041 18.5749 28.6719 18.4064 28.2871 18.4064H24.6596V16.8067H29.0126C29.5898 16.8067 30.1434 17.0596 30.5516 17.5095C30.9597 17.9595 31.189 18.5698 31.189 19.2062V19.2062ZM10.1499 9.60831H17.4048C18.8187 9.60777 20.1843 10.1763 21.2449 11.2072C22.3056 12.2381 22.9884 13.6604 23.1651 15.2071H4.3895C4.56625 13.6604 5.24906 12.2381 6.30971 11.2072C7.37036 10.1763 8.73589 9.60777 10.1499 9.60831V9.60831ZM3.62049 16.8067H13.0518V38.4021H5.07146C4.82397 38.4042 4.57862 38.4529 4.34597 38.546V20.8059C4.34486 20.6491 4.30197 20.4961 4.22264 20.366L2.04618 16.8067H3.62049Z" fill="#689E5F"/>
</svg>
