<svg width="55" height="80" viewBox="0 0 55 80" fill="none" xmlns="http://www.w3.org/2000/svg">
<path d="M4.825 35.0764V77.3339H2.4067V80H43.5177V77.3339H41.0994V66.6696H48.3543C49.9577 66.6696 51.4955 65.9673 52.6292 64.7174C53.763 63.4674 54.4 61.7721 54.4 60.0043V32.0104C54.4 30.2427 53.763 28.5473 52.6292 27.2974C51.4955 26.0474 49.9577 25.3452 48.3543 25.3452H41.0994C40.7986 22.0456 39.3931 18.988 37.1573 16.7696C34.9215 14.5512 32.0159 13.3311 29.0079 13.3478H24.1713V10.495C25.3112 10.1706 26.3045 9.39897 26.9652 8.32483C27.6259 7.25069 27.9086 5.94778 27.7602 4.6603C27.6119 3.37283 27.0427 2.18919 26.1595 1.33126C25.2762 0.473328 24.1394 0 22.9622 0C21.785 0 20.6482 0.473328 19.7649 1.33126C18.8816 2.18919 18.3125 3.37283 18.1642 4.6603C18.0158 5.94778 18.2985 7.25069 18.9592 8.32483C19.6199 9.39897 20.6132 10.1706 21.753 10.495V13.3478H16.9165C13.9189 13.3477 11.0282 14.5752 8.80517 16.792C6.58212 19.0089 5.18521 22.057 4.88545 25.3452H1.19756C0.978818 25.3458 0.764334 25.4119 0.576954 25.5363C0.389574 25.6607 0.236316 25.8388 0.133509 26.0517C0.0364245 26.2601 -0.00910517 26.4931 0.00150884 26.7271C0.0121228 26.9612 0.0785057 27.188 0.193967 27.3847L4.825 35.0764ZM20.5439 5.34949C20.5439 4.82218 20.6857 4.30672 20.9515 3.86829C21.2172 3.42985 21.5949 3.08813 22.0368 2.88634C22.4786 2.68455 22.9649 2.63175 23.434 2.73463C23.9031 2.8375 24.334 3.09142 24.6722 3.46428C25.0104 3.83714 25.2407 4.31219 25.334 4.82936C25.4273 5.34653 25.3794 5.88259 25.1964 6.36976C25.0134 6.85692 24.7034 7.27331 24.3057 7.56626C23.908 7.85921 23.4405 8.01558 22.9622 8.01558C22.3208 8.01558 21.7057 7.73469 21.2522 7.2347C20.7987 6.73471 20.5439 6.05658 20.5439 5.34949ZM38.6811 28.0112V64.2434C38.2934 64.0882 37.8844 64.0071 37.4719 64.0035H24.1713V28.0112H38.6811ZM41.0994 33.3434H47.1451V58.6713H41.0994V33.3434ZM37.4719 66.6696C37.7926 66.6696 38.1002 66.81 38.3269 67.06C38.5537 67.31 38.6811 67.6491 38.6811 68.0026C38.6811 68.3561 38.5537 68.6952 38.3269 68.9452C38.1002 69.1952 37.7926 69.3356 37.4719 69.3356H8.45244C8.13175 69.3356 7.8242 69.1952 7.59744 68.9452C7.37068 68.6952 7.24329 68.3561 7.24329 68.0026C7.24329 67.6491 7.37068 67.31 7.59744 67.06C7.8242 66.81 8.13175 66.6696 8.45244 66.6696H37.4719ZM7.24329 77.3339V71.7618C7.63103 71.917 8.03994 71.9981 8.45244 72.0017H37.4719C37.8844 71.9981 38.2934 71.917 38.6811 71.7618V77.3339H7.24329ZM51.9817 32.0104V60.0043C51.9817 61.065 51.5995 62.0822 50.9193 62.8321C50.239 63.5821 49.3163 64.0035 48.3543 64.0035H41.0994V61.3374H47.1451C47.7865 61.3374 48.4016 61.0565 48.8551 60.5565C49.3086 60.0565 49.5634 59.3784 49.5634 58.6713V33.3434C49.5634 32.6363 49.3086 31.9582 48.8551 31.4582C48.4016 30.9582 47.7865 30.6773 47.1451 30.6773H41.0994V28.0112H48.3543C49.3163 28.0112 50.239 28.4326 50.9193 29.1826C51.5995 29.9326 51.9817 30.9497 51.9817 32.0104V32.0104ZM16.9165 16.0138H29.0079C31.3646 16.013 33.6405 16.9606 35.4082 18.6787C37.176 20.3969 38.314 22.7674 38.6085 25.3452H7.31584C7.61042 22.7674 8.74843 20.3969 10.5162 18.6787C12.2839 16.9606 14.5598 16.013 16.9165 16.0138V16.0138ZM6.03414 28.0112H21.753V64.0035H8.45244C8.03994 64.0071 7.63103 64.0882 7.24329 64.2434V34.6765C7.24144 34.4152 7.16996 34.1602 7.03773 33.9433L3.4103 28.0112H6.03414Z" fill="#689E5F"/>
</svg>
