<svg width="58" height="80" viewBox="0 0 58 80" fill="none" xmlns="http://www.w3.org/2000/svg">
<path d="M57.5461 71.6751L49.7474 40.7107H51.8818C52.5385 40.7107 53.1131 40 53.1131 39.1878C53.1131 38.3756 52.5385 37.665 51.8818 37.665H44.3294H41.3741L52.949 11.5736C53.1952 11.066 53.1131 10.5584 52.949 10.0508C52.7027 9.64467 52.2922 9.44162 51.8818 9.44162H49.3369L50.9788 6.09137C51.1429 5.68528 51.225 5.27919 51.0609 4.8731C50.9788 4.46701 50.6504 4.16244 50.322 3.95939C44.904 1.42132 38.8292 0 32.6724 0C26.5155 0 20.3587 1.3198 15.0227 3.95939C14.6944 4.16244 14.4481 4.46701 14.2839 4.8731C14.2018 5.27919 14.2018 5.7868 14.366 6.09137L16.0078 9.44162H13.463C13.0525 9.44162 12.6421 9.74619 12.3958 10.1523C12.1495 10.5584 12.1495 11.1675 12.3958 11.6751L23.9707 37.7665H21.0154H13.463C12.8063 37.7665 12.2316 38.4772 12.2316 39.2893C12.2316 40.1015 12.8063 40.8122 13.463 40.8122H15.5974L14.6944 44.264H10.8361C4.84339 44.264 0 50.2538 0 57.665C0 63.8579 3.44784 69.1371 8.12705 70.5584L7.79868 71.7767C7.79868 71.8782 7.79868 71.9797 7.71659 71.9797C7.47032 74.0102 7.96287 76.0406 9.03005 77.5635C10.0972 79.0863 11.657 80 13.2988 80H51.8818C53.5236 80 55.0833 79.0863 56.1505 77.5635C57.2177 76.0406 57.7103 74.0102 57.464 71.9797C57.6282 71.7766 57.6282 71.7767 57.5461 71.6751ZM52.0459 76.8528H13.463C12.56 76.8528 11.657 76.3452 11.0002 75.4315C10.4256 74.6193 10.0972 73.5025 10.2614 72.3858L18.2243 40.7107H19.9482V43.9594C19.9482 44.7716 20.5229 45.4822 21.1796 45.4822H44.3294C44.9861 45.4822 45.5607 44.7716 45.5607 43.9594V40.6091H47.3667L55.2475 72.3858C55.3296 73.5025 55.0833 74.6193 54.5087 75.4315C53.852 76.3452 52.949 76.8528 52.0459 76.8528ZM10.9182 47.1066H14.0376L8.94796 67.5127C5.25385 66.3959 2.54483 62.335 2.54483 57.4619C2.54483 51.7767 6.32104 47.1066 10.9182 47.1066ZM42.2771 4.06091L41.8666 5.07614C41.7024 5.48223 41.7845 5.88833 42.1129 6.09137C42.195 6.19289 42.2771 6.19289 42.4413 6.19289C42.6875 6.19289 42.8517 6.09137 42.9338 5.7868L43.5905 4.36548C45.1503 4.77157 46.71 5.38071 48.1877 5.98985L46.5458 9.3401H41.3741L41.7845 8.32487C41.9487 7.91878 41.8666 7.51269 41.5383 7.30964C41.2099 7.1066 40.8815 7.20812 40.7173 7.61421L39.9785 9.44162H18.9631L17.3213 6.09137C22.0826 4.06091 27.4185 3.04569 32.7545 3.04569C35.956 2.94416 39.1576 3.35025 42.2771 4.06091ZM49.8295 12.3858L38.583 37.665H26.8439L15.5974 12.3858H49.8295ZM26.1051 40.7107H39.2397H43.0159V42.5381H22.3289V40.7107H26.1051Z" fill="#4F7A92"/>
<path d="M49.255 62.7411C49.0908 62.132 48.5983 61.7259 48.1057 61.7259H17.4035C16.911 61.7259 16.4184 62.132 16.2542 62.7411L14.6124 69.1371C14.3661 70.1523 14.5303 71.269 15.0229 72.1828C15.5154 73.0965 16.3363 73.6041 17.2393 73.6041H48.1057C49.0087 73.6041 49.8296 73.0965 50.3222 72.1828C50.8147 71.269 50.9789 70.1523 50.7326 69.1371L49.255 62.7411ZM48.5162 70.4569C48.4341 70.5584 48.352 70.6599 48.1878 70.6599H17.3214C17.1572 70.6599 17.0752 70.5584 16.9931 70.4569C16.911 70.3553 16.911 70.2538 16.911 70.0508L18.2244 64.6701H47.1206L48.4341 70.0508C48.5983 70.2538 48.5162 70.4569 48.5162 70.4569Z" fill="#4F7A92"/>
</svg>
