<svg width="80" height="100" viewBox="0 0 80 100" fill="none" xmlns="http://www.w3.org/2000/svg">
<path d="M79.9251 89.5939L69.0936 50.8883H72.058C72.9701 50.8883 73.7682 50 73.7682 48.9848C73.7682 47.9695 72.9701 47.0812 72.058 47.0812H61.5686H57.464L73.5402 14.467C73.8823 13.8325 73.7682 13.198 73.5402 12.5635C73.1982 12.0558 72.6281 11.802 72.058 11.802H68.5235L70.8038 7.61421C71.0319 7.1066 71.1459 6.59898 70.9179 6.09137C70.8038 5.58376 70.3478 5.20305 69.8917 4.94924C62.3667 1.77665 53.9295 0 45.3783 0C36.8271 0 28.2759 1.64975 20.8649 4.94924C20.4088 5.20305 20.0668 5.58376 19.8388 6.09137C19.7247 6.59898 19.7247 7.2335 19.9528 7.61421L22.2331 11.802H18.6986C18.1285 11.802 17.5584 12.1827 17.2164 12.6904C16.8743 13.198 16.8743 13.9594 17.2164 14.5939L33.2926 47.2081H29.1881H18.6986C17.7865 47.2081 16.9884 48.0964 16.9884 49.1117C16.9884 50.1269 17.7865 51.0152 18.6986 51.0152H21.663L20.4088 55.3299H15.0501C6.72693 55.3299 0 62.8173 0 72.0812C0 79.8223 4.78867 86.4213 11.2876 88.198L10.8315 89.7208C10.8315 89.8477 10.8315 89.9746 10.7175 89.9746C10.3754 92.5127 11.0595 95.0508 12.5417 96.9543C14.0239 98.8579 16.1903 100 18.4706 100H72.058C74.3383 100 76.5046 98.8579 77.9868 96.9543C79.469 95.0508 80.1531 92.5127 79.8111 89.9746C80.0391 89.7208 80.0391 89.7208 79.9251 89.5939ZM72.286 96.066H18.6986C17.4444 96.066 16.1903 95.4315 15.2781 94.2893C14.48 93.2741 14.0239 91.8782 14.252 90.4822L25.3115 50.8883H27.7058V54.9492C27.7058 55.9645 28.504 56.8528 29.4161 56.8528H61.5686C62.4807 56.8528 63.2788 55.9645 63.2788 54.9492V50.7614H65.7871L76.7327 90.4822C76.8467 91.8782 76.5046 93.2741 75.7065 94.2893C74.7944 95.4315 73.5402 96.066 72.286 96.066ZM15.1641 58.8832H19.4967L12.4277 84.3909C7.29701 82.9949 3.53449 77.9188 3.53449 71.8274C3.53449 64.7208 8.77922 58.8832 15.1641 58.8832ZM58.7182 5.07614L58.1481 6.34518C57.9201 6.85279 58.0341 7.36041 58.4901 7.61421C58.6041 7.74112 58.7182 7.74112 58.9462 7.74112C59.2882 7.74112 59.5163 7.61421 59.6303 7.2335L60.5424 5.45685C62.7087 5.96447 64.875 6.72589 66.9273 7.48731L64.647 11.6751H57.464L58.0341 10.4061C58.2621 9.89848 58.1481 9.39086 57.692 9.13706C57.236 8.88325 56.7799 9.01015 56.5519 9.51777L55.5257 11.802H26.3377L24.0573 7.61421C30.6703 5.07614 38.0813 3.80711 45.4923 3.80711C49.9389 3.6802 54.3856 4.18782 58.7182 5.07614ZM69.2076 15.4822L53.5874 47.0812H37.2832L21.663 15.4822H69.2076ZM36.257 50.8883H54.4996H59.7443V53.1726H31.0123V50.8883H36.257Z" fill="#4F7A92"/>
<path d="M68.4095 78.4264C68.1815 77.665 67.4974 77.1574 66.8133 77.1574H24.1714C23.4873 77.1574 22.8032 77.665 22.5752 78.4264L20.2948 86.4213C19.9528 87.6904 20.1808 89.0863 20.8649 90.2285C21.549 91.3706 22.6892 92.0051 23.9434 92.0051H66.8133C68.0675 92.0051 69.2076 91.3706 69.8917 90.2285C70.5758 89.0863 70.8039 87.6904 70.4618 86.4213L68.4095 78.4264ZM67.3834 88.0711C67.2694 88.198 67.1554 88.3249 66.9273 88.3249H24.0574C23.8293 88.3249 23.7153 88.198 23.6013 88.0711C23.4873 87.9442 23.4873 87.8173 23.4873 87.5635L25.3115 80.8376H65.4451L67.2694 87.5635C67.4974 87.8173 67.3834 88.0711 67.3834 88.0711Z" fill="#4F7A92"/>
</svg>
