<svg width="35" height="48" viewBox="0 0 35 48" fill="none" xmlns="http://www.w3.org/2000/svg">
<path d="M34.5276 43.0051L29.8484 24.4264H31.1291C31.5231 24.4264 31.8679 24 31.8679 23.5127C31.8679 23.0254 31.5231 22.599 31.1291 22.599H26.5976H24.8244L31.7694 6.94416C31.9171 6.63959 31.8679 6.33503 31.7694 6.03046C31.6216 5.7868 31.3753 5.66497 31.1291 5.66497H29.6022L30.5873 3.65482C30.6858 3.41117 30.735 3.16751 30.6365 2.92386C30.5873 2.6802 30.3902 2.49746 30.1932 2.37563C26.9424 0.852792 23.2975 0 19.6034 0C15.9093 0 12.2152 0.791879 9.01364 2.37563C8.81662 2.49746 8.66885 2.6802 8.57034 2.92386C8.52109 3.16751 8.52109 3.47208 8.6196 3.65482L9.60469 5.66497H8.07779C7.83152 5.66497 7.58525 5.84772 7.43748 6.09137C7.28972 6.33503 7.28972 6.70051 7.43748 7.00508L14.3824 22.6599H12.6092H8.07779C7.68376 22.6599 7.33897 23.0863 7.33897 23.5736C7.33897 24.0609 7.68376 24.4873 8.07779 24.4873H9.35842L8.81662 26.5584H6.50164C2.90604 26.5584 0 30.1523 0 34.599C0 38.3147 2.0687 41.4822 4.87623 42.335L4.67921 43.066C4.67921 43.1269 4.67921 43.1878 4.62996 43.1878C4.48219 44.4061 4.77772 45.6244 5.41803 46.5381C6.05834 47.4518 6.99419 48 7.97928 48H31.1291C32.1142 48 33.05 47.4518 33.6903 46.5381C34.3306 45.6244 34.6262 44.4061 34.4784 43.1878C34.5769 43.066 34.5769 43.066 34.5276 43.0051ZM31.2276 46.1117H8.07779C7.53599 46.1117 6.99419 45.8071 6.60015 45.2589C6.25537 44.7716 6.05834 44.1015 6.15685 43.4315L10.9346 24.4264H11.9689V26.3756C11.9689 26.8629 12.3137 27.2893 12.7077 27.2893H26.5976C26.9917 27.2893 27.3364 26.8629 27.3364 26.3756V24.3655H28.42L33.1485 43.4315C33.1978 44.1015 33.05 44.7716 32.7052 45.2589C32.3112 45.8071 31.7694 46.1117 31.2276 46.1117ZM6.55089 28.264H8.42258L5.36878 40.5076C3.15231 39.8376 1.5269 37.401 1.5269 34.4772C1.5269 31.066 3.79262 28.264 6.55089 28.264ZM25.3662 2.43655L25.12 3.04569C25.0215 3.28934 25.0707 3.533 25.2677 3.65482C25.317 3.71574 25.3662 3.71574 25.4648 3.71574C25.6125 3.71574 25.711 3.65482 25.7603 3.47208L26.1543 2.61929C27.0902 2.86294 28.026 3.22843 28.9126 3.59391L27.9275 5.60406H24.8244L25.0707 4.99492C25.1692 4.75127 25.12 4.50761 24.923 4.38579C24.7259 4.26396 24.5289 4.32487 24.4304 4.56853L23.9871 5.66497H11.3779L10.3928 3.65482C13.2496 2.43655 16.4511 1.82741 19.6527 1.82741C21.5736 1.7665 23.4946 2.01015 25.3662 2.43655ZM29.8977 7.43147L23.1498 22.599H16.1063L9.35842 7.43147H29.8977ZM15.663 24.4264H23.5438H25.8095V25.5228H13.3973V24.4264H15.663Z" fill="#4F7A92"/>
<path d="M29.553 37.6447C29.4545 37.2792 29.159 37.0355 28.8635 37.0355H10.4421C10.1466 37.0355 9.85108 37.2792 9.75257 37.6447L8.76747 41.4822C8.61971 42.0914 8.71822 42.7614 9.01375 43.3096C9.30928 43.8579 9.80182 44.1624 10.3436 44.1624H28.8635C29.4053 44.1624 29.8978 43.8579 30.1933 43.3096C30.4889 42.7614 30.5874 42.0914 30.4396 41.4822L29.553 37.6447ZM29.1097 42.2741C29.0605 42.335 29.0112 42.3959 28.9127 42.3959H10.3929C10.2944 42.3959 10.2451 42.335 10.1959 42.2741C10.1466 42.2132 10.1466 42.1523 10.1466 42.0304L10.9347 38.802H28.2724L29.0605 42.0304C29.159 42.1523 29.1097 42.2741 29.1097 42.2741Z" fill="#4F7A92"/>
</svg>
