<svg width="78" height="100" viewBox="0 0 78 100" fill="none" xmlns="http://www.w3.org/2000/svg">
<path d="M76.204 24.9902L72.2743 21.11C71.9625 20.7607 71.5806 20.4813 71.1536 20.29C70.7266 20.0987 70.2641 19.9999 69.7964 20H66.2354L65.5465 19.3099C65.2383 18.9993 64.8716 18.7531 64.4678 18.5855C64.0639 18.4179 63.6309 18.3322 63.1937 18.3333H56.7041C56.427 17.3205 55.8378 16.4212 55.0206 15.7633L49.1962 11.097C48.3105 10.3876 47.2105 10.0008 46.0765 10H40.5884V5C40.587 3.67436 40.0606 2.40343 39.1248 1.46606C38.189 0.528696 36.9202 0.00144699 35.5968 0H32.2691C30.9457 0.00144699 29.6769 0.528696 28.7411 1.46606C27.8053 2.40343 27.2789 3.67436 27.2775 5V10H21.7895C20.6562 10.0007 19.5568 10.3869 18.6714 11.0954L12.8445 15.765C12.5196 16.0282 12.2288 16.3311 11.9789 16.6666H3.32773C2.65468 16.6666 1.99743 16.871 1.44274 17.2528C0.888063 17.6347 0.462031 18.1761 0.220891 18.8055C-0.0202496 19.4349 -0.0651604 20.1228 0.0920878 20.7783C0.249336 21.4339 0.60135 22.0262 1.10166 22.4772L13.7012 33.8361L16.7914 49.3147C16.985 50.2652 17.4501 51.1387 18.1302 51.8293C18.8102 52.5198 19.6759 52.9975 20.622 53.2044V56.6667H20.1378C18.9372 56.6652 17.7765 57.0979 16.8689 57.8853C15.9614 58.6726 15.3681 59.7616 15.1982 60.9521L11.2668 94.2204C11.154 94.9341 11.1971 95.6638 11.393 96.3592C11.5889 97.0546 11.933 97.6992 12.4016 98.2485C12.8702 98.7979 13.4521 99.239 14.1073 99.5413C14.7625 99.8437 15.4753 100 16.1967 100H51.6693C52.3851 100 53.0926 99.8462 53.7437 99.5483C54.3948 99.2505 54.9743 98.8157 55.4428 98.2736C55.9113 97.7315 56.2578 97.0948 56.4589 96.4066C56.66 95.7185 56.7109 94.9951 56.6081 94.2855L52.6588 60.8887C52.4783 59.7099 51.8812 58.6353 50.9762 57.8604C50.0713 57.0855 48.9186 56.6619 47.7281 56.6667H47.2439V53.2044C48.19 52.9975 49.0557 52.5198 49.7358 51.8293C50.4159 51.1388 50.881 50.2652 51.0746 49.3148L52.9342 40H58.202C58.6392 40.0012 59.0723 39.9155 59.4761 39.7479C59.88 39.5802 60.2467 39.334 60.5549 39.0234L60.7144 38.8636L65.5465 42.4675V47.7474L60.1852 54.4613C59.6735 55.1017 59.4156 55.9087 59.4611 56.7277C59.5065 57.5467 59.852 58.3201 60.4315 58.8998L63.1937 61.6667C63.8181 62.291 64.6643 62.6416 65.5465 62.6416C66.4287 62.6416 67.2749 62.291 67.8993 61.6667L76.2187 53.3333C76.8409 52.707 77.1912 51.8601 77.1936 50.9766V27.3633C77.1947 26.9217 77.1078 26.4843 76.9378 26.0768C76.7679 25.6693 76.5184 25.2999 76.204 24.9902V24.9902ZM46.0765 13.3333C46.4545 13.3339 46.8212 13.463 47.1164 13.6996L50.8204 16.6667H44.9447L43.2809 13.3333H46.0765ZM26.6422 16.6667L28.306 13.3333H39.5599L41.2238 16.6667H26.6422ZM42.0775 20L39.083 50H28.7829L25.7883 20H42.0775ZM30.6052 5C30.6057 4.55811 30.7811 4.13444 31.093 3.82198C31.405 3.50951 31.8279 3.33377 32.2691 3.33333H35.5968C36.038 3.33377 36.4609 3.50951 36.7729 3.82198C37.0848 4.13444 37.2603 4.55811 37.2607 5V10H30.6052V5ZM20.7512 13.6979C21.0462 13.4623 21.4122 13.3338 21.7895 13.3333H24.5851L22.9212 16.6667H17.0461L20.7512 13.6979ZM3.32773 20H10.9849C10.9988 20.2181 11.0267 20.435 11.0686 20.6494L12.6095 28.3678L3.32773 20ZM14.3324 20H22.4439L25.4392 50H21.6863C21.3018 49.9992 20.9294 49.8655 20.632 49.6214C20.3346 49.3774 20.1304 49.0379 20.054 48.6605L14.3324 20ZM16.1967 96.6667C15.956 96.6684 15.7178 96.617 15.4991 96.516C15.2805 96.415 15.0867 96.2669 14.9318 96.0823C14.7693 95.8904 14.6519 95.6645 14.588 95.4211C14.5242 95.1778 14.5156 94.9232 14.5629 94.6761L18.4943 61.4062C18.5548 61.0136 18.754 60.6557 19.0556 60.3977C19.3572 60.1396 19.7412 59.9985 20.1378 60H25.4695L22.4186 96.6667H16.1967ZM25.7583 96.6667L28.8082 60H39.0579L42.1077 96.6667H25.7583ZM47.7281 60C48.1147 59.9955 48.4905 60.1277 48.7895 60.3733C49.0885 60.6188 49.2914 60.9621 49.3627 61.3428L53.3121 94.7412C53.3495 94.979 53.3351 95.2221 53.2698 95.4537C53.2044 95.6854 53.0897 95.9001 52.9336 96.0831C52.7775 96.2661 52.5836 96.4131 52.3653 96.5138C52.1471 96.6145 51.9096 96.6667 51.6693 96.6667H45.4473L42.3964 60H47.7281ZM23.9497 56.6667V53.3333H43.9162V56.6667H23.9497ZM47.8118 48.6605C47.7354 49.0379 47.5313 49.3774 47.2339 49.6214C46.9365 49.8655 46.564 49.9992 46.1796 50H42.4267L45.4221 20H53.5336L47.8118 48.6605ZM53.5996 36.6667L56.5943 21.6667H63.1937L65.5465 24.0234V29.3099L58.2021 36.6667H53.5996ZM73.8659 50.9766L65.5465 59.3099L62.7842 56.543L68.1422 49.834C68.6152 49.2422 68.8733 48.507 68.8742 47.749V42.4675C68.8736 41.9582 68.7566 41.4558 68.5323 40.9988C68.3079 40.5418 67.9822 40.1423 67.58 39.8308L63.0923 36.4818L67.8993 31.6667C68.5215 31.0404 68.8719 30.1935 68.8742 29.3099V24.0234C68.8736 23.8103 68.8523 23.5977 68.8107 23.3887L69.8646 23.4066L73.8659 27.3633V50.9766Z" fill="#FB5F5F"/>
<path d="M60.555 28.3333C61.4739 28.3333 62.2189 27.5871 62.2189 26.6667C62.2189 25.7462 61.4739 25 60.555 25C59.6361 25 58.8911 25.7462 58.8911 26.6667C58.8911 27.5871 59.6361 28.3333 60.555 28.3333Z" fill="#FB5F5F"/>
</svg>
