<svg width="38" height="48" viewBox="0 0 38 48" fill="none" xmlns="http://www.w3.org/2000/svg">
<path d="M36.5779 11.9953L34.6917 10.1328C34.542 9.96514 34.3587 9.83102 34.1537 9.73921C33.9488 9.64739 33.7268 9.59996 33.5023 9.6H31.793L31.4623 9.26875C31.3144 9.11968 31.1384 9.0015 30.9445 8.92103C30.7507 8.84057 30.5428 8.79943 30.333 8.8H27.218C27.0849 8.31385 26.8022 7.88216 26.4099 7.5664L23.6142 5.32656C23.1891 4.98604 22.661 4.80036 22.1167 4.8H19.4825V2.4C19.4818 1.76369 19.2291 1.15365 18.7799 0.703711C18.3307 0.253774 17.7217 0.000694557 17.0865 0H15.4892C14.8539 0.000694557 14.2449 0.253774 13.7957 0.703711C13.3465 1.15365 13.0939 1.76369 13.0932 2.4V4.8H10.4589C9.91499 4.80033 9.38727 4.98572 8.96226 5.32578L6.16536 7.56718C6.00941 7.69355 5.86982 7.83895 5.74985 7.99998H1.59731C1.27425 7.99995 0.958765 8.09806 0.692517 8.28135C0.42627 8.46465 0.221775 8.72451 0.106028 9.02664C-0.00971982 9.32876 -0.031277 9.65895 0.0442022 9.9736C0.119681 10.2883 0.288648 10.5726 0.528796 10.789L6.57659 16.2413L8.05988 23.6711C8.1528 24.1273 8.37605 24.5466 8.70247 24.878C9.0289 25.2095 9.44444 25.4388 9.89856 25.5381V27.2H9.66615C9.08987 27.1993 8.5327 27.407 8.09709 27.7849C7.66148 28.1629 7.37671 28.6856 7.29514 29.257L5.40806 45.2258C5.35394 45.5684 5.37461 45.9186 5.46865 46.2524C5.56269 46.5862 5.72786 46.8956 5.95278 47.1593C6.17771 47.423 6.45703 47.6347 6.77151 47.7798C7.08599 47.925 7.42814 48.0001 7.77439 48H24.8013C25.1448 48.0001 25.4844 47.9262 25.797 47.7832C26.1095 47.6402 26.3877 47.4315 26.6125 47.1713C26.8374 46.9111 27.0038 46.6055 27.1003 46.2752C27.1968 45.9449 27.2212 45.5976 27.1719 45.257L25.2762 29.2266C25.1896 28.6608 24.903 28.1449 24.4686 27.773C24.0342 27.4011 23.4809 27.1977 22.9095 27.2H22.6771V25.5381C23.1312 25.4388 23.5468 25.2095 23.8732 24.8781C24.1996 24.5466 24.4229 24.1273 24.5158 23.6711L25.4084 19.2H27.937C28.1468 19.2006 28.3547 19.1594 28.5486 19.079C28.7424 18.9985 28.9184 18.8803 29.0663 18.7312L29.1429 18.6545L31.4623 20.3844V22.9188L28.8889 26.1414C28.6433 26.4488 28.5195 26.8362 28.5413 27.2293C28.5631 27.6224 28.729 27.9937 29.0071 28.2719L30.333 29.6C30.6327 29.8997 31.0389 30.068 31.4623 30.068C31.8858 30.068 32.292 29.8997 32.5917 29.6L36.585 25.6C36.8836 25.2994 37.0518 24.8929 37.0529 24.4688V13.1344C37.0535 12.9224 37.0117 12.7125 36.9302 12.5169C36.8486 12.3213 36.7288 12.1439 36.5779 11.9953V11.9953ZM22.1167 6.4C22.2982 6.40026 22.4742 6.46224 22.6159 6.57578L24.3938 8H21.5735L20.7748 6.4H22.1167ZM12.7882 8L13.5869 6.4H18.9888L19.7874 8H12.7882ZM20.1972 9.6L18.7598 24H13.8158L12.3784 9.6H20.1972ZM14.6905 2.4C14.6907 2.18789 14.7749 1.98453 14.9247 1.83455C15.0744 1.68457 15.2774 1.60021 15.4892 1.6H17.0865C17.2982 1.60021 17.5013 1.68457 17.651 1.83455C17.8007 1.98453 17.8849 2.18789 17.8851 2.4V4.8H14.6905V2.4ZM9.96057 6.575C10.1022 6.46191 10.2778 6.40022 10.4589 6.4H11.8008L11.0022 8H8.18212L9.96057 6.575ZM1.59731 9.6H5.27274C5.2794 9.70467 5.29283 9.80879 5.31295 9.91172L6.05258 13.6165L1.59731 9.6ZM6.87955 9.6H10.7731L12.2108 24H10.4094C10.2249 23.9996 10.0461 23.9354 9.90336 23.8183C9.7606 23.7011 9.66261 23.5382 9.62594 23.357L6.87955 9.6ZM7.77443 46.4C7.65886 46.4009 7.54452 46.3762 7.43957 46.3277C7.33462 46.2792 7.24164 46.2081 7.16725 46.1195C7.08928 46.0274 7.0329 45.919 7.00226 45.8022C6.97162 45.6853 6.9675 45.5631 6.9902 45.4445L8.87726 29.475C8.90632 29.2865 9.00192 29.1148 9.14668 28.9909C9.29145 28.867 9.47577 28.7993 9.66615 28.8H12.2254L10.7609 46.4H7.77443ZM12.364 46.4L13.8279 28.8H18.7478L20.2117 46.4H12.364ZM22.9095 28.8C23.0951 28.7978 23.2755 28.8613 23.419 28.9792C23.5625 29.097 23.6599 29.2618 23.6941 29.4445L25.5898 45.4758C25.6078 45.5899 25.6008 45.7066 25.5695 45.8178C25.5381 45.929 25.4831 46.0321 25.4081 46.1199C25.3332 46.2077 25.2401 46.2783 25.1354 46.3266C25.0306 46.375 24.9166 46.4 24.8013 46.4H21.8147L20.3503 28.8H22.9095ZM11.4959 27.2V25.6H21.0798V27.2H11.4959ZM22.9497 23.357C22.913 23.5382 22.815 23.7011 22.6723 23.8183C22.5295 23.9354 22.3507 23.9996 22.1662 24H20.3648L21.8026 9.6H25.6961L22.9497 23.357ZM25.7278 17.6L27.1652 10.4H30.333L31.4623 11.5312V14.0688L27.937 17.6H25.7278ZM35.4556 24.4688L31.4623 28.4688L30.1364 27.1406L32.7083 23.9203C32.9353 23.6363 33.0592 23.2834 33.0596 22.9195V20.3844C33.0593 20.1399 33.0032 19.8988 32.8955 19.6794C32.7878 19.4601 32.6315 19.2683 32.4384 19.1188L30.2843 17.5113L32.5917 15.2C32.8903 14.8994 33.0585 14.4929 33.0596 14.0688V11.5312C33.0593 11.4289 33.0491 11.3269 33.0291 11.2266L33.535 11.2352L35.4556 13.1344V24.4688Z" fill="#FB5F5F"/>
<path d="M29.0664 13.6C29.5074 13.6 29.865 13.2418 29.865 12.8C29.865 12.3582 29.5074 12 29.0664 12C28.6253 12 28.2677 12.3582 28.2677 12.8C28.2677 13.2418 28.6253 13.6 29.0664 13.6Z" fill="#FB5F5F"/>
</svg>
