<svg width="62" height="80" viewBox="0 0 62 80" fill="none" xmlns="http://www.w3.org/2000/svg">
<path d="M60.9632 19.9922L57.8194 16.888C57.57 16.6086 57.2645 16.385 56.9229 16.232C56.5813 16.079 56.2113 15.9999 55.8371 16H52.9884L52.4372 15.4479C52.1906 15.1995 51.8973 15.0025 51.5742 14.8684C51.2511 14.7343 50.9047 14.6657 50.555 14.6667H45.3633C45.1416 13.8564 44.6703 13.1369 44.0165 12.6107L39.357 8.8776C38.6484 8.31007 37.7684 8.00061 36.8612 8H32.4708V4C32.4696 2.93949 32.0485 1.92275 31.2999 1.17285C30.5512 0.422957 29.5362 0.00115759 28.4775 0H25.8153C24.7565 0.00115759 23.7415 0.422957 22.9929 1.17285C22.2442 1.92275 21.8231 2.93949 21.822 4V8H17.4316C16.525 8.00055 15.6455 8.30953 14.9371 8.87631L10.2756 12.612C10.0157 12.8226 9.78303 13.0649 9.58309 13.3333H2.66219C2.12374 13.3333 1.59794 13.4968 1.1542 13.8023C0.71045 14.1077 0.369625 14.5409 0.176713 15.0444C-0.0161997 15.5479 -0.0521283 16.0982 0.0736703 16.6227C0.199469 17.1471 0.48108 17.621 0.881326 17.9817L10.961 27.0689L13.4331 39.4518C13.588 40.2121 13.9601 40.911 14.5041 41.4634C15.0482 42.0158 15.7407 42.398 16.4976 42.5635V45.3333H16.1103C15.1498 45.3322 14.2212 45.6784 13.4952 46.3082C12.7691 46.9381 12.2945 47.8093 12.1586 48.7617L9.01343 75.3763C8.92323 75.9473 8.95768 76.531 9.11441 77.0873C9.27115 77.6437 9.54643 78.1594 9.9213 78.5988C10.2962 79.0383 10.7617 79.3912 11.2858 79.6331C11.81 79.875 12.3802 80.0001 12.9573 80H41.3354C41.9081 80.0002 42.4741 79.877 42.9949 79.6387C43.5158 79.4004 43.9794 79.0526 44.3542 78.6189C44.729 78.1852 45.0063 77.6758 45.1671 77.1253C45.328 76.5748 45.3687 75.9961 45.2865 75.4284L42.127 48.7109C41.9826 47.7679 41.505 46.9082 40.781 46.2883C40.057 45.6684 39.1349 45.3295 38.1825 45.3333H37.7951V42.5635C38.552 42.398 39.2446 42.0159 39.7886 41.4634C40.3327 40.911 40.7048 40.2122 40.8597 39.4518L42.3474 32H46.5616C46.9114 32.0009 47.2578 31.9324 47.5809 31.7983C47.904 31.6642 48.1973 31.4672 48.4439 31.2187L48.5716 31.0909L52.4372 33.974V38.198L48.1482 43.5691C47.7388 44.0814 47.5325 44.727 47.5688 45.3822C47.6052 46.0374 47.8816 46.6561 48.3452 47.1198L50.555 49.3333C51.0545 49.8328 51.7314 50.1133 52.4372 50.1133C53.143 50.1133 53.8199 49.8328 54.3195 49.3333L60.9749 42.6667C61.4727 42.1656 61.753 41.4881 61.7549 40.7813V21.8907C61.7558 21.5374 61.6862 21.1874 61.5503 20.8614C61.4143 20.5354 61.2147 20.2399 60.9632 19.9922V19.9922ZM36.8612 10.6667C37.1636 10.6671 37.4569 10.7704 37.6931 10.9596L40.6563 13.3333H35.9558L34.6247 10.6667H36.8612ZM21.3137 13.3333L22.6448 10.6667H31.6479L32.979 13.3333H21.3137ZM33.662 16L31.2664 40H23.0264L20.6307 16H33.662ZM24.4842 4C24.4845 3.64649 24.6249 3.30755 24.8744 3.05758C25.124 2.80761 25.4624 2.66702 25.8153 2.66667H28.4775C28.8304 2.66702 29.1688 2.80761 29.4183 3.05758C29.6679 3.30755 29.8082 3.64649 29.8086 4V8H24.4842V4ZM16.6009 10.9583C16.8369 10.7699 17.1297 10.667 17.4316 10.6667H19.6681L18.337 13.3333H13.6369L16.6009 10.9583ZM2.66219 16H8.78789C8.799 16.1744 8.82139 16.348 8.85491 16.5195L10.0876 22.6942L2.66219 16ZM11.4659 16H17.9551L20.3514 40H17.349C17.0415 39.9994 16.7435 39.8924 16.5056 39.6972C16.2677 39.5019 16.1043 39.2303 16.0432 38.9284L11.4659 16ZM12.9574 77.3333C12.7648 77.3348 12.5742 77.2936 12.3993 77.2128C12.2244 77.132 12.0694 77.0135 11.9454 76.8659C11.8155 76.7123 11.7215 76.5316 11.6704 76.3369C11.6194 76.1422 11.6125 75.9386 11.6503 75.7409L14.7954 49.125C14.8439 48.8109 15.0032 48.5246 15.2445 48.3182C15.4857 48.1117 15.7929 47.9988 16.1103 48H20.3756L17.9349 77.3333H12.9574ZM20.6066 77.3333L23.0465 48H31.2463L33.6862 77.3333H20.6066ZM38.1825 48C38.4918 47.9964 38.7924 48.1021 39.0316 48.2986C39.2708 48.4951 39.4331 48.7697 39.4902 49.0742L42.6497 75.793C42.6796 75.9832 42.6681 76.1777 42.6158 76.363C42.5635 76.5483 42.4718 76.7201 42.3469 76.8665C42.222 77.0129 42.0669 77.1305 41.8923 77.211C41.7177 77.2916 41.5277 77.3334 41.3354 77.3333H36.3579L33.9171 48H38.1825ZM19.1598 45.3333V42.6667H35.1329V45.3333H19.1598ZM38.2495 38.9284C38.1883 39.2303 38.025 39.5019 37.7871 39.6972C37.5492 39.8924 37.2512 39.9994 36.9437 40H33.9414L36.3377 16H42.8269L38.2495 38.9284ZM42.8797 29.3333L45.2754 17.3333H50.555L52.4372 19.2187V23.4479L46.5617 29.3333H42.8797ZM59.0927 40.7813L52.4372 47.4479L50.2274 45.2344L54.5138 39.8672C54.8921 39.3938 55.0986 38.8056 55.0994 38.1992V33.974C55.0989 33.5666 55.0053 33.1647 54.8258 32.7991C54.6464 32.4335 54.3858 32.1138 54.064 31.8646L50.4738 29.1855L54.3195 25.3333C54.8172 24.8323 55.0975 24.1548 55.0994 23.4479V19.2187C55.0989 19.0482 55.0818 18.8782 55.0485 18.7109L55.8917 18.7253L59.0927 21.8907V40.7813Z" fill="#FB5F5F"/>
<path d="M48.444 22.6667C49.1792 22.6667 49.7751 22.0697 49.7751 21.3333C49.7751 20.597 49.1792 20 48.444 20C47.7089 20 47.1129 20.597 47.1129 21.3333C47.1129 22.0697 47.7089 22.6667 48.444 22.6667Z" fill="#FB5F5F"/>
</svg>
