<svg width="60" height="125" viewBox="0 0 60 125" fill="none" xmlns="http://www.w3.org/2000/svg">
<path d="M59.0464 113.98H49.5169V111.084H52.3527C52.7602 111.084 53.0945 110.751 53.0945 110.341V107.179C53.0945 106.771 52.7624 106.436 52.3527 106.436H47.7572V45.1622C47.7572 44.752 47.4273 44.4196 47.0176 44.4196H45.1285V4.6453H52.3527C52.7602 4.6453 53.0945 4.31288 53.0945 3.90274V0.740399C53.0945 0.330266 52.7624 0 52.3527 0H7.37082C6.96325 0 6.629 0.330266 6.629 0.740399V3.90274C6.629 4.31288 6.96109 4.6453 7.37082 4.6453H14.4936V44.4196H12.5507C12.1452 44.4196 11.811 44.7499 11.811 45.1622V106.438H7.37082C6.96325 106.438 6.629 106.771 6.629 107.181V110.343C6.629 110.751 6.96109 111.086 7.37082 111.086H10.3295V113.983H0.737511C0.329938 113.983 0 114.311 0 114.721V119.144C0 119.552 0.327782 119.886 0.737511 119.886H10.2281V124.262C10.2281 124.668 10.5581 125 10.9678 125H48.7772C49.1848 125 49.5169 124.668 49.5169 124.262V119.882H59.0464C59.4539 119.882 59.786 119.55 59.786 119.139V114.716C59.786 114.308 59.4539 113.98 59.0464 113.98ZM19.7209 61.2372C20.1307 61.2372 20.4628 60.907 20.4628 60.4968V45.8982H39.1162V60.4968C39.1162 60.9048 39.4462 61.2372 39.8559 61.2372C40.2656 61.2372 40.5956 60.907 40.5956 60.4968V45.8982H43.6535V65.2393H15.9708V45.8982H18.9813V60.4968C18.9813 60.907 19.3112 61.2372 19.7209 61.2372ZM39.1162 44.4196H20.4628V4.6453H39.1162V44.4196ZM43.6211 66.7222C43.5413 67.4346 42.9548 68.0001 42.2216 68.0001C42.1504 68.0001 42.0836 68.0282 42.0145 68.0454C41.9412 68.0217 41.8657 68.0001 41.7838 68.0001H17.8966C17.8038 68.0001 17.7154 68.0217 17.6356 68.0541C17.5602 68.0282 17.4847 68.0001 17.4027 68.0001C16.6674 68.0001 16.0851 67.4346 16.0053 66.7222H43.6211ZM17.9979 69.4831H41.6221L42.7585 74.9076H16.814L17.9979 69.4831ZM16.4884 76.3906H43.0669L43.3645 77.8023H16.1822L16.4884 76.3906ZM15.9708 79.2831H43.6513V106.289H15.9708V79.2831ZM46.28 45.9004V106.291H45.1306V78.5449C45.1306 78.3463 45.0509 78.1671 44.9236 78.0354L43.1036 69.3471C44.2788 68.9715 45.1285 67.8684 45.1285 66.569C45.1285 66.5517 45.1199 66.5344 45.1199 66.5193C45.1199 66.5042 45.1285 66.4848 45.1285 66.4697V45.9047H46.28V45.9004ZM43.6513 44.4196H40.5934V4.6453H43.6513V44.4196ZM8.11049 1.48296H51.613V3.1645H8.11049V1.48296ZM15.9708 4.6453H18.9813V44.4196H15.9708V4.6453ZM13.2903 45.9004H14.4936V66.1696C14.4936 66.2387 14.5152 66.3035 14.5325 66.3704C14.5152 66.433 14.4936 66.4999 14.4936 66.569C14.4936 67.8684 15.3411 68.9672 16.5121 69.3471L14.5799 78.2124C14.5303 78.3139 14.4958 78.424 14.4958 78.5449V106.291H13.2925V45.9004H13.2903ZM8.11049 107.921H51.613V109.598H8.11049V107.921ZM11.811 111.084H48.0376V113.98H11.811V111.084ZM11.7096 119.882H14.7136V123.521H11.7096V119.882ZM43.7095 119.882V123.521H41.1002V119.882H43.7095V119.882ZM39.6187 123.521H37.0094V119.882H39.6187V123.521ZM35.5279 123.521H32.9207V119.882H35.5279V123.521ZM31.437 123.521H28.5646V119.882H31.437V123.521ZM27.0853 123.521H24.476V119.882H27.0853V123.521ZM22.9923 123.521H20.2816V119.882H22.9923V123.521ZM18.8023 123.521H16.1929V119.882H18.8023V123.521ZM48.0354 123.521H45.1889V119.882H48.0354V123.521ZM58.3045 118.399H1.47934V115.461H58.3067V118.399H58.3045Z" fill="#5F64DD"/>
<path d="M29.811 56.8877C31.631 56.8877 33.1104 55.4047 33.1104 53.5829C33.1104 51.761 31.6289 50.2802 29.811 50.2802C27.9931 50.2802 26.5094 51.7632 26.5094 53.5829C26.5094 55.4069 27.9909 56.8877 29.811 56.8877ZM29.811 51.7589C30.8137 51.7589 31.631 52.577 31.631 53.5829C31.631 54.5888 30.8137 55.4069 29.811 55.4069C28.806 55.4069 27.9887 54.5888 27.9887 53.5829C27.9887 52.577 28.806 51.7589 29.811 51.7589Z" fill="#5F64DD"/>
<path d="M29.811 42.9733C31.631 42.9733 33.1104 41.4882 33.1104 39.6685C33.1104 37.8445 31.6289 36.3637 29.811 36.3637C27.9931 36.3637 26.5094 37.8467 26.5094 39.6685C26.5094 41.4904 27.9909 42.9733 29.811 42.9733ZM29.811 37.8445C30.8137 37.8445 31.631 38.6605 31.631 39.6685C31.631 40.6723 30.8137 41.4904 29.811 41.4904C28.806 41.4904 27.9887 40.6723 27.9887 39.6685C27.9887 38.6605 28.806 37.8445 29.811 37.8445Z" fill="#5F64DD"/>
<path d="M29.811 28.9554C31.631 28.9554 33.1104 27.4746 33.1104 25.6549C33.1104 23.8309 31.6289 22.3501 29.811 22.3501C27.9931 22.3501 26.5094 23.8331 26.5094 25.6549C26.5094 27.4746 27.9909 28.9554 29.811 28.9554ZM29.811 23.8309C30.8137 23.8309 31.631 24.6469 31.631 25.6549C31.631 26.6587 30.8137 27.4746 29.811 27.4746C28.806 27.4746 27.9887 26.6587 27.9887 25.6549C27.9887 24.6469 28.806 23.8309 29.811 23.8309Z" fill="#5F64DD"/>
<path d="M29.811 16.4226C31.631 16.4226 33.1104 14.9396 33.1104 13.1178C33.1104 11.2959 31.6289 9.81296 29.811 9.81296C27.9931 9.81296 26.5094 11.2959 26.5094 13.1178C26.5094 14.9396 27.9909 16.4226 29.811 16.4226ZM29.811 11.2938C30.8137 11.2938 31.631 12.1097 31.631 13.1178C31.631 14.1215 30.8137 14.9396 29.811 14.9396C28.806 14.9396 27.9887 14.1215 27.9887 13.1178C27.9887 12.1119 28.806 11.2938 29.811 11.2938Z" fill="#5F64DD"/>
</svg>
