<svg width="45" height="56" viewBox="0 0 45 56" fill="none" xmlns="http://www.w3.org/2000/svg">
<path d="M18.3259 42C16.5874 42.0155 14.873 41.5918 13.3419 40.768C12.991 40.5739 12.6521 40.3588 12.3269 40.124L11.9349 39.851L12.0749 39.396C12.8519 36.911 13.6289 34.496 14.5459 32.102C14.6649 31.738 14.8259 31.402 14.9799 31.01L15.1339 30.646C15.2179 30.45 15.2949 30.261 15.3719 30.072C15.4489 29.883 15.6099 29.484 15.7429 29.204C15.8759 28.924 16.0439 28.581 16.1909 28.28C16.4849 27.664 16.7859 27.034 17.1429 26.425C18.1203 24.6295 19.2516 22.9221 20.5239 21.322C20.9299 20.79 21.3709 20.251 21.8189 19.698C22.7079 18.599 23.6319 17.465 24.4719 16.198C25.7178 14.3281 26.6472 12.2659 27.2229 10.094C27.5036 9.05386 27.7187 7.99712 27.8669 6.93001L27.9649 6.23001L28.6649 6.37001C29.6436 6.57074 30.5871 6.91513 31.4649 7.39201C38.0869 10.99 39.4099 21.392 34.4119 30.597C30.5829 37.66 24.1149 42 18.3259 42ZM13.4749 39.326C13.6429 39.431 13.8039 39.529 13.9649 39.62C19.9569 42.875 28.6089 38.556 33.2639 29.995C37.9189 21.434 36.8339 11.795 30.8419 8.56101C30.2723 8.26226 29.6713 8.0275 29.0499 7.86101C28.9048 8.74029 28.7156 9.61173 28.4829 10.472C27.8701 12.7809 26.8816 14.9731 25.5569 16.961C24.6959 18.2 23.7509 19.39 22.8409 20.51C22.3999 21.049 21.9729 21.581 21.5599 22.113C20.3269 23.6624 19.2308 25.3159 18.2839 27.055C17.9479 27.629 17.6679 28.21 17.3809 28.819C17.2339 29.134 17.0869 29.442 16.9259 29.75C16.7649 30.058 16.7019 30.268 16.5899 30.548C16.4779 30.828 16.4289 30.94 16.3449 31.136L16.1839 31.507C16.0369 31.85 15.8899 32.207 15.7779 32.515C14.9309 34.762 14.1959 37.009 13.4749 39.312V39.326Z" fill="#C39689"/>
<path d="M11.7109 39.788L10.6749 38.654C6.34888 33.894 6.22988 25.214 10.3949 17.549C13.9999 10.976 20.0059 6.51 25.7739 6.181L26.7469 6.125L26.4319 7.049C26.1099 7.98 25.8089 8.785 25.4939 9.506C24.7086 11.3839 23.6852 13.1531 22.4489 14.77C21.8119 15.603 21.1189 16.422 20.3489 17.283C19.5789 18.144 19.0259 18.83 18.3749 19.663C17.6399 20.622 17.0099 21.511 16.4639 22.386C16.2539 22.694 16.0859 23.009 15.9039 23.338L15.6239 23.842C15.3635 24.3163 15.1298 24.8047 14.9239 25.305C14.4538 26.3158 14.0379 27.3509 13.6779 28.406C13.3629 29.428 13.0269 30.506 12.7959 31.549C12.2968 33.7557 11.9692 35.9977 11.8159 38.255L11.7109 39.788ZM24.8499 7.588C19.8309 8.33 14.6999 12.376 11.5499 18.2C8.00788 24.696 7.69988 31.941 10.6539 36.477C10.8376 34.7209 11.1251 32.9772 11.5149 31.255C11.7599 30.156 12.0959 29.064 12.4249 28.007C12.8019 26.8991 13.2389 25.8125 13.7339 24.752C13.9677 24.2148 14.2318 23.6913 14.5249 23.184L14.7909 22.701C14.9799 22.358 15.1689 22.001 15.3999 21.658C15.9599 20.769 16.6109 19.845 17.3739 18.858C18.0739 18.004 18.7249 17.206 19.3899 16.436C20.0549 15.666 20.7899 14.784 21.4199 13.979C22.5909 12.4482 23.5602 10.7731 24.3039 8.995C24.4999 8.554 24.6609 8.092 24.8429 7.588H24.8499Z" fill="#C39689"/>
</svg>
