<svg width="81" height="125" viewBox="0 0 81 125" fill="none" xmlns="http://www.w3.org/2000/svg">
<path d="M79.7549 51.5268L75.415 48.1679C75.9043 47.04 76.1545 45.8231 76.15 44.5938C76.1455 43.3646 75.8863 42.1496 75.3887 41.0252C74.8912 39.9008 74.166 38.8914 73.2588 38.0604C72.3516 37.2294 71.2821 36.5947 70.1173 36.1964C68.9526 35.7981 67.718 35.6447 66.491 35.7458C65.264 35.8469 64.0713 36.2004 62.9877 36.7841C61.9042 37.3678 60.9534 38.1689 60.1949 39.1373C59.4365 40.1056 58.887 41.2201 58.5808 42.4107H53.9693C54.4969 39.9073 55.6216 37.5679 57.2479 35.5911C58.5925 35.3483 59.8299 34.6993 60.7933 33.7319C61.7566 32.7644 62.3994 31.5251 62.6348 30.1812C62.8702 28.8374 62.6869 27.4538 62.1097 26.2173C61.5324 24.9808 60.589 23.951 59.4069 23.2669L71.3584 3.37853C71.5622 3.03998 71.6722 2.65348 71.6773 2.25855C71.6824 1.86361 71.5823 1.47442 71.3873 1.13077C71.1923 0.787118 70.9094 0.501341 70.5675 0.302664C70.2256 0.103987 69.837 -0.000460702 69.4414 1.52754e-06H2.37317C1.9778 0.000111883 1.58953 0.104929 1.24796 0.303762C0.9064 0.502594 0.623765 0.788325 0.428897 1.13181C0.234028 1.4753 0.133896 1.86424 0.138713 2.25898C0.14353 2.65371 0.253126 3.04011 0.456319 3.37875L12.4079 23.2671C11.2463 23.9392 10.3146 24.9454 9.73475 26.1543C9.15486 27.3633 8.95367 28.7188 9.15747 30.0437C9.36126 31.3686 9.96056 32.6014 10.8771 33.5809C11.7936 34.5604 12.9847 35.2411 14.2947 35.5341C15.3022 36.7349 16.163 38.0512 16.8589 39.4551C17.1149 39.9893 17.5728 40.4001 18.1321 40.5971C18.6914 40.7942 19.3062 40.7613 19.8412 40.5058C20.3762 40.2502 20.7876 39.793 20.985 39.2345C21.1823 38.6761 21.1494 38.0623 20.8935 37.5281C20.6034 36.9237 20.2306 36.3189 19.8647 35.7145H47.0853C47.6783 35.7145 48.2469 35.4793 48.6662 35.0607C49.0854 34.6421 49.321 34.0744 49.321 33.4824C49.321 32.8904 49.0854 32.3226 48.6662 31.904C48.2469 31.4854 47.6783 31.2502 47.0853 31.2502H15.7868C15.1939 31.2502 14.6253 31.0151 14.206 30.5964C13.7868 30.1778 13.5512 29.6101 13.5512 29.0181C13.5512 28.4261 13.7868 27.8583 14.206 27.4397C14.6253 27.0211 15.1939 26.7859 15.7868 26.7859H56.0278C56.6207 26.7859 57.1893 27.0211 57.6086 27.4397C58.0279 27.8583 58.2634 28.4261 58.2634 29.0181C58.2634 29.6101 58.0279 30.1778 57.6086 30.5964C57.1893 31.0151 56.6207 31.2502 56.0278 31.2502C55.9907 31.2502 55.9598 31.2693 55.9232 31.2712C55.637 31.317 55.3549 31.3861 55.0799 31.4777C54.9743 31.5369 54.8738 31.6045 54.7791 31.6799C54.6366 31.7688 54.5049 31.8739 54.3864 31.9929C54.3644 32.0172 54.3332 32.027 54.3119 32.0524C51.7426 34.9727 50.0662 38.5677 49.4817 42.4107H15.8807C15.2878 42.4107 14.7192 42.6459 14.2999 43.0645C13.8806 43.4831 13.6451 44.0509 13.6451 44.6429C13.6451 45.2349 13.8806 45.8026 14.2999 46.2212C14.7192 46.6398 15.2878 46.875 15.8807 46.875H49.5043C49.8708 49.245 50.6997 51.5202 51.944 53.5714H24.9192C24.3263 53.5714 23.7576 53.8066 23.3384 54.2252C22.9191 54.6438 22.6836 55.2116 22.6836 55.8036C22.6836 56.3956 22.9191 56.9633 23.3384 57.3819C23.7576 57.8005 24.3263 58.0357 24.9192 58.0357H56.0278C56.6207 58.0357 57.1893 58.2709 57.6086 58.6895C58.0279 59.1081 58.2634 59.6759 58.2634 60.2679C58.2634 60.8599 58.0279 61.4276 57.6086 61.8462C57.1893 62.2648 56.6207 62.5 56.0278 62.5H15.7868C15.1939 62.5 14.6253 62.2648 14.206 61.8462C13.7868 61.4276 13.5512 60.8599 13.5512 60.2679C13.5512 59.6759 13.7868 59.1081 14.206 58.6895C14.6253 58.2709 15.1939 58.0357 15.7868 58.0357C16.0983 58.0343 16.4059 57.9673 16.6896 57.839C16.7545 57.8104 16.8042 57.7548 16.8664 57.7199C17.0771 57.6074 17.268 57.4614 17.4318 57.2878C17.4526 57.2649 17.4828 57.2575 17.5028 57.2335C18.7001 55.7269 19.7335 54.0974 20.5855 52.3725C20.8599 51.8476 20.9143 51.2353 20.7366 50.6703C20.5589 50.1053 20.1637 49.634 19.638 49.36C19.1122 49.0859 18.4989 49.0317 17.9331 49.2091C17.3673 49.3865 16.8952 49.7811 16.6208 50.306C16.0196 51.4873 15.3283 52.6206 14.553 53.6959C13.2005 53.943 11.9575 54.601 10.9938 55.5802C10.0301 56.5593 9.39275 57.8117 9.16894 59.1662C8.94514 60.5206 9.14577 61.9111 9.74341 63.1474C10.341 64.3837 11.3065 65.4056 12.5079 66.0733L4.11315 81.4383C1.4146 86.3533 0 91.868 0 97.4731C0 103.078 1.4146 108.593 4.11315 113.508L4.60878 114.413V118.304C4.61072 120.079 5.31796 121.781 6.57531 123.037C7.83266 124.292 9.53744 124.998 11.3156 125H60.499C62.2772 124.998 63.9819 124.292 65.2393 123.037C66.4967 121.781 67.2039 120.079 67.2058 118.304V114.411L67.7036 113.504C70.4025 108.589 71.817 103.075 71.8162 97.4704C71.8154 91.8658 70.3994 86.3519 67.6991 81.4383L59.3052 66.0741C60.4869 65.4182 61.4412 64.4193 62.0415 63.2097C62.6418 62.0002 62.8598 60.637 62.6667 59.3009C62.4736 57.9648 61.8784 56.7189 60.96 55.7281C60.0416 54.7374 58.8435 54.0487 57.5242 53.7532C55.8089 51.779 54.5989 49.4188 53.9982 46.875H58.5812C58.9394 48.3066 59.6509 49.6258 60.6507 50.7124C61.6505 51.7991 62.9069 52.6185 64.3052 53.096C65.7035 53.5735 67.1994 53.6939 68.6563 53.4463C70.1131 53.1986 71.4847 52.5907 72.646 51.678L76.1483 54.3867V87.0536C76.1483 87.6456 76.3838 88.2133 76.8031 88.6319C77.2223 89.0505 77.7909 89.2857 78.3839 89.2857C78.9768 89.2857 79.5454 89.0505 79.9647 88.6319C80.3839 88.2133 80.6195 87.6456 80.6195 87.0536V53.2924C80.6195 52.9518 80.5416 52.6157 80.3918 52.3097C80.242 52.0037 80.0241 51.736 79.7549 51.5268V51.5268ZM6.3226 4.46429H53.3017L49.7247 22.3214H17.0535L6.3226 4.46429ZM54.2828 22.3214L57.8598 4.46429H65.494L54.7615 22.3214H54.2828ZM62.7346 118.304C62.7334 118.895 62.4975 119.462 62.0785 119.881C61.6595 120.299 61.0916 120.535 60.499 120.536H11.3156C10.7229 120.535 10.1547 120.3 9.73565 119.881C9.31655 119.463 9.08077 118.895 9.08 118.304V116.071H62.7346V118.304ZM63.7782 111.363L63.6428 111.607H8.16961L8.03861 111.367C5.6547 107.007 4.43431 102.107 4.49472 97.1397C5.16169 97.407 5.79509 97.698 6.44051 98.0005C9.65907 99.6839 13.2524 100.525 16.885 100.446C20.5203 100.526 24.1165 99.6841 27.3382 98.0007C29.9625 96.5957 32.9089 95.8999 35.8855 95.9821C38.8641 95.9 41.8127 96.5958 44.4393 98.0007C47.6639 99.6844 51.2629 100.526 54.901 100.446C58.5357 100.524 62.1313 99.6846 65.3542 98.0051C65.9871 97.708 66.6385 97.4195 67.3208 97.1459C67.3802 102.11 66.1602 107.006 63.7782 111.363V111.363ZM66.8669 92.5666C65.7005 92.9616 64.5597 93.4282 63.4509 93.9636C60.8259 95.3692 57.8785 96.065 54.901 95.9821C51.9209 96.0647 48.9709 95.369 46.3429 93.9636C43.1196 92.2803 39.5221 91.439 35.8855 91.5179C32.2509 91.439 28.6554 92.2804 25.4345 93.9636C22.8095 95.3688 19.8623 96.0647 16.885 95.9821C13.9112 96.0646 10.9675 95.3687 8.34645 93.9636C7.2392 93.4437 6.10245 92.9889 4.94202 92.6015C5.46869 89.4427 6.51503 86.3926 8.03866 83.5747L17.1142 66.9643H54.7004L63.7782 83.5746C65.2953 86.3822 66.3388 89.4203 66.8669 92.5666H66.8669ZM67.2058 49.1071C66.3215 49.1071 65.457 48.8453 64.7217 48.3548C63.9865 47.8642 63.4134 47.167 63.075 46.3513C62.7365 45.5355 62.648 44.6379 62.8205 43.7719C62.993 42.9059 63.4189 42.1105 64.0442 41.4861C64.6695 40.8618 65.4662 40.4366 66.3335 40.2644C67.2009 40.0921 68.0999 40.1805 68.9169 40.5184C69.7339 40.8563 70.4322 41.4285 70.9235 42.1626C71.4148 42.8968 71.677 43.7599 71.677 44.6429C71.6762 45.8266 71.2049 46.9617 70.3666 47.7987C69.5282 48.6357 68.3914 49.1063 67.2058 49.1071V49.1071Z" fill="#DF9B7E"/>
</svg>
