<svg width="85" height="125" viewBox="0 0 85 125" fill="none" xmlns="http://www.w3.org/2000/svg">
<path d="M7.53906 54.8069V120.834H3.76048V125H67.9964V120.834H64.2178V104.171H75.5535C78.0589 104.171 80.4616 103.074 82.2332 101.121C84.0047 99.1678 85 96.5188 85 93.7568V50.0162C85 47.2542 84.0047 44.6052 82.2332 42.6521C80.4616 40.699 78.0589 39.6018 75.5535 39.6018H64.2178C63.7479 34.4462 61.5517 29.6688 58.0583 26.2025C54.5648 22.7362 50.0248 20.8299 45.3249 20.8559H37.7677V16.3985C39.5487 15.8915 41.1008 14.6859 42.1331 13.0076C43.1654 11.3292 43.6071 9.2934 43.3754 7.28172C43.1436 5.27004 42.2543 3.42061 40.8742 2.08009C39.494 0.739574 37.7178 0 35.8784 0C34.0391 0 32.2628 0.739574 30.8827 2.08009C29.5026 3.42061 28.6133 5.27004 28.3815 7.28172C28.1497 9.2934 28.5914 11.3292 29.6237 13.0076C30.6561 14.6859 32.2082 15.8915 33.9891 16.3985V20.8559H26.432C21.7483 20.8558 17.2316 22.7737 13.7581 26.2375C10.2846 29.7014 8.10189 34.4641 7.63352 39.6018H1.87118C1.5294 39.6028 1.19427 39.706 0.90149 39.9004C0.608709 40.0948 0.369244 40.3731 0.208608 40.7057C0.0569133 41.0314 -0.0142268 41.3955 0.00235756 41.7612C0.0189419 42.1268 0.122665 42.4812 0.303073 42.7886L7.53906 54.8069ZM32.0998 8.35857C32.0998 7.53466 32.3215 6.72926 32.7366 6.0442C33.1518 5.35914 33.742 4.8252 34.4324 4.50991C35.1229 4.19461 35.8826 4.11211 36.6156 4.27285C37.3486 4.43359 38.0218 4.83034 38.5503 5.41293C39.0787 5.99552 39.4386 6.73779 39.5844 7.54587C39.7302 8.35395 39.6554 9.19155 39.3694 9.95274C39.0834 10.7139 38.5991 11.3645 37.9777 11.8223C37.3563 12.28 36.6258 12.5243 35.8784 12.5243C34.8763 12.5243 33.9152 12.0854 33.2066 11.3042C32.4979 10.523 32.0998 9.4634 32.0998 8.35857ZM60.4392 43.7676V100.38C59.8334 100.138 59.1944 100.011 58.5499 100.005H37.7677V43.7676H60.4392ZM64.2178 52.0991H73.6643V91.6739H64.2178V52.0991ZM58.5499 104.171C59.051 104.171 59.5315 104.391 59.8859 104.781C60.2402 105.172 60.4392 105.702 60.4392 106.254C60.4392 106.806 60.2402 107.336 59.8859 107.727C59.5315 108.117 59.051 108.337 58.5499 108.337H13.2069C12.7059 108.337 12.2253 108.117 11.871 107.727C11.5167 107.336 11.3176 106.806 11.3176 106.254C11.3176 105.702 11.5167 105.172 11.871 104.781C12.2253 104.391 12.7059 104.171 13.2069 104.171H58.5499ZM11.3176 120.834V112.128C11.9235 112.37 12.5624 112.497 13.2069 112.503H58.5499C59.1944 112.497 59.8334 112.37 60.4392 112.128V120.834H11.3176ZM81.2214 50.0162V93.7568C81.2214 95.414 80.6243 97.0034 79.5613 98.1752C78.4984 99.3471 77.0568 100.005 75.5535 100.005H64.2178V95.8396H73.6643C74.6664 95.8396 75.6275 95.4008 76.3361 94.6195C77.0447 93.8383 77.4428 92.7787 77.4428 91.6739V52.0991C77.4428 50.9943 77.0447 49.9347 76.3361 49.1535C75.6275 48.3722 74.6664 47.9333 73.6643 47.9333H64.2178V43.7676H75.5535C77.0568 43.7676 78.4984 44.4259 79.5613 45.5978C80.6243 46.7696 81.2214 48.359 81.2214 50.0162V50.0162ZM26.432 25.0216H45.3249C49.0071 25.0202 52.5632 26.5009 55.3253 29.1855C58.0874 31.8701 59.8656 35.5741 60.3258 39.6018H11.431C11.8913 35.5741 13.6694 31.8701 16.4315 29.1855C19.1936 26.5009 22.7497 25.0202 26.432 25.0216V25.0216ZM9.42835 43.7676H33.9891V100.005H13.2069C12.5624 100.011 11.9235 100.138 11.3176 100.38V54.182C11.3147 53.7737 11.2031 53.3753 10.9965 53.0364L5.32859 43.7676H9.42835Z" fill="#689E5F"/>
</svg>
