<svg width="100" height="125" viewBox="0 0 100 125" fill="none" xmlns="http://www.w3.org/2000/svg">
<path d="M99.9064 111.992L86.367 63.6104H90.0725C91.2127 63.6104 92.2103 62.5 92.2103 61.231C92.2103 59.9619 91.2127 58.8515 90.0725 58.8515H76.9607H71.83L91.9253 18.0838C92.3528 17.2906 92.2103 16.4975 91.9253 15.7043C91.4977 15.0698 90.7851 14.7525 90.0725 14.7525H85.6544L88.5048 9.51777C88.7898 8.88325 88.9324 8.24873 88.6473 7.61421C88.5048 6.9797 87.9347 6.50381 87.3646 6.18655C77.9583 2.22081 67.4119 0 56.7229 0C46.0339 0 35.3449 2.06218 26.0811 6.18655C25.511 6.50381 25.0835 6.9797 24.7984 7.61421C24.6559 8.24873 24.6559 9.04188 24.941 9.51777L27.7914 14.7525H23.3733C22.6607 14.7525 21.948 15.2284 21.5205 15.8629C21.0929 16.4975 21.0929 17.4492 21.5205 18.2424L41.6158 59.0102H36.4851H23.3733C22.2331 59.0102 21.2355 60.1206 21.2355 61.3896C21.2355 62.6586 22.2331 63.769 23.3733 63.769H27.0788L25.511 69.1624H18.8126C8.40867 69.1624 0 78.5216 0 90.1015C0 99.7779 5.98583 108.027 14.1095 110.247L13.5394 112.151C13.5394 112.31 13.5394 112.468 13.3969 112.468C12.9693 115.641 13.8244 118.813 15.6772 121.193C17.5299 123.572 20.2378 125 23.0882 125H90.0725C92.9229 125 95.6308 123.572 97.4835 121.193C99.3363 118.813 100.191 115.641 99.7639 112.468C100.049 112.151 100.049 112.151 99.9064 111.992ZM90.3576 120.082H23.3733C21.8055 120.082 20.2378 119.289 19.0977 117.862C18.1 116.593 17.5299 114.848 17.815 113.103L31.6394 63.6104H34.6323V68.6865C34.6323 69.9556 35.63 71.066 36.7701 71.066H76.9607C78.1009 71.066 79.0985 69.9556 79.0985 68.6865V63.4518H82.2339L95.9158 113.103C96.0583 114.848 95.6308 116.593 94.6331 117.862C93.493 119.289 91.9253 120.082 90.3576 120.082ZM18.9551 73.6041H24.3709L15.5347 105.489C9.12127 103.744 4.41811 97.3985 4.41811 89.7843C4.41811 80.901 10.974 73.6041 18.9551 73.6041ZM73.3977 6.34518L72.6851 7.93147C72.4001 8.56599 72.5426 9.20051 73.1127 9.51777C73.2552 9.6764 73.3977 9.6764 73.6827 9.6764C74.1103 9.6764 74.3953 9.51777 74.5379 9.04188L75.678 6.82107C78.3859 7.45558 81.0938 8.40736 83.6591 9.35914L80.8087 14.5939H71.83L72.5426 13.0076C72.8276 12.3731 72.6851 11.7386 72.115 11.4213C71.5449 11.1041 70.9749 11.2627 70.6898 11.8972L69.4071 14.7525H32.9221L30.0717 9.51777C38.3378 6.34518 47.6016 4.75888 56.8654 4.75888C62.4237 4.60025 67.982 5.23477 73.3977 6.34518ZM86.5095 19.3528L66.9843 58.8515H46.604L27.0788 19.3528H86.5095ZM45.3213 63.6104H68.1245H74.6804V66.4657H38.7654V63.6104H45.3213Z" fill="#4F7A92"/>
<path d="M85.5119 98.033C85.2269 97.0812 84.3718 96.4467 83.5166 96.4467H30.2142C29.3591 96.4467 28.504 97.0812 28.2189 98.033L25.3686 108.027C24.941 109.613 25.226 111.358 26.0812 112.786C26.9363 114.213 28.3615 115.006 29.9292 115.006H83.5166C85.0844 115.006 86.5096 114.213 87.3647 112.786C88.2198 111.358 88.5048 109.613 88.0773 108.027L85.5119 98.033ZM84.2292 110.089C84.0867 110.247 83.9442 110.406 83.6592 110.406H30.0717C29.7867 110.406 29.6441 110.247 29.5016 110.089C29.3591 109.93 29.3591 109.772 29.3591 109.454L31.6394 101.047H81.8064L84.0867 109.454C84.3718 109.772 84.2292 110.089 84.2292 110.089Z" fill="#4F7A92"/>
</svg>
