<svg width="97" height="125" viewBox="0 0 97 125" fill="none" xmlns="http://www.w3.org/2000/svg">
<path d="M95.2551 31.2378L90.3429 26.3875C89.9532 25.9509 89.4758 25.6016 88.942 25.3625C88.4083 25.1234 87.8302 24.9999 87.2455 25H82.7943L81.9331 24.1374C81.5479 23.7492 81.0896 23.4414 80.5847 23.2319C80.0799 23.0223 79.5386 22.9152 78.9921 22.9167H70.8802C70.5337 21.6507 69.7973 20.5264 68.7757 19.7042L61.4953 13.8713C60.3882 12.9845 59.0131 12.5009 57.5956 12.5H50.7356V6.25C50.7338 4.59295 50.0758 3.00429 48.9061 1.83258C47.7363 0.66087 46.1503 0.00180874 44.496 0H40.3364C38.6821 0.00180874 37.0961 0.66087 35.9264 1.83258C34.7566 3.00429 34.0987 4.59295 34.0969 6.25V12.5H27.2368C25.8203 12.5009 24.446 12.9836 23.3392 13.8692L16.0556 19.7062C15.6495 20.0353 15.286 20.4139 14.9736 20.8333H4.15967C3.31835 20.8332 2.49678 21.0887 1.80343 21.566C1.11008 22.0434 0.577539 22.7201 0.276113 23.5069C-0.025312 24.2937 -0.0814505 25.1535 0.11511 25.9729C0.31167 26.7923 0.751687 27.5328 1.37707 28.0965L17.1265 42.2952L20.9893 61.6434C21.2313 62.8314 21.8126 63.9234 22.6627 64.7866C23.5128 65.6497 24.5949 66.2469 25.7775 66.5054V70.8333H25.1723C23.6715 70.8315 22.2206 71.3724 21.0862 72.3566C19.9518 73.3408 19.2102 74.7021 18.9978 76.1902L14.0835 117.775C13.9425 118.668 13.9964 119.58 14.2413 120.449C14.4862 121.318 14.9163 122.124 15.502 122.811C16.0878 123.497 16.8152 124.049 17.6341 124.427C18.4531 124.805 19.3441 125 20.2458 125H64.5866C65.4814 125 66.3657 124.808 67.1796 124.435C67.9935 124.063 68.7178 123.52 69.3035 122.842C69.8891 122.164 70.3223 121.368 70.5736 120.508C70.825 119.648 70.8886 118.744 70.7601 117.857L65.8235 76.1108C65.5979 74.6374 64.8515 73.2941 63.7203 72.3255C62.5891 71.3569 61.1483 70.8274 59.6601 70.8333H59.0549V66.5054C60.2375 66.2469 61.3197 65.6498 62.1698 64.7866C63.0198 63.9235 63.6012 62.8315 63.8432 61.6435L66.1678 50H72.7526C73.299 50.0015 73.8403 49.8944 74.3452 49.6848C74.85 49.4753 75.3084 49.1675 75.6936 48.7793L75.8931 48.5795L81.9331 53.0843V59.6843L75.2315 68.0766C74.5918 68.8771 74.2695 69.8859 74.3263 70.9096C74.3831 71.9334 74.8151 72.9002 75.5394 73.6247L78.9921 77.0833C79.7726 77.8637 80.8304 78.302 81.9331 78.302C83.0359 78.302 84.0936 77.8637 84.8741 77.0833L95.2733 66.6667C96.0511 65.8838 96.489 64.8252 96.492 63.7207V34.2042C96.4934 33.6521 96.3847 33.1054 96.1723 32.596C95.9599 32.0866 95.648 31.6248 95.2551 31.2378V31.2378ZM57.5956 16.6667C58.0681 16.6673 58.5265 16.8287 58.8955 17.1244L63.5255 20.8333H56.1809L54.1011 16.6667H57.5956ZM33.3027 20.8333L35.3825 16.6667H49.4499L51.5297 20.8333H33.3027ZM52.5969 25L48.8537 62.5H35.9787L32.2354 25H52.5969ZM38.2565 6.25C38.2571 5.69763 38.4764 5.16805 38.8663 4.77747C39.2562 4.38689 39.7849 4.16722 40.3364 4.16667H44.496C45.0475 4.16722 45.5762 4.38689 45.9661 4.77747C46.356 5.16805 46.5753 5.69763 46.5759 6.25V12.5H38.2565V6.25ZM25.939 17.1224C26.3077 16.8279 26.7652 16.6672 27.2368 16.6667H30.7313L28.6515 20.8333H21.3076L25.939 17.1224ZM4.15967 25H13.7311C13.7484 25.2726 13.7834 25.5437 13.8358 25.8118L15.7619 35.4597L4.15967 25ZM17.9155 25H28.0548L31.7991 62.5H27.1079C26.6273 62.499 26.1618 62.3319 25.79 62.0268C25.4182 61.7217 25.163 61.2974 25.0675 60.8256L17.9155 25ZM20.2459 120.833C19.9449 120.836 19.6472 120.771 19.3739 120.645C19.1006 120.519 18.8584 120.334 18.6647 120.103C18.4617 119.863 18.3148 119.581 18.2351 119.276C18.1553 118.972 18.1445 118.654 18.2036 118.345L23.1179 76.7578C23.1935 76.267 23.4425 75.8197 23.8195 75.4971C24.1965 75.1745 24.6765 74.9982 25.1723 75H31.8369L28.0232 120.833H20.2459ZM32.1979 120.833L36.0102 75H48.8223L52.6347 120.833H32.1979ZM59.6601 75C60.1434 74.9944 60.6132 75.1596 60.9869 75.4666C61.3606 75.7736 61.6143 76.2027 61.7034 76.6785L66.6401 118.427C66.6869 118.724 66.6689 119.028 66.5872 119.317C66.5055 119.607 66.3622 119.875 66.167 120.104C65.9718 120.333 65.7295 120.516 65.4567 120.642C65.1838 120.768 64.887 120.833 64.5866 120.833H56.8092L52.9955 75H59.6601ZM29.9372 70.8333V66.6667H54.8952V70.8333H29.9372ZM59.7648 60.8256C59.6693 61.2974 59.4141 61.7217 59.0423 62.0268C58.6706 62.3319 58.2051 62.499 57.7245 62.5H53.0334L56.7777 25H66.917L59.7648 60.8256ZM66.9995 45.8333L70.7428 27.0833H78.9921L81.9331 30.0293V36.6374L72.7526 45.8333H66.9995ZM92.3323 63.7207L81.9331 74.1374L78.4803 70.6787L85.1778 62.2925C85.769 61.5528 86.0916 60.6338 86.0928 59.6863V53.0843C86.092 52.4477 85.9457 51.8198 85.6653 51.2486C85.3849 50.6773 84.9778 50.1779 84.4751 49.7885L78.8654 45.6023L84.8741 39.5833C85.6519 38.8005 86.0898 37.7418 86.0928 36.6374V30.0293C86.092 29.7629 86.0654 29.4971 86.0133 29.2358L87.3308 29.2582L92.3323 34.2042V63.7207Z" fill="#FB5F5F"/>
<path d="M75.6937 35.4167C76.8424 35.4167 77.7736 34.4839 77.7736 33.3333C77.7736 32.1827 76.8424 31.25 75.6937 31.25C74.5451 31.25 73.6139 32.1827 73.6139 33.3333C73.6139 34.4839 74.5451 35.4167 75.6937 35.4167Z" fill="#FB5F5F"/>
</svg>
