<svg width="149" height="150" viewBox="0 0 149 150" fill="none" xmlns="http://www.w3.org/2000/svg">
<path d="M18.8685 62.7689C19.0624 62.7976 19.2043 62.795 19.2942 62.7612C19.3855 62.7181 19.4421 62.6227 19.464 62.475C19.4708 62.4288 19.479 62.3734 19.4886 62.3088C19.4982 62.2441 19.4999 62.1689 19.4937 62.0831L20.5878 62.2452C20.598 62.3033 20.6056 62.3799 20.6104 62.475C20.6257 62.5621 20.6358 62.6533 20.6406 62.7483C20.6454 62.8434 20.6456 62.9378 20.6411 63.0315C20.6367 63.1252 20.6297 63.2043 20.6201 63.269C20.5722 63.5921 20.4679 63.8503 20.3072 64.0435C20.1465 64.2367 19.8998 64.3416 19.5671 64.3584C19.8253 64.7174 19.9894 65.138 20.0595 65.6202C20.131 66.0931 20.1352 66.5419 20.0723 66.9666C20.0245 67.2897 19.9325 67.5922 19.7964 67.874C19.6695 68.1571 19.5059 68.4018 19.3055 68.608C19.0973 68.8035 18.8536 68.9514 18.5746 69.0516C18.2877 69.1412 17.9689 69.16 17.618 69.1081C17.1749 69.0424 16.8264 68.9106 16.5727 68.7126C16.3203 68.5054 16.1348 68.2609 16.0162 67.9791C15.8989 67.6881 15.8318 67.3763 15.8151 67.0436C15.7905 66.7003 15.7843 66.3597 15.7966 66.0218C15.7836 65.7274 15.787 65.4496 15.8069 65.1883C15.8175 64.9257 15.8094 64.6934 15.7828 64.4913C15.7575 64.28 15.6976 64.1107 15.6032 63.9835C15.501 63.8457 15.3345 63.7597 15.1036 63.7255C14.9005 63.6954 14.7268 63.7216 14.5825 63.804C14.4396 63.8771 14.3249 63.9828 14.2384 64.121C14.144 64.2485 14.0746 64.3986 14.0301 64.5713C13.9764 64.7426 13.938 64.9068 13.9147 65.0637C13.8491 65.5069 13.8874 65.8852 14.0296 66.1988C14.1719 66.5124 14.4341 66.7163 14.8164 66.8107L14.5826 68.3895C14.125 68.2934 13.7583 68.1258 13.4823 67.8868C13.2064 67.6478 12.998 67.3669 12.8571 67.0441C12.7176 66.7121 12.6389 66.3513 12.6211 65.9618C12.6033 65.5724 12.6239 65.1791 12.6827 64.7821C12.7346 64.4313 12.8229 64.0905 12.9473 63.7599C13.0718 63.4292 13.237 63.1423 13.4428 62.8992C13.65 62.6468 13.8998 62.4574 14.1922 62.3309C14.4753 62.203 14.8061 62.1671 15.1847 62.2231L18.8685 62.7689ZM16.6404 64.0522C16.7618 64.3155 16.8149 64.6253 16.7999 64.9816C16.7756 65.3366 16.7698 65.6942 16.7825 66.0546C16.7855 66.2249 16.8031 66.3927 16.8353 66.5578C16.8582 66.7216 16.9069 66.8704 16.9815 67.0041C17.0468 67.1364 17.1478 67.2504 17.2846 67.3462C17.4135 67.4313 17.5795 67.4889 17.7827 67.519C17.9581 67.545 18.1133 67.5161 18.2484 67.4323C18.3835 67.3486 18.4982 67.2429 18.5926 67.1154C18.6791 66.9772 18.7485 66.8271 18.8008 66.665C18.8545 66.4937 18.8916 66.3388 18.9121 66.2003C18.9381 66.0249 18.943 65.8322 18.927 65.6222C18.9109 65.4123 18.8605 65.2114 18.7757 65.0196C18.6922 64.8185 18.5763 64.6456 18.4279 64.501C18.2703 64.355 18.0668 64.2635 17.8175 64.2266L16.6404 64.0522Z" fill="#E3D021"/>
<path d="M14.7306 48.6897L15.4327 47.2564L18.7518 48.8822L18.7642 48.8571C18.6542 48.6785 18.5712 48.4872 18.5153 48.2831C18.4594 48.079 18.4305 47.8726 18.4288 47.664C18.4229 47.4428 18.4441 47.2297 18.4925 47.0248C18.5366 46.8074 18.6039 46.6065 18.6942 46.4221C18.9446 45.9108 19.2544 45.5117 19.6236 45.2249C19.9885 44.9255 20.3918 44.7281 20.8334 44.6327C21.2667 44.5332 21.7237 44.5232 22.2044 44.6027C22.6851 44.6823 23.1643 44.8391 23.6421 45.0731C24.0779 45.2866 24.4724 45.5526 24.8257 45.8711C25.183 46.1813 25.4634 46.5317 25.667 46.9224C25.8663 47.3006 25.9761 47.713 25.9964 48.1595C26.0084 48.6018 25.8973 49.0619 25.6633 49.5396C25.5566 49.7576 25.431 49.9715 25.2866 50.1814C25.1547 50.387 24.9976 50.5698 24.8152 50.7299C24.6329 50.89 24.4336 51.021 24.2174 51.123C24.0052 51.2166 23.7635 51.2644 23.4922 51.2667L23.4799 51.2918L24.3726 51.7291L23.7074 53.0869L14.7306 48.6897ZM22.9148 46.4941C22.6215 46.3504 22.318 46.2485 22.0045 46.1884C21.6909 46.1284 21.3924 46.1225 21.109 46.1707C20.8171 46.2148 20.5529 46.3192 20.3164 46.484C20.0714 46.6446 19.8771 46.8716 19.7334 47.1649C19.4377 47.7684 19.4235 48.3279 19.6907 48.8433C19.962 49.3503 20.4455 49.7742 21.1411 50.115C21.468 50.2751 21.7924 50.3873 22.1144 50.4514C22.432 50.5031 22.7304 50.4986 23.0096 50.4379C23.2888 50.3771 23.5404 50.2666 23.7645 50.1061C23.9927 49.9373 24.1787 49.7062 24.3224 49.4128C24.4825 49.0859 24.5509 48.7765 24.5277 48.4845C24.5044 48.1925 24.4229 47.9239 24.2832 47.6788C24.1392 47.4212 23.9474 47.1973 23.7079 47.0073C23.4642 46.8047 23.1998 46.6337 22.9148 46.4941Z" fill="#E3D021"/>
<path d="M20.7112 38.0509L21.6385 36.7519L22.8691 37.6304L21.9418 38.9294L20.7112 38.0509ZM22.9559 39.6533L23.8832 38.3543L29.7741 42.5597L28.8468 43.8587L22.9559 39.6533Z" fill="#E3D021"/>
<path d="M27.6925 33.5753L28.5194 32.7002L26.9421 31.2098L28.0382 30.0498L29.6155 31.5401L30.6058 30.4919L31.4708 31.3092L30.4805 32.3574L33.2891 35.0111C33.4112 35.1265 33.5195 35.2224 33.6142 35.299C33.7152 35.3687 33.8122 35.4155 33.9053 35.4393C34.0048 35.4562 34.1068 35.4435 34.2112 35.4009C34.3089 35.3519 34.4186 35.263 34.5404 35.1341C34.6173 35.0526 34.6942 34.9712 34.7712 34.8898C34.8413 34.802 34.9046 34.7078 34.9612 34.6071L35.8567 35.4533C35.7485 35.595 35.6435 35.7333 35.5417 35.8682C35.4399 36.0032 35.3281 36.1351 35.2063 36.264C34.9178 36.5693 34.6567 36.7912 34.423 36.9299C34.1888 37.0554 33.9662 37.1211 33.7551 37.1271C33.5436 37.1199 33.3339 37.0565 33.1258 36.937C32.9242 36.8107 32.7116 36.6483 32.4881 36.45L29.3844 33.5174L28.5575 34.3926L27.6925 33.5753Z" fill="#E3D021"/>
<path d="M47.1219 27.3355C46.6215 27.626 46.1266 27.8053 45.6374 27.8734C45.1515 27.9288 44.687 27.8908 44.2439 27.7595C43.8089 27.6235 43.4016 27.3959 43.022 27.0766C42.6505 26.7527 42.3242 26.3485 42.0431 25.8642C41.7667 25.3879 41.58 24.9082 41.4829 24.4249C41.394 23.937 41.3983 23.4704 41.4961 23.0252C41.6018 22.5753 41.8016 22.1572 42.0954 21.7708C42.3925 21.3717 42.7913 21.027 43.2918 20.7365C43.7923 20.446 44.2855 20.2731 44.7713 20.2177C45.2606 20.1496 45.7227 20.1835 46.1578 20.3195C46.6009 20.4508 47.0082 20.6784 47.3797 21.0024C47.7592 21.3217 48.0872 21.7194 48.3636 22.1957C48.6447 22.68 48.8298 23.1662 48.9187 23.6541C49.0158 24.1374 49.0114 24.6039 48.9056 25.0538C48.8079 25.499 48.6105 25.9212 48.3133 26.3203C48.0195 26.7066 47.6224 27.045 47.1219 27.3355ZM46.4894 26.2458C46.7962 26.0677 47.0251 25.8485 47.1762 25.5882C47.3272 25.3279 47.4145 25.0506 47.438 24.7564C47.4615 24.4622 47.4305 24.1672 47.3452 23.8714C47.2632 23.5628 47.1426 23.2713 46.9833 22.9969C46.8287 22.7305 46.6377 22.4852 46.4105 22.261C46.1913 22.0321 45.9505 21.8589 45.6881 21.7414C45.4209 21.6159 45.1369 21.5541 44.8359 21.5561C44.5349 21.5582 44.2311 21.6482 43.9243 21.8262C43.6176 22.0043 43.3887 22.2235 43.2376 22.4838C43.0866 22.7441 42.9993 23.0214 42.9758 23.3156C42.9476 23.6018 42.9745 23.8991 43.0565 24.2076C43.1465 24.5115 43.2688 24.7966 43.4235 25.063C43.5827 25.3375 43.772 25.5891 43.9912 25.818C44.2138 26.0342 44.4586 26.205 44.7257 26.3306C44.9928 26.4561 45.2769 26.5179 45.5779 26.5159C45.8788 26.5138 46.1827 26.4238 46.4894 26.2458Z" fill="#E3D021"/>
<path d="M50.3258 17.4931L51.4389 17.0723L51.226 16.5092C51.0643 16.0814 50.9864 15.7168 50.9921 15.4153C50.9946 15.105 51.0567 14.8471 51.1785 14.6414C51.297 14.427 51.4572 14.2567 51.6589 14.1305C51.8661 13.9923 52.0919 13.877 52.3364 13.7846C52.8166 13.6031 53.1773 13.5017 53.4187 13.4803L53.8592 14.6458C53.7533 14.6559 53.6419 14.678 53.5252 14.7122C53.4138 14.7344 53.2839 14.7735 53.1355 14.8296C52.9347 14.9055 52.7782 15.0195 52.6661 15.1716C52.5627 15.3205 52.5638 15.5346 52.6694 15.814L52.9318 16.508L54.2021 16.0279L54.6228 17.141L53.3526 17.6212L55.491 23.2785L53.9981 23.8428L51.8596 18.1855L50.7465 18.6062L50.3258 17.4931Z" fill="#E3D021"/>
<path d="M71.8287 15.8004C71.7898 15.5507 71.7145 15.3133 71.6028 15.0882C71.5003 14.8624 71.3632 14.6721 71.1916 14.5174C71.0285 14.3526 70.8312 14.2281 70.5997 14.1437C70.3767 14.0493 70.1303 14.013 69.8605 14.0348C69.5814 14.0572 69.3297 14.129 69.1054 14.2501C68.8896 14.3611 68.7051 14.5118 68.5519 14.702C68.4072 14.8822 68.2931 15.0927 68.2095 15.3335C68.1352 15.5736 68.1043 15.8289 68.1167 16.0995L71.8287 15.8004ZM68.201 17.1461C68.2235 17.4252 68.2825 17.692 68.3779 17.9465C68.4826 18.2002 68.6219 18.4184 68.7958 18.601C68.9697 18.7836 69.1825 18.9257 69.4341 19.0271C69.685 19.1193 69.9779 19.1519 70.3128 19.1249C70.7779 19.0874 71.1422 18.9597 71.4056 18.7419C71.6775 18.514 71.8671 18.1944 71.9744 17.7831L73.4815 17.6617C73.4293 18.0591 73.3132 18.4196 73.1332 18.7431C72.9533 19.0666 72.7278 19.347 72.4566 19.5842C72.1847 19.8121 71.8714 19.9918 71.5169 20.1234C71.1723 20.2635 70.8047 20.3493 70.414 20.3808C69.8465 20.4265 69.3366 20.374 68.8844 20.2231C68.4321 20.0723 68.039 19.8418 67.705 19.5316C67.3803 19.2207 67.1202 18.839 66.9246 18.3866C66.7382 17.9334 66.6226 17.4278 66.5776 16.8696C66.5364 16.3579 66.5765 15.8678 66.6979 15.3992C66.8279 14.9205 67.0278 14.4971 67.2978 14.1289C67.5763 13.7506 67.9213 13.4419 68.3328 13.2028C68.7442 12.9636 69.2198 12.8223 69.7593 12.7788C70.3268 12.7331 70.8436 12.8132 71.3096 13.0191C71.7842 13.2149 72.1861 13.4962 72.5153 13.863C72.8445 14.2297 73.0948 14.6637 73.2663 15.1649C73.4463 15.656 73.5255 16.174 73.5039 16.7188L68.201 17.1461Z" fill="#E3D021"/>
<path d="M76.9345 12.8365L78.6622 13.006L79.9447 18.7165L79.9726 18.7193L82.2708 13.3601L83.9149 13.5214L80.6306 20.4719L78.8471 20.2969L76.9345 12.8365Z" fill="#E3D021"/>
<path d="M92.5066 18.7653C92.5574 18.5178 92.5696 18.269 92.5434 18.0191C92.5261 17.7717 92.4641 17.5456 92.3572 17.3407C92.2619 17.1294 92.1204 16.9438 91.9329 16.784C91.7568 16.6177 91.5386 16.4977 91.2782 16.424C91.0088 16.3477 90.7478 16.3271 90.4954 16.3623C90.2544 16.3911 90.0289 16.4679 89.819 16.5927C89.6205 16.7111 89.4401 16.8686 89.2778 17.0651C89.1244 17.2642 89.0063 17.4927 88.9236 17.7505L92.5066 18.7653ZM88.6374 18.7608C88.5611 19.0302 88.5233 19.3008 88.5239 19.5726C88.5335 19.8469 88.588 20.1 88.6872 20.3318C88.7865 20.5636 88.9363 20.771 89.1367 20.9538C89.3397 21.1277 89.6028 21.2605 89.9261 21.352C90.3751 21.4792 90.761 21.4866 91.0838 21.3744C91.4182 21.2556 91.7074 21.0223 91.9514 20.6743L93.4062 21.0863C93.2186 21.4406 92.984 21.7379 92.7025 21.9783C92.421 22.2187 92.1118 22.4027 91.7749 22.5304C91.4406 22.6492 91.0843 22.7083 90.7061 22.7079C90.3344 22.719 89.9599 22.6712 89.5827 22.5643C89.035 22.4092 88.5755 22.182 88.2043 21.8829C87.8331 21.5838 87.5451 21.2306 87.3403 20.8234C87.1445 20.4187 87.0338 19.9702 87.0084 19.478C86.9918 18.9883 87.0599 18.474 87.2125 17.9352C87.3524 17.4413 87.561 16.996 87.8382 16.5992C88.1271 16.196 88.4622 15.8689 88.8437 15.618C89.2367 15.3607 89.6677 15.1918 90.1367 15.1112C90.6058 15.0307 91.1007 15.0641 91.6215 15.2117C92.1693 15.3668 92.6257 15.6222 92.9906 15.9777C93.367 16.3269 93.6455 16.7307 93.8261 17.1892C94.0066 17.6478 94.0898 18.1418 94.0756 18.6713C94.073 19.1944 93.9665 19.7075 93.7561 20.2105L88.6374 18.7608Z" fill="#E3D021"/>
<path d="M98.9373 18.0842L100.288 18.7321L99.6823 19.9944L99.7076 20.0065C99.8344 19.85 99.9971 19.7158 100.196 19.604C100.403 19.4963 100.623 19.4155 100.855 19.3616C101.101 19.3033 101.349 19.2826 101.6 19.2994C101.85 19.3161 102.085 19.377 102.304 19.482C102.472 19.5627 102.584 19.6215 102.639 19.6581C102.702 19.6988 102.765 19.7396 102.829 19.7803L102.162 21.1687C102.069 21.1035 101.97 21.0404 101.865 20.9795C101.772 20.9142 101.675 20.8573 101.574 20.8089C101.33 20.6918 101.074 20.6313 100.807 20.6273C100.552 20.6189 100.299 20.6731 100.046 20.79C99.7973 20.8984 99.56 21.0692 99.3342 21.3025C99.1084 21.5358 98.9087 21.8334 98.7351 22.1952L97.2453 25.3003L95.8064 24.61L98.9373 18.0842Z" fill="#E3D021"/>
<path d="M107.248 22.4823L108.674 23.4973L107.08 28.9957L107.102 29.012L111.73 25.6733L113.088 26.6395L106.37 31.2232C106.074 31.4135 105.786 31.5925 105.507 31.76C105.235 31.9329 104.958 32.0565 104.676 32.1307C104.396 32.218 104.108 32.2363 103.812 32.1858C103.51 32.1429 103.188 31.9996 102.846 31.756C102.542 31.5395 102.258 31.3029 101.994 31.0462L102.773 29.9513C102.869 30.0423 102.961 30.1306 103.049 30.2161C103.131 30.3093 103.226 30.3938 103.332 30.4696C103.484 30.5778 103.623 30.6481 103.749 30.6805C103.875 30.7128 103.995 30.7126 104.11 30.6799C104.228 30.6602 104.344 30.6172 104.46 30.5508C104.576 30.4844 104.699 30.4002 104.829 30.298L105.302 29.9473L107.248 22.4823Z" fill="#E3D021"/>
<path d="M115.932 29.244L116.791 30.0876L118.311 28.5393L119.45 29.6576L117.93 31.2059L118.959 32.2162L118.125 33.0653L117.096 32.0549L114.389 34.8119C114.271 34.9318 114.173 35.0383 114.094 35.1314C114.023 35.231 113.974 35.3272 113.949 35.4198C113.93 35.519 113.941 35.6212 113.981 35.7264C114.028 35.825 114.115 35.9364 114.242 36.0606C114.321 36.1391 114.401 36.2176 114.481 36.296C114.568 36.3679 114.661 36.433 114.76 36.4915L113.897 37.3705C113.757 37.2596 113.621 37.1519 113.488 37.0476C113.355 36.9432 113.226 36.8288 113.099 36.7046C112.799 36.4103 112.582 36.145 112.448 35.9086C112.327 35.6721 112.266 35.4483 112.264 35.2371C112.275 35.0258 112.343 34.8173 112.466 34.6116C112.596 34.4124 112.763 34.203 112.965 33.9833L115.957 30.9367L115.098 30.0931L115.932 29.244Z" fill="#E3D021"/>
<path d="M124.527 34.412L125.467 35.7016L122.469 37.8873L122.486 37.91C122.865 37.8759 123.254 37.9502 123.653 38.1329C124.065 38.3177 124.411 38.6024 124.692 38.9871C125.159 39.6281 125.361 40.2544 125.299 40.8658C125.237 41.4773 124.874 42.025 124.21 42.5089L120.194 45.4369L119.254 44.1473L122.93 41.4667C123.379 41.1162 123.64 40.7762 123.711 40.4467C123.791 40.1118 123.69 39.752 123.41 39.3674C123.25 39.1487 123.066 38.9828 122.856 38.8699C122.654 38.7514 122.438 38.684 122.206 38.6679C121.983 38.6462 121.752 38.6701 121.514 38.7397C121.276 38.8093 121.051 38.9211 120.84 39.075L117.39 41.5906L116.449 40.301L124.527 34.412Z" fill="#E3D021"/>
<path d="M131.172 44.6988L131.888 46.125L130.537 46.8037L129.821 45.3775L131.172 44.6988ZM128.707 45.9368L129.424 47.363L122.956 50.6119L122.239 49.1857L128.707 45.9368Z" fill="#E3D021"/>
<path d="M132.192 53.734L132.64 55.178L131.624 55.4934L131.605 55.5285C132.061 55.6412 132.453 55.8516 132.783 56.1596C133.122 56.4648 133.363 56.8447 133.504 57.2993C133.739 58.0569 133.728 58.715 133.472 59.2735C133.215 59.8321 132.694 60.2331 131.91 60.4766L127.164 61.9501L126.69 60.4259L131.036 59.0769C131.574 58.8903 131.93 58.6526 132.104 58.364C132.288 58.0726 132.309 57.6996 132.168 57.245C132.087 56.9865 131.966 56.7699 131.805 56.5954C131.652 56.418 131.469 56.2843 131.255 56.1943C131.05 56.1015 130.824 56.0496 130.576 56.0385C130.329 56.0275 130.08 56.0607 129.83 56.1382L125.752 57.4042L125.279 55.8799L132.192 53.734Z" fill="#E3D021"/>
<path d="M129.059 72.6463C127.974 72.7726 127.132 72.5606 126.532 72.0103C125.924 71.4704 125.554 70.6302 125.421 69.4899C125.379 69.1284 125.373 68.7579 125.404 68.3784C125.436 68.0082 125.523 67.6599 125.663 67.3334C125.805 67.0163 126.007 66.739 126.271 66.5015C126.535 66.2641 126.873 66.1025 127.286 66.0169L127.471 67.6021C127.253 67.6744 127.082 67.7743 126.956 67.9017C126.83 68.0292 126.738 68.1714 126.681 68.3283C126.616 68.4957 126.585 68.6731 126.588 68.8607C126.582 69.0493 126.591 69.2456 126.615 69.4496C126.689 70.0893 126.901 70.5391 127.251 70.799C127.601 71.059 128.072 71.1544 128.666 71.0853L129.764 70.9573L129.761 70.9295C129.336 70.7534 128.99 70.4837 128.722 70.1202C128.455 69.766 128.296 69.3665 128.244 68.9215C128.177 68.3467 128.218 67.844 128.365 67.4134C128.522 66.991 128.757 66.6254 129.068 66.3166C129.391 66.016 129.772 65.779 130.212 65.6056C130.652 65.4321 131.132 65.3152 131.651 65.2547C132.133 65.1985 132.601 65.2192 133.054 65.3168C133.507 65.4144 133.912 65.5833 134.268 65.8237C134.635 66.0629 134.938 66.3705 135.179 66.7465C135.421 67.1317 135.572 67.5793 135.632 68.0892C135.685 68.5434 135.636 68.9719 135.485 69.3747C135.344 69.7764 135.082 70.103 134.697 70.3545L134.701 70.3823L135.688 70.2673L135.873 71.8525L129.059 72.6463ZM129.525 69.026C129.566 69.3783 129.67 69.6668 129.837 69.8917C130.015 70.1247 130.228 70.3019 130.477 70.4232C130.736 70.5527 131.018 70.6327 131.323 70.663C131.637 70.7015 131.947 70.703 132.253 70.6674C132.559 70.6317 132.852 70.5601 133.13 70.4524C133.409 70.3448 133.65 70.1992 133.855 70.0157C134.06 69.8415 134.213 69.6216 134.313 69.3562C134.415 69.1 134.446 68.8004 134.406 68.4574C134.365 68.1051 134.256 67.8171 134.08 67.5934C133.903 67.3696 133.686 67.1976 133.428 67.0774C133.179 66.956 132.897 66.8807 132.584 66.8515C132.28 66.8211 131.979 66.8232 131.683 66.8578C131.386 66.8923 131.098 66.9634 130.82 67.0711C130.55 67.1777 130.313 67.3181 130.108 67.4923C129.903 67.6758 129.745 67.8916 129.633 68.1395C129.522 68.3968 129.486 68.6923 129.525 69.026Z" fill="#E3D021"/>
<path d="M126.363 95.3267C126.177 95.2671 126.036 95.2468 125.942 95.2657C125.845 95.2935 125.774 95.3785 125.728 95.5208C125.714 95.5653 125.697 95.6186 125.677 95.6808C125.657 95.7431 125.644 95.817 125.636 95.9027L124.582 95.5664C124.581 95.5074 124.586 95.4306 124.597 95.336C124.596 95.2475 124.601 95.1559 124.611 95.0613C124.622 94.9667 124.637 94.8736 124.656 94.7818C124.676 94.6901 124.695 94.6131 124.715 94.5508C124.815 94.2396 124.959 94.0016 125.149 93.8369C125.339 93.6721 125.599 93.6083 125.93 93.6454C125.733 93.2494 125.639 92.8078 125.648 92.3207C125.653 91.8425 125.721 91.3988 125.852 90.9898C125.951 90.6786 126.091 90.395 126.271 90.1388C126.441 89.8798 126.642 89.6647 126.873 89.4935C127.11 89.3341 127.375 89.2274 127.666 89.1735C127.964 89.1313 128.281 89.1641 128.619 89.272C129.046 89.4082 129.369 89.5945 129.587 89.8308C129.803 90.076 129.947 90.3471 130.018 90.6444C130.087 90.9505 130.103 91.269 130.066 91.6001C130.035 91.9429 129.986 92.28 129.919 92.6114C129.885 92.9041 129.837 93.1778 129.775 93.4324C129.722 93.6899 129.693 93.9205 129.686 94.1242C129.677 94.3369 129.709 94.5136 129.782 94.6543C129.86 94.8068 130.011 94.9185 130.233 94.9895C130.429 95.0519 130.604 95.0541 130.76 94.996C130.913 94.9468 131.043 94.861 131.151 94.7386C131.265 94.628 131.357 94.491 131.429 94.3278C131.51 94.1673 131.574 94.0115 131.622 93.8604C131.759 93.4336 131.782 93.054 131.692 92.7216C131.602 92.3892 131.376 92.1456 131.014 91.9909L131.499 90.4705C131.935 90.639 132.27 90.8635 132.504 91.1439C132.738 91.4243 132.898 91.7351 132.985 92.0764C133.069 92.4265 133.089 92.7953 133.044 93.1825C132.998 93.5698 132.915 93.9546 132.793 94.3369C132.685 94.6748 132.543 94.9968 132.367 95.3031C132.191 95.6094 131.981 95.8659 131.739 96.0727C131.494 96.2883 131.217 96.435 130.908 96.5128C130.608 96.5933 130.276 96.5755 129.911 96.4591L126.363 95.3267ZM128.769 94.4193C128.692 94.1399 128.689 93.8256 128.762 93.4763C128.843 93.13 128.906 92.7779 128.952 92.4202C128.976 92.2516 128.986 92.0832 128.981 91.915C128.985 91.7497 128.96 91.595 128.908 91.4511C128.865 91.3099 128.784 91.1811 128.664 91.0646C128.551 90.9598 128.396 90.8761 128.201 90.8137C128.032 90.7598 127.874 90.7633 127.727 90.8242C127.58 90.8851 127.45 90.9709 127.336 91.0815C127.229 91.2039 127.136 91.3409 127.058 91.4924C126.978 91.6529 126.916 91.7998 126.873 91.9331C126.82 92.1021 126.784 92.2914 126.766 92.5012C126.748 92.711 126.765 92.9174 126.818 93.1204C126.868 93.3323 126.954 93.5216 127.077 93.6883C127.209 93.8578 127.396 93.9808 127.636 94.0575L128.769 94.4193Z" fill="#E3D021"/>
<path d="M128.237 109.711L127.349 111.037L119.043 105.476L119.931 104.15L128.237 109.711Z" fill="#E3D021"/>
<path d="M113.189 112.377C113.585 111.955 114.008 111.642 114.457 111.436C114.907 111.244 115.363 111.148 115.825 111.147C116.281 111.152 116.736 111.254 117.191 111.451C117.64 111.655 118.068 111.949 118.476 112.332C118.878 112.709 119.194 113.116 119.425 113.551C119.65 113.993 119.78 114.441 119.813 114.896C119.841 115.357 119.769 115.815 119.598 116.269C119.428 116.737 119.145 117.181 118.748 117.603C118.352 118.024 117.929 118.331 117.479 118.524C117.03 118.729 116.578 118.829 116.122 118.823C115.66 118.824 115.204 118.723 114.756 118.519C114.301 118.321 113.872 118.034 113.471 117.657C113.063 117.274 112.747 116.861 112.522 116.419C112.29 115.984 112.161 115.535 112.133 115.074C112.099 114.619 112.168 114.158 112.338 113.691C112.509 113.237 112.793 112.799 113.189 112.377ZM114.107 113.24C113.864 113.498 113.707 113.774 113.637 114.067C113.567 114.359 113.563 114.65 113.625 114.939C113.686 115.227 113.801 115.501 113.967 115.76C114.134 116.032 114.333 116.277 114.564 116.494C114.789 116.705 115.042 116.886 115.324 117.035C115.599 117.192 115.88 117.289 116.165 117.326C116.457 117.37 116.746 117.348 117.034 117.26C117.322 117.172 117.587 116.998 117.83 116.74C118.073 116.481 118.23 116.206 118.3 115.913C118.37 115.62 118.374 115.33 118.313 115.041C118.258 114.759 118.147 114.482 117.98 114.21C117.807 113.944 117.608 113.706 117.383 113.495C117.152 113.278 116.899 113.091 116.623 112.934C116.348 112.791 116.064 112.697 115.773 112.654C115.481 112.61 115.191 112.632 114.903 112.72C114.615 112.808 114.35 112.982 114.107 113.24Z" fill="#E3D021"/>
<path d="M112.949 122.716L111.992 123.447L113.308 125.172L112.04 126.14L110.723 124.415L109.577 125.29L108.855 124.344L110.001 123.469L107.657 120.397C107.555 120.263 107.464 120.151 107.383 120.061C107.294 119.975 107.206 119.914 107.118 119.875C107.022 119.842 106.92 119.838 106.81 119.864C106.706 119.896 106.583 119.966 106.442 120.074C106.353 120.142 106.264 120.21 106.175 120.278C106.091 120.353 106.014 120.436 105.942 120.526L105.194 119.547C105.324 119.424 105.45 119.305 105.572 119.188C105.694 119.071 105.826 118.959 105.967 118.851C106.301 118.597 106.594 118.42 106.847 118.321C107.099 118.234 107.329 118.205 107.538 118.234C107.746 118.275 107.943 118.371 108.129 118.523C108.307 118.68 108.491 118.874 108.68 119.106L111.27 122.501L112.227 121.77L112.949 122.716Z" fill="#E3D021"/>
<path d="M92.7678 125.743C93.3086 125.537 93.8259 125.439 94.3197 125.451C94.8081 125.475 95.2604 125.587 95.6766 125.788C96.084 125.992 96.4493 126.283 96.7724 126.659C97.0868 127.039 97.3437 127.49 97.5431 128.013C97.7391 128.528 97.8461 129.031 97.864 129.524C97.8731 130.02 97.7936 130.48 97.6254 130.903C97.4484 131.33 97.1839 131.711 96.8317 132.045C96.4741 132.391 96.0249 132.667 95.4842 132.873C94.9434 133.079 94.4288 133.17 93.9404 133.146C93.4466 133.135 92.9959 133.027 92.5885 132.822C92.1723 132.621 91.8071 132.331 91.4927 131.951C91.1695 131.575 90.9099 131.13 90.7139 130.615C90.5145 130.092 90.4103 129.582 90.4011 129.086C90.3833 128.594 90.4628 128.134 90.6397 127.707C90.8079 127.283 91.0708 126.898 91.4284 126.552C91.7806 126.219 92.2271 125.949 92.7678 125.743ZM93.2164 126.92C92.885 127.046 92.6237 127.226 92.4327 127.458C92.2416 127.691 92.1108 127.95 92.0402 128.237C91.9696 128.524 91.9526 128.82 91.9891 129.125C92.0203 129.443 92.0924 129.75 92.2053 130.047C92.315 130.335 92.4639 130.608 92.652 130.865C92.8315 131.127 93.0412 131.336 93.2813 131.495C93.5246 131.662 93.795 131.768 94.0924 131.815C94.3898 131.861 94.7042 131.821 95.0356 131.695C95.367 131.569 95.6283 131.39 95.8193 131.157C96.0104 130.924 96.1412 130.665 96.2118 130.378C96.2857 130.1 96.3071 129.803 96.276 129.485C96.2361 129.17 96.1613 128.869 96.0517 128.581C95.9387 128.285 95.7925 128.006 95.6131 127.745C95.4282 127.496 95.2141 127.288 94.9708 127.121C94.7274 126.954 94.457 126.847 94.1596 126.8C93.8622 126.754 93.5478 126.794 93.2164 126.92Z" fill="#E3D021"/>
<path d="M88.0194 134.94L86.853 135.176L86.9724 135.766C87.063 136.214 87.0812 136.586 87.0269 136.883C86.9744 137.189 86.8715 137.433 86.7182 137.617C86.5666 137.809 86.3812 137.952 86.1617 138.044C85.9349 138.147 85.6935 138.224 85.4373 138.276C84.9342 138.377 84.5618 138.419 84.3201 138.402L84.0732 137.18C84.1794 137.187 84.2929 137.184 84.4136 137.169C84.5271 137.165 84.6616 137.147 84.8171 137.116C85.0275 137.073 85.2003 136.986 85.3355 136.854C85.4615 136.723 85.4949 136.512 85.4358 136.219L85.2887 135.492L83.9576 135.761L83.7218 134.595L85.0529 134.326L83.8543 128.398L85.4186 128.081L86.6172 134.009L87.7836 133.773L88.0194 134.94Z" fill="#E3D021"/>
<path d="M71.208 136.536L69.7019 136.403L69.7958 135.343L69.7704 135.313C69.4933 135.691 69.1496 135.974 68.7393 136.163C68.3283 136.361 67.8857 136.439 67.4115 136.397C66.6213 136.327 66.0165 136.067 65.5972 135.618C65.1779 135.168 65.0045 134.534 65.077 133.716L65.5155 128.766L67.1053 128.906L66.7038 133.439C66.6721 134.007 66.7568 134.427 66.9577 134.698C67.1577 134.978 67.4948 135.139 67.969 135.181C68.2386 135.205 68.4848 135.175 68.7077 135.092C68.9298 135.018 69.123 134.899 69.2874 134.736C69.451 134.582 69.5849 134.392 69.6892 134.167C69.7934 133.942 69.8571 133.699 69.8802 133.439L70.2569 129.186L71.8467 129.326L71.208 136.536Z" fill="#E3D021"/>
<path d="M58.3296 126.819C58.8857 126.979 59.3576 127.212 59.7455 127.518C60.1218 127.83 60.416 128.191 60.628 128.602C60.831 129.01 60.9487 129.462 60.9811 129.957C61.0045 130.449 60.9387 130.964 60.7838 131.502C60.6315 132.031 60.4146 132.498 60.133 132.903C59.8425 133.305 59.5028 133.625 59.1138 133.862C58.716 134.098 58.2759 134.243 57.7938 134.298C57.3001 134.36 56.7752 134.311 56.2191 134.151C55.663 133.991 55.1968 133.755 54.8205 133.443C54.4326 133.137 54.1372 132.78 53.9341 132.372C53.7221 131.961 53.6044 131.509 53.581 131.017C53.5487 130.522 53.6086 130.01 53.761 129.481C53.9159 128.943 54.1386 128.473 54.4291 128.071C54.7106 127.666 55.0504 127.346 55.4483 127.111C55.8372 126.873 56.2785 126.724 56.7722 126.662C57.2544 126.606 57.7735 126.659 58.3296 126.819ZM57.981 128.03C57.6402 127.931 57.3236 127.918 57.0311 127.989C56.7387 128.06 56.4782 128.189 56.2496 128.376C56.0211 128.563 55.8296 128.789 55.6752 129.056C55.5093 129.329 55.3825 129.617 55.2947 129.922C55.2095 130.218 55.1647 130.526 55.1602 130.845C55.1467 131.162 55.1885 131.455 55.2854 131.726C55.3797 132.006 55.5318 132.254 55.7416 132.469C55.9514 132.685 56.2268 132.842 56.5676 132.94C56.9084 133.038 57.2251 133.052 57.5175 132.981C57.81 132.909 58.0705 132.78 58.299 132.594C58.525 132.416 58.721 132.191 58.8869 131.918C59.0438 131.642 59.1649 131.357 59.2501 131.061C59.3379 130.756 59.3885 130.445 59.4019 130.128C59.4038 129.818 59.3576 129.523 59.2633 129.244C59.1689 128.964 59.0169 128.716 58.807 128.5C58.5972 128.285 58.3219 128.128 57.981 128.03Z" fill="#E3D021"/>
<path d="M49.0218 131.327L47.9349 130.809L47.0013 132.767L45.5605 132.081L46.4941 130.122L45.1924 129.501L45.7044 128.427L47.0061 129.048L48.6685 125.56C48.7408 125.408 48.7988 125.275 48.8426 125.162C48.8779 125.044 48.8926 124.937 48.8866 124.842C48.8722 124.742 48.8287 124.648 48.7561 124.562C48.6795 124.484 48.5611 124.407 48.4011 124.331C48.3 124.283 48.1989 124.235 48.0978 124.186C47.9926 124.147 47.8835 124.115 47.7703 124.092L48.3004 122.98C48.4685 123.04 48.6324 123.097 48.7921 123.153C48.9518 123.208 49.1117 123.274 49.2717 123.35C49.6509 123.531 49.9423 123.711 50.1461 123.891C50.3375 124.075 50.4684 124.267 50.539 124.466C50.5971 124.669 50.6013 124.888 50.5514 125.123C50.4932 125.354 50.404 125.606 50.2839 125.88L48.4468 129.734L49.5337 130.252L49.0218 131.327Z" fill="#E3D021"/>
<path d="M39.2129 129.238L37.9041 128.325L40.0271 125.282L40.0041 125.266C39.6565 125.422 39.2643 125.478 38.8276 125.435C38.378 125.395 37.958 125.238 37.5676 124.966C36.917 124.512 36.5217 123.985 36.3816 123.387C36.2416 122.789 36.4065 122.152 36.8765 121.479L39.7206 117.403L41.0294 118.316L38.4257 122.048C38.1153 122.525 37.9798 122.932 38.0193 123.266C38.0534 123.609 38.2657 123.916 38.656 124.189C38.878 124.344 39.1064 124.44 39.3412 124.479C39.5706 124.525 39.7973 124.519 40.0213 124.459C40.2399 124.406 40.4504 124.308 40.6528 124.165C40.8552 124.022 41.0312 123.843 41.1807 123.629L43.6242 120.127L44.933 121.04L39.2129 129.238Z" fill="#E3D021"/>
<path d="M29.5811 121.674L28.4394 120.559L29.496 119.478L30.6377 120.593L29.5811 121.674ZM31.5084 119.702L30.3667 118.586L35.4247 113.409L36.5663 114.524L31.5084 119.702Z" fill="#E3D021"/>
<path d="M25.6755 113.463L24.7816 112.244L25.6397 111.615L25.6457 111.576C25.1786 111.617 24.7388 111.546 24.3264 111.363C23.9064 111.184 23.5557 110.903 23.2743 110.519C22.8053 109.88 22.6011 109.254 22.662 108.642C22.7228 108.031 23.0844 107.482 23.7468 106.996L27.7551 104.058L28.6987 105.345L25.0291 108.035C24.581 108.387 24.3215 108.728 24.2507 109.057C24.1724 109.392 24.2739 109.752 24.5554 110.136C24.7154 110.354 24.9003 110.519 25.11 110.632C25.3122 110.75 25.5289 110.817 25.7602 110.832C25.984 110.853 26.2148 110.829 26.4527 110.759C26.6905 110.688 26.9148 110.576 27.1256 110.422L30.5694 107.897L31.513 109.184L25.6755 113.463Z" fill="#E3D021"/>
<path d="M22.4812 94.5615C23.4657 94.0889 24.331 94.0152 25.0772 94.3403C25.8277 94.653 26.4514 95.3268 26.9482 96.3617C27.1057 96.6899 27.2316 97.0384 27.3258 97.4073C27.416 97.7678 27.4478 98.1252 27.4213 98.4796C27.3906 98.8256 27.2893 99.1538 27.1174 99.4641C26.9454 99.7744 26.6781 100.037 26.3157 100.253L25.625 98.8138C25.8067 98.6748 25.9365 98.5246 26.0142 98.363C26.092 98.2014 26.1322 98.0372 26.1349 97.8703C26.142 97.6909 26.1135 97.513 26.0496 97.3366C25.994 97.1562 25.9218 96.9735 25.833 96.7884C25.5543 96.2078 25.2073 95.8515 24.792 95.7196C24.3766 95.5877 23.8997 95.651 23.3612 95.9094L22.3641 96.3881L22.3762 96.4133C22.835 96.4416 23.2501 96.5839 23.6217 96.8404C23.9893 97.0884 24.27 97.4144 24.4638 97.8183C24.7142 98.34 24.84 98.8283 24.841 99.2834C24.8295 99.734 24.7267 100.156 24.5325 100.55C24.3259 100.939 24.0427 101.287 23.6829 101.594C23.3231 101.901 22.9076 102.168 22.4364 102.394C21.9989 102.604 21.55 102.737 21.09 102.792C20.6299 102.847 20.192 102.819 19.7763 102.708C19.3523 102.601 18.965 102.409 18.6147 102.132C18.2602 101.847 17.972 101.473 17.7498 101.01C17.5519 100.598 17.4585 100.177 17.4696 99.7469C17.4723 99.3212 17.6143 98.9269 17.8957 98.564L17.8836 98.5388L16.9875 98.9689L16.2968 97.5301L22.4812 94.5615ZM23.2189 98.1364C23.0654 97.8166 22.873 97.5777 22.6418 97.4195C22.3981 97.2569 22.1388 97.1588 21.8638 97.1252C21.5764 97.0871 21.2839 97.1033 20.9864 97.1736C20.6764 97.2396 20.3826 97.3392 20.1049 97.4725C19.8273 97.6058 19.5742 97.7687 19.3456 97.9612C19.1171 98.1537 18.9362 98.37 18.8029 98.61C18.6656 98.8415 18.5926 99.0992 18.5838 99.3829C18.571 99.6582 18.6394 99.9515 18.7888 100.263C18.9423 100.583 19.1388 100.82 19.3785 100.974C19.6181 101.128 19.8796 101.22 20.163 101.249C20.438 101.283 20.7285 101.263 21.0344 101.188C21.3319 101.118 21.6153 101.018 21.8846 100.889C22.1538 100.76 22.4027 100.599 22.6312 100.406C22.8514 100.218 23.0301 100.008 23.1674 99.7761C23.3007 99.5361 23.3799 99.2807 23.4052 99.0097C23.4264 98.7304 23.3643 98.4393 23.2189 98.1364Z" fill="#E3D021"/>
</svg>
