<svg width="206" height="89" viewBox="0 0 206 89" fill="none" xmlns="http://www.w3.org/2000/svg">
<path d="M0.296 25.04L3.656 24.56V2.576L0.296 2.096V1.136H8.456V6.32C9.64 4.592 11.032 3.232 12.632 2.24C14.232 1.216 15.96 0.704 17.816 0.704C20.12 0.704 21.928 1.28 23.24 2.432C24.584 3.584 25.256 5.296 25.256 7.568V24.56L28.616 25.04V26H17.576V25.04L20.456 24.56V7.664C20.456 6 20.12 4.72 19.448 3.824C18.776 2.896 17.736 2.432 16.328 2.432C14.856 2.432 13.432 2.976 12.056 4.064C10.712 5.12 9.512 6.432 8.456 8V24.56L11.336 25.04V26H0.296V25.04ZM43.9648 26.48C41.6608 26.48 39.5648 25.952 37.6768 24.896C35.7888 23.808 34.2848 22.288 33.1648 20.336C32.0768 18.352 31.5328 16.096 31.5328 13.568C31.5328 11.04 32.0768 8.8 33.1648 6.848C34.2848 4.896 35.7888 3.392 37.6768 2.336C39.5648 1.248 41.6608 0.704 43.9648 0.704C46.2688 0.704 48.3648 1.248 50.2528 2.336C52.1408 3.392 53.6288 4.896 54.7168 6.848C55.8368 8.8 56.3968 11.04 56.3968 13.568C56.3968 16.096 55.8368 18.352 54.7168 20.336C53.6288 22.288 52.1408 23.808 50.2528 24.896C48.3648 25.952 46.2688 26.48 43.9648 26.48ZM43.9648 25.424C46.3328 25.424 48.1088 24.56 49.2928 22.832C50.5088 21.104 51.1168 18.816 51.1168 15.968V11.168C51.1168 8.32 50.5088 6.048 49.2928 4.352C48.1088 2.624 46.3328 1.76 43.9648 1.76C41.5968 1.76 39.8048 2.624 38.5888 4.352C37.4048 6.048 36.8128 8.32 36.8128 11.168V15.968C36.8128 18.816 37.4048 21.104 38.5888 22.832C39.8048 24.56 41.5968 25.424 43.9648 25.424ZM59.7335 25.04L63.0935 24.56V2.576L59.7335 2.096V1.136H67.8935V4.832C69.9095 2.08 72.1815 0.704 74.7095 0.704C75.9255 0.704 76.9975 1.024 77.9255 1.664C78.8535 2.272 79.3175 3.152 79.3175 4.304C79.3175 5.136 79.0455 5.84 78.5015 6.416C77.9575 6.96 77.2375 7.232 76.3415 7.232C75.3175 7.232 74.4855 6.832 73.8455 6.032C74.1975 5.584 74.3735 5.104 74.3735 4.592C74.3735 4.048 74.1815 3.616 73.7975 3.296C73.4455 2.944 72.9655 2.768 72.3575 2.768C71.6855 2.768 70.9975 3.088 70.2935 3.728C69.5895 4.336 68.7895 5.296 67.8935 6.608V24.56L71.7335 25.04V26H59.7335V25.04ZM80.9679 25.04L84.3279 24.56V2.576L80.9679 2.096V1.136H89.1279V5.552C90.2799 4.048 91.5759 2.864 93.0159 2C94.4879 1.136 96.0719 0.704 97.7679 0.704C99.7199 0.704 101.304 1.136 102.52 2C103.768 2.832 104.552 4.096 104.872 5.792C106.024 4.224 107.336 2.992 108.808 2.096C110.28 1.168 111.896 0.704 113.656 0.704C115.928 0.704 117.688 1.28 118.936 2.432C120.216 3.552 120.856 5.264 120.856 7.568V24.56L124.216 25.04V26H113.176V25.04L116.056 24.56V7.664C116.056 5.968 115.752 4.672 115.144 3.776C114.536 2.88 113.544 2.432 112.168 2.432C110.856 2.432 109.576 2.88 108.328 3.776C107.112 4.672 106.008 5.824 105.016 7.232V24.56L107.896 25.04V26H97.2879V25.04L100.168 24.56V7.664C100.168 5.968 99.8639 4.672 99.2559 3.776C98.6479 2.88 97.6559 2.432 96.2799 2.432C94.9679 2.432 93.6879 2.88 92.4399 3.776C91.2239 4.672 90.1199 5.824 89.1279 7.232V24.56L92.0079 25.04V26H80.9679V25.04ZM134.31 26.48C132.262 26.48 130.582 25.952 129.27 24.896C127.958 23.808 127.302 22.208 127.302 20.096C127.302 17.088 128.566 14.96 131.094 13.712C133.622 12.432 136.55 11.792 139.878 11.792H143.094V8.096C143.094 6.432 142.902 5.152 142.518 4.256C142.166 3.328 141.606 2.688 140.838 2.336C140.07 1.952 139.03 1.76 137.718 1.76C136.214 1.76 135.094 2.064 134.358 2.672C133.622 3.248 133.254 4.032 133.254 5.024C133.254 5.952 133.702 6.56 134.598 6.848C134.598 7.648 134.294 8.352 133.686 8.96C133.078 9.568 132.358 9.872 131.526 9.872C130.63 9.872 129.91 9.632 129.366 9.152C128.822 8.64 128.55 7.872 128.55 6.848C128.55 4.992 129.478 3.504 131.334 2.384C133.19 1.264 135.51 0.704 138.294 0.704C144.694 0.704 147.894 3.488 147.894 9.056V22.784C147.894 23.488 148.038 24.032 148.326 24.416C148.646 24.768 149.094 24.944 149.67 24.944C150.214 24.944 150.646 24.768 150.966 24.416C151.286 24.032 151.446 23.52 151.446 22.88H152.454C152.454 24 152.086 24.88 151.35 25.52C150.646 26.16 149.654 26.48 148.374 26.48C146.902 26.48 145.654 26.064 144.63 25.232C143.638 24.368 143.126 23.04 143.094 21.248C142.326 22.88 141.142 24.16 139.542 25.088C137.974 26.016 136.23 26.48 134.31 26.48ZM136.95 24.368C137.814 24.368 138.694 24.112 139.59 23.6C140.518 23.088 141.302 22.352 141.942 21.392C142.582 20.4 142.966 19.216 143.094 17.84V12.848H139.878C137.254 12.848 135.286 13.44 133.974 14.624C132.694 15.776 132.054 17.408 132.054 19.52C132.054 21.28 132.47 22.528 133.302 23.264C134.134 24 135.35 24.368 136.95 24.368ZM153.624 25.04L156.984 24.56V2.576L153.624 2.096V1.136H161.784V6.32C162.968 4.592 164.36 3.232 165.96 2.24C167.56 1.216 169.288 0.704 171.144 0.704C173.448 0.704 175.256 1.28 176.568 2.432C177.912 3.584 178.584 5.296 178.584 7.568V24.56L181.944 25.04V26H170.904V25.04L173.784 24.56V7.664C173.784 6 173.448 4.72 172.776 3.824C172.104 2.896 171.064 2.432 169.656 2.432C168.184 2.432 166.76 2.976 165.384 4.064C164.04 5.12 162.84 6.432 161.784 8V24.56L164.664 25.04V26H153.624V25.04ZM0.296 75.04L3.656 74.56V52.576L0.296 52.096V51.136H8.456V55.552C9.608 54.048 10.904 52.864 12.344 52C13.816 51.136 15.4 50.704 17.096 50.704C19.048 50.704 20.632 51.136 21.848 52C23.096 52.832 23.88 54.096 24.2 55.792C25.352 54.224 26.664 52.992 28.136 52.096C29.608 51.168 31.224 50.704 32.984 50.704C35.256 50.704 37.016 51.28 38.264 52.432C39.544 53.552 40.184 55.264 40.184 57.568V74.56L43.544 75.04V76H32.504V75.04L35.384 74.56V57.664C35.384 55.968 35.08 54.672 34.472 53.776C33.864 52.88 32.872 52.432 31.496 52.432C30.184 52.432 28.904 52.88 27.656 53.776C26.44 54.672 25.336 55.824 24.344 57.232V74.56L27.224 75.04V76H16.616V75.04L19.496 74.56V57.664C19.496 55.968 19.192 54.672 18.584 53.776C17.976 52.88 16.984 52.432 15.608 52.432C14.296 52.432 13.016 52.88 11.768 53.776C10.552 54.672 9.448 55.824 8.456 57.232V74.56L11.336 75.04V76H0.296V75.04ZM53.6379 76.48C51.5899 76.48 49.9099 75.952 48.5979 74.896C47.2859 73.808 46.6299 72.208 46.6299 70.096C46.6299 67.088 47.8939 64.96 50.4219 63.712C52.9499 62.432 55.8779 61.792 59.2059 61.792H62.4219V58.096C62.4219 56.432 62.2299 55.152 61.8459 54.256C61.4939 53.328 60.9339 52.688 60.1659 52.336C59.3979 51.952 58.3579 51.76 57.0459 51.76C55.5419 51.76 54.4219 52.064 53.6859 52.672C52.9499 53.248 52.5819 54.032 52.5819 55.024C52.5819 55.952 53.0299 56.56 53.9259 56.848C53.9259 57.648 53.6219 58.352 53.0139 58.96C52.4059 59.568 51.6859 59.872 50.8539 59.872C49.9579 59.872 49.2379 59.632 48.6939 59.152C48.1499 58.64 47.8779 57.872 47.8779 56.848C47.8779 54.992 48.8059 53.504 50.6619 52.384C52.5179 51.264 54.8379 50.704 57.6219 50.704C64.0219 50.704 67.2219 53.488 67.2219 59.056V72.784C67.2219 73.488 67.3659 74.032 67.6539 74.416C67.9739 74.768 68.4219 74.944 68.9979 74.944C69.5419 74.944 69.9739 74.768 70.2939 74.416C70.6139 74.032 70.7739 73.52 70.7739 72.88H71.7819C71.7819 74 71.4139 74.88 70.6779 75.52C69.9739 76.16 68.9819 76.48 67.7019 76.48C66.2299 76.48 64.9819 76.064 63.9579 75.232C62.9659 74.368 62.4539 73.04 62.4219 71.248C61.6539 72.88 60.4699 74.16 58.8699 75.088C57.3019 76.016 55.5579 76.48 53.6379 76.48ZM56.2779 74.368C57.1419 74.368 58.0219 74.112 58.9179 73.6C59.8459 73.088 60.6299 72.352 61.2699 71.392C61.9099 70.4 62.2939 69.216 62.4219 67.84V62.848H59.2059C56.5819 62.848 54.6139 63.44 53.3019 64.624C52.0219 65.776 51.3819 67.408 51.3819 69.52C51.3819 71.28 51.7979 72.528 52.6299 73.264C53.4619 74 54.6779 74.368 56.2779 74.368ZM83.1763 76.48C80.5523 76.48 78.3603 75.92 76.6003 74.8C74.8403 73.68 73.9603 72.224 73.9603 70.432C73.9603 69.504 74.2003 68.784 74.6803 68.272C75.1923 67.728 75.8643 67.456 76.6963 67.456C77.3363 67.456 77.8803 67.616 78.3283 67.936C78.7763 68.256 79.0963 68.704 79.2883 69.28C78.5843 70.048 78.2323 70.864 78.2323 71.728C78.2323 72.72 78.6803 73.584 79.5763 74.32C80.4723 75.056 81.6723 75.424 83.1763 75.424C85.1923 75.424 86.8403 74.976 88.1203 74.08C89.4003 73.152 90.0403 71.92 90.0403 70.384C90.0403 69.488 89.7683 68.816 89.2243 68.368C88.6803 67.92 87.6243 67.408 86.0563 66.832L78.8083 64.192C75.9603 63.168 74.5363 61.264 74.5363 58.48C74.5363 56.208 75.3203 54.352 76.8883 52.912C78.4563 51.44 80.6163 50.704 83.3683 50.704C85.6403 50.704 87.5763 51.232 89.1763 52.288C90.8083 53.312 91.6243 54.784 91.6243 56.704C91.6243 57.472 91.4163 58.096 91.0003 58.576C90.5843 59.024 90.0403 59.248 89.3683 59.248C88.6963 59.248 88.1363 59.072 87.6883 58.72C87.2723 58.336 87.0643 57.824 87.0643 57.184C87.4803 56.864 87.7683 56.528 87.9283 56.176C88.0883 55.792 88.1683 55.344 88.1683 54.832C88.1683 53.936 87.7683 53.2 86.9683 52.624C86.2003 52.048 85.0003 51.76 83.3683 51.76C81.9603 51.76 80.7443 51.984 79.7203 52.432C78.7283 52.848 77.9763 53.408 77.4643 54.112C76.9523 54.816 76.6963 55.536 76.6963 56.272C76.6963 57.04 76.9683 57.648 77.5123 58.096C78.0883 58.544 79.1283 59.04 80.6323 59.584L87.3523 61.984C88.9203 62.56 90.1043 63.36 90.9043 64.384C91.7043 65.408 92.1043 66.736 92.1043 68.368C92.1043 70.704 91.3683 72.64 89.8963 74.176C88.4243 75.712 86.1843 76.48 83.1763 76.48ZM103.7 76.48C101.652 76.48 99.9724 75.952 98.6604 74.896C97.3484 73.808 96.6924 72.208 96.6924 70.096C96.6924 67.088 97.9564 64.96 100.484 63.712C103.012 62.432 105.94 61.792 109.268 61.792H112.484V58.096C112.484 56.432 112.292 55.152 111.908 54.256C111.556 53.328 110.996 52.688 110.228 52.336C109.46 51.952 108.42 51.76 107.108 51.76C105.604 51.76 104.484 52.064 103.748 52.672C103.012 53.248 102.644 54.032 102.644 55.024C102.644 55.952 103.092 56.56 103.988 56.848C103.988 57.648 103.684 58.352 103.076 58.96C102.468 59.568 101.748 59.872 100.916 59.872C100.02 59.872 99.3004 59.632 98.7564 59.152C98.2124 58.64 97.9404 57.872 97.9404 56.848C97.9404 54.992 98.8684 53.504 100.724 52.384C102.58 51.264 104.9 50.704 107.684 50.704C114.084 50.704 117.284 53.488 117.284 59.056V72.784C117.284 73.488 117.428 74.032 117.716 74.416C118.036 74.768 118.484 74.944 119.06 74.944C119.604 74.944 120.036 74.768 120.356 74.416C120.676 74.032 120.836 73.52 120.836 72.88H121.844C121.844 74 121.476 74.88 120.74 75.52C120.036 76.16 119.044 76.48 117.764 76.48C116.292 76.48 115.044 76.064 114.02 75.232C113.028 74.368 112.516 73.04 112.484 71.248C111.716 72.88 110.532 74.16 108.932 75.088C107.364 76.016 105.62 76.48 103.7 76.48ZM106.34 74.368C107.204 74.368 108.084 74.112 108.98 73.6C109.908 73.088 110.692 72.352 111.332 71.392C111.972 70.4 112.356 69.216 112.484 67.84V62.848H109.268C106.644 62.848 104.676 63.44 103.364 64.624C102.084 65.776 101.444 67.408 101.444 69.52C101.444 71.28 101.86 72.528 102.692 73.264C103.524 74 104.74 74.368 106.34 74.368ZM123.015 75.04L126.375 74.56V52.576L123.015 52.096V51.136H131.175V56.32C132.359 54.592 133.751 53.232 135.351 52.24C136.951 51.216 138.679 50.704 140.535 50.704C142.839 50.704 144.647 51.28 145.959 52.432C147.303 53.584 147.975 55.296 147.975 57.568V74.56L151.335 75.04V76H140.295V75.04L143.175 74.56V57.664C143.175 56 142.839 54.72 142.167 53.824C141.495 52.896 140.455 52.432 139.047 52.432C137.575 52.432 136.151 52.976 134.775 54.064C133.431 55.12 132.231 56.432 131.175 58V74.56L134.055 75.04V76H123.015V75.04ZM178.108 48.88C178.108 50.128 177.644 51.2 176.716 52.096C175.788 52.992 174.316 53.568 172.3 53.824C173.132 55.04 173.548 56.704 173.548 58.816C173.548 61.312 172.652 63.28 170.86 64.72C169.1 66.16 166.86 66.88 164.14 66.88C163.02 66.88 161.996 66.784 161.068 66.592C159.02 66.72 157.996 67.52 157.996 68.992C157.996 69.824 158.332 70.432 159.004 70.816C159.708 71.2 160.812 71.392 162.316 71.392H167.692C170.284 71.392 172.204 71.92 173.452 72.976C174.732 74.032 175.372 75.84 175.372 78.4C175.372 80.192 174.908 81.84 173.98 83.344C173.084 84.848 171.772 86.032 170.044 86.896C168.316 87.792 166.252 88.24 163.852 88.24C160.236 88.24 157.564 87.696 155.836 86.608C154.14 85.52 153.292 84.08 153.292 82.288C153.292 81.2 153.708 80.24 154.54 79.408C155.372 78.576 156.508 78.16 157.948 78.16C158.236 78.16 158.828 78.224 159.724 78.352C158.732 79.408 158.236 80.656 158.236 82.096C158.236 83.472 158.716 84.672 159.676 85.696C160.636 86.72 162.204 87.232 164.38 87.232C166.268 87.232 167.948 86.864 169.42 86.128C170.924 85.424 172.076 84.496 172.876 83.344C173.676 82.192 174.076 81.008 174.076 79.792C174.076 78.448 173.644 77.472 172.78 76.864C171.916 76.288 170.38 76 168.172 76H162.316C160.076 76 158.38 75.568 157.228 74.704C156.108 73.808 155.548 72.496 155.548 70.768C155.548 69.616 155.868 68.608 156.508 67.744C157.18 66.848 158.028 66.272 159.052 66.016C156.268 64.832 154.876 62.432 154.876 58.816C154.876 56.288 155.756 54.304 157.516 52.864C159.276 51.424 161.484 50.704 164.14 50.704C167.5 50.704 169.932 51.408 171.436 52.816C172.332 52.656 173.004 52.368 173.452 51.952C173.9 51.504 174.124 51.008 174.124 50.464C174.124 49.952 173.98 49.568 173.692 49.312C173.404 49.024 173.068 48.88 172.684 48.88C172.684 48.176 172.94 47.568 173.452 47.056C173.996 46.512 174.636 46.24 175.372 46.24C176.172 46.24 176.828 46.48 177.34 46.96C177.852 47.44 178.108 48.08 178.108 48.88ZM169.036 57.616C169.036 55.664 168.62 54.16 167.788 53.104C166.988 52.048 165.772 51.52 164.14 51.52C160.972 51.52 159.388 53.552 159.388 57.616V59.968C159.388 61.856 159.772 63.344 160.54 64.432C161.34 65.52 162.54 66.064 164.14 66.064C165.772 66.064 166.988 65.52 167.788 64.432C168.62 63.344 169.036 61.856 169.036 59.968V57.616ZM187.091 76.48C185.043 76.48 183.363 75.952 182.051 74.896C180.739 73.808 180.083 72.208 180.083 70.096C180.083 67.088 181.347 64.96 183.875 63.712C186.403 62.432 189.331 61.792 192.659 61.792H195.875V58.096C195.875 56.432 195.683 55.152 195.299 54.256C194.947 53.328 194.387 52.688 193.619 52.336C192.851 51.952 191.811 51.76 190.499 51.76C188.995 51.76 187.875 52.064 187.139 52.672C186.403 53.248 186.035 54.032 186.035 55.024C186.035 55.952 186.483 56.56 187.379 56.848C187.379 57.648 187.075 58.352 186.467 58.96C185.859 59.568 185.139 59.872 184.307 59.872C183.411 59.872 182.691 59.632 182.147 59.152C181.603 58.64 181.331 57.872 181.331 56.848C181.331 54.992 182.259 53.504 184.115 52.384C185.971 51.264 188.291 50.704 191.075 50.704C197.475 50.704 200.675 53.488 200.675 59.056V72.784C200.675 73.488 200.819 74.032 201.107 74.416C201.427 74.768 201.875 74.944 202.451 74.944C202.995 74.944 203.427 74.768 203.747 74.416C204.067 74.032 204.227 73.52 204.227 72.88H205.235C205.235 74 204.867 74.88 204.131 75.52C203.427 76.16 202.435 76.48 201.155 76.48C199.683 76.48 198.435 76.064 197.411 75.232C196.419 74.368 195.907 73.04 195.875 71.248C195.107 72.88 193.923 74.16 192.323 75.088C190.755 76.016 189.011 76.48 187.091 76.48ZM189.731 74.368C190.595 74.368 191.475 74.112 192.371 73.6C193.299 73.088 194.083 72.352 194.723 71.392C195.363 70.4 195.747 69.216 195.875 67.84V62.848H192.659C190.035 62.848 188.067 63.44 186.755 64.624C185.475 65.776 184.835 67.408 184.835 69.52C184.835 71.28 185.251 72.528 186.083 73.264C186.915 74 188.131 74.368 189.731 74.368Z" fill="black"/>
</svg>
